adventprofmm_bld_it.ufo
<glyph name="exclam" format="1">
  <advance width="156"/>
  <unicode hex="0021"/>
  <outline>
    <contour>
      <point x="132" y="640" type="curve" smooth="yes"/>
      <point x="59" y="120" type="line"/>
      <point x="135" y="120" type="line"/>
      <point x="249" y="641" type="line" smooth="yes"/>
      <point x="256" y="686"/>
      <point x="240" y="708"/>
      <point x="200" y="708" type="curve" smooth="yes"/>
      <point x="162" y="708"/>
      <point x="140" y="686"/>
    </contour>
    <contour>
      <point x="96" y="105" type="curve" smooth="yes"/>
      <point x="64" y="105"/>
      <point x="32" y="78"/>
      <point x="26" y="45" type="curve" smooth="yes"/>
      <point x="21" y="12"/>
      <point x="43" y="-15"/>
      <point x="75" y="-15" type="curve" smooth="yes"/>
      <point x="108" y="-15"/>
      <point x="139" y="12"/>
      <point x="144" y="45" type="curve" smooth="yes"/>
      <point x="150" y="78"/>
      <point x="129" y="105"/>
    </contour>
  </outline>
</glyph>
<glyph name="quotedbl" format="1">
  <advance width="262"/>
  <unicode hex="0022"/>
  <outline>
    <contour>
      <point x="276" y="694" type="curve"/>
      <point x="270" y="587" type="line"/>
      <point x="333" y="587" type="line"/>
      <point x="365" y="694" type="line"/>
      <point x="375" y="751"/>
      <point x="285" y="751"/>
    </contour>
    <contour>
      <point x="140" y="694" type="curve"/>
      <point x="135" y="587" type="line"/>
      <point x="197" y="587" type="line"/>
      <point x="230" y="694" type="line"/>
      <point x="240" y="751"/>
      <point x="150" y="751"/>
    </contour>
  </outline>
</glyph>
<glyph name="numbersign" format="1">
  <advance width="587"/>
  <unicode hex="0023"/>
  <outline>
    <contour>
      <point x="630" y="356" type="line"/>
      <point x="650" y="469" type="line"/>
      <point x="575" y="469" type="line"/>
      <point x="670" y="698" type="line"/>
      <point x="555" y="698" type="line"/>
      <point x="460" y="469" type="line"/>
      <point x="342" y="469" type="line"/>
      <point x="436" y="698" type="line"/>
      <point x="332" y="698" type="line"/>
      <point x="238" y="469" type="line"/>
      <point x="101" y="469" type="line"/>
      <point x="81" y="356" type="line"/>
      <point x="191" y="356" type="line"/>
      <point x="155" y="269" type="line"/>
      <point x="66" y="269" type="line"/>
      <point x="48" y="166" type="line"/>
      <point x="113" y="166" type="line"/>
      <point x="44" y="0" type="line"/>
      <point x="150" y="0" type="line"/>
      <point x="217" y="166" type="line"/>
      <point x="335" y="166" type="line"/>
      <point x="268" y="0" type="line"/>
      <point x="381" y="0" type="line"/>
      <point x="449" y="166" type="line"/>
      <point x="597" y="166" type="line"/>
      <point x="615" y="269" type="line"/>
      <point x="491" y="269" type="line"/>
      <point x="526" y="356" type="line"/>
    </contour>
    <contour>
      <point x="295" y="356" type="line"/>
      <point x="414" y="356" type="line"/>
      <point x="378" y="269" type="line"/>
      <point x="259" y="269" type="line"/>
    </contour>
  </outline>
</glyph>
<glyph name="dollar" format="1">
  <advance width="522"/>
  <unicode hex="0024"/>
  <outline>
    <contour>
      <point x="507" y="574" type="curve"/>
      <point x="557" y="671" type="line"/>
      <point x="515" y="695"/>
      <point x="458" y="708"/>
      <point x="402" y="708" type="curve" smooth="yes"/>
      <point x="344" y="708"/>
      <point x="286" y="697"/>
      <point x="236" y="667" type="curve" smooth="yes"/>
      <point x="181" y="635"/>
      <point x="154" y="586"/>
      <point x="145" y="537" type="curve" smooth="yes"/>
      <point x="126" y="428"/>
      <point x="207" y="387"/>
      <point x="285" y="346" type="curve" smooth="yes"/>
      <point x="305" y="337"/>
      <point x="326" y="326"/>
      <point x="345" y="313" type="curve" smooth="yes"/>
      <point x="391" y="286"/>
      <point x="425" y="252"/>
      <point x="415" y="198" type="curve" smooth="yes"/>
      <point x="410" y="167"/>
      <point x="390" y="137"/>
      <point x="365" y="121" type="curve" smooth="yes"/>
      <point x="336" y="102"/>
      <point x="300" y="96"/>
      <point x="270" y="96" type="curve" smooth="yes"/>
      <point x="250" y="96"/>
      <point x="215" y="99"/>
      <point x="182" y="122" type="curve" smooth="yes"/>
      <point x="163" y="135"/>
      <point x="147" y="155"/>
      <point x="135" y="183" type="curve"/>
      <point x="40" y="127" type="line"/>
      <point x="61" y="81"/>
      <point x="80" y="55"/>
      <point x="111" y="31" type="curve" smooth="yes"/>
      <point x="151" y="-2"/>
      <point x="203" y="-12"/>
      <point x="249" y="-12" type="curve" smooth="yes"/>
      <point x="308" y="-12"/>
      <point x="370" y="-1"/>
      <point x="422" y="29" type="curve" smooth="yes"/>
      <point x="491" y="69"/>
      <point x="527" y="136"/>
      <point x="539" y="199" type="curve" smooth="yes"/>
      <point x="556" y="297"/>
      <point x="500" y="360"/>
      <point x="433" y="404" type="curve" smooth="yes"/>
      <point x="407" y="422"/>
      <point x="378" y="437"/>
      <point x="353" y="449" type="curve" smooth="yes"/>
      <point x="299" y="475"/>
      <point x="261" y="496"/>
      <point x="267" y="537" type="curve" smooth="yes"/>
      <point x="271" y="559"/>
      <point x="284" y="575"/>
      <point x="301" y="586" type="curve" smooth="yes"/>
      <point x="320" y="598"/>
      <point x="348" y="606"/>
      <point x="382" y="606" type="curve" smooth="yes"/>
      <point x="418" y="606"/>
      <point x="463" y="597"/>
    </contour>
    <contour>
      <point x="470" y="816" type="line"/>
      <point x="360" y="816" type="line"/>
      <point x="196" y="-114" type="line"/>
      <point x="306" y="-114" type="line"/>
    </contour>
  </outline>
</glyph>
<glyph name="percent" format="1">
  <advance width="701"/>
  <unicode hex="0025"/>
  <outline>
    <contour>
      <point x="805" y="698" type="line"/>
      <point x="678" y="698" type="line"/>
      <point x="18" y="0" type="line"/>
      <point x="142" y="0" type="line"/>
    </contour>
    <contour>
      <point x="300" y="713" type="curve" smooth="yes"/>
      <point x="219" y="713"/>
      <point x="143" y="648"/>
      <point x="129" y="568" type="curve" smooth="yes"/>
      <point x="114" y="487"/>
      <point x="168" y="422"/>
      <point x="249" y="422" type="curve" smooth="yes"/>
      <point x="328" y="422"/>
      <point x="405" y="487"/>
      <point x="420" y="568" type="curve" smooth="yes"/>
      <point x="434" y="648"/>
      <point x="379" y="713"/>
    </contour>
    <contour>
      <point x="284" y="620" type="curve" smooth="yes"/>
      <point x="311" y="620"/>
      <point x="332" y="596"/>
      <point x="327" y="568" type="curve" smooth="yes"/>
      <point x="322" y="539"/>
      <point x="292" y="515"/>
      <point x="265" y="515" type="curve" smooth="yes"/>
      <point x="235" y="515"/>
      <point x="217" y="539"/>
      <point x="222" y="568" type="curve" smooth="yes"/>
      <point x="227" y="596"/>
      <point x="254" y="620"/>
    </contour>
    <contour>
      <point x="583" y="277" type="curve" smooth="yes"/>
      <point x="502" y="277"/>
      <point x="426" y="212"/>
      <point x="412" y="131" type="curve" smooth="yes"/>
      <point x="397" y="51"/>
      <point x="451" y="-14"/>
      <point x="532" y="-14" type="curve" smooth="yes"/>
      <point x="612" y="-14"/>
      <point x="688" y="51"/>
      <point x="703" y="131" type="curve" smooth="yes"/>
      <point x="717" y="212"/>
      <point x="663" y="277"/>
    </contour>
    <contour>
      <point x="567" y="184" type="curve" smooth="yes"/>
      <point x="595" y="184"/>
      <point x="614" y="159"/>
      <point x="609" y="131" type="curve" smooth="yes"/>
      <point x="604" y="103"/>
      <point x="576" y="79"/>
      <point x="548" y="79" type="curve" smooth="yes"/>
      <point x="519" y="79"/>
      <point x="501" y="103"/>
      <point x="506" y="131" type="curve" smooth="yes"/>
      <point x="511" y="159"/>
      <point x="538" y="184"/>
    </contour>
  </outline>
</glyph>
<glyph name="ampersand" format="1">
  <advance width="504"/>
  <unicode hex="0026"/>
  <outline>
    <contour>
      <point x="474" y="588" type="curve"/>
      <point x="515" y="700" type="line"/>
      <point x="515" y="700"/>
      <point x="427" y="700"/>
      <point x="347" y="700" type="curve" smooth="yes"/>
      <point x="257" y="700"/>
      <point x="193" y="640"/>
      <point x="178" y="554" type="curve" smooth="yes"/>
      <point x="166" y="486"/>
      <point x="196" y="433"/>
      <point x="241" y="403" type="curve"/>
      <point x="239" y="403"/>
      <point x="222" y="403"/>
      <point x="214" y="403" type="curve" smooth="yes"/>
      <point x="140" y="403"/>
      <point x="82" y="358"/>
      <point x="64" y="256" type="curve"/>
      <point x="64" y="256"/>
      <point x="47" y="161"/>
      <point x="47" y="161" type="curve"/>
      <point x="24" y="34"/>
      <point x="101" y="-2"/>
      <point x="179" y="-2" type="curve" smooth="yes"/>
      <point x="221" y="-2"/>
      <point x="269" y="16"/>
      <point x="310" y="48" type="curve"/>
      <point x="329" y="12"/>
      <point x="368" y="-7"/>
      <point x="429" y="-8" type="curve"/>
      <point x="478" y="80" type="line"/>
      <point x="432" y="80"/>
      <point x="408" y="91"/>
      <point x="415" y="136" type="curve" smooth="yes"/>
      <point x="445" y="306" type="line"/>
      <point x="516" y="306" type="line"/>
      <point x="557" y="403" type="line"/>
      <point x="458" y="403" type="line"/>
      <point x="476" y="506" type="line"/>
      <point x="366" y="506" type="line"/>
      <point x="348" y="403" type="line"/>
      <point x="347" y="403"/>
      <point x="346" y="403"/>
      <point x="346" y="403" type="curve"/>
      <point x="305" y="437"/>
      <point x="276" y="493"/>
      <point x="286" y="549" type="curve" smooth="yes"/>
      <point x="291" y="576"/>
      <point x="311" y="588"/>
      <point x="337" y="588" type="curve" smooth="yes"/>
      <point x="360" y="588"/>
      <point x="474" y="588"/>
    </contour>
    <contour>
      <point x="331" y="310" type="curve"/>
      <point x="306" y="167" type="line"/>
      <point x="291" y="125"/>
      <point x="254" y="98"/>
      <point x="214" y="98" type="curve" smooth="yes"/>
      <point x="171" y="98"/>
      <point x="150" y="127"/>
      <point x="156" y="164" type="curve" smooth="yes"/>
      <point x="157" y="169"/>
      <point x="172" y="255"/>
      <point x="173" y="258" type="curve" smooth="yes"/>
      <point x="180" y="296"/>
      <point x="211" y="310"/>
      <point x="243" y="310" type="curve" smooth="yes"/>
      <point x="260" y="310"/>
      <point x="302" y="310"/>
    </contour>
  </outline>
</glyph>
<glyph name="quotesingle" format="1">
  <advance width="127"/>
  <unicode hex="0027"/>
  <outline>
    <contour>
      <point x="140" y="694" type="curve"/>
      <point x="135" y="587" type="line"/>
      <point x="197" y="587" type="line"/>
      <point x="230" y="694" type="line"/>
      <point x="240" y="751"/>
      <point x="150" y="751"/>
    </contour>
  </outline>
</glyph>
<glyph name="parenleft" format="1">
  <advance width="212"/>
  <unicode hex="0028"/>
  <outline>
    <contour>
      <point x="324" y="729" type="curve"/>
      <point x="284" y="816" type="line"/>
      <point x="184" y="763"/>
      <point x="142" y="684"/>
      <point x="128" y="604" type="curve" smooth="yes"/>
      <point x="38" y="94" type="line" smooth="yes"/>
      <point x="24" y="13"/>
      <point x="33" y="-61"/>
      <point x="121" y="-116" type="curve"/>
      <point x="190" y="-35" type="line"/>
      <point x="190" y="-35"/>
      <point x="131" y="0"/>
      <point x="149" y="103" type="curve" smooth="yes"/>
      <point x="163" y="182"/>
      <point x="188" y="324"/>
      <point x="237" y="606" type="curve" smooth="yes"/>
      <point x="254" y="701"/>
      <point x="324" y="729"/>
    </contour>
  </outline>
</glyph>
<glyph name="asterisk" format="1">
  <advance width="359"/>
  <unicode hex="002A"/>
  <outline>
    <contour>
      <point x="227" y="540" type="line"/>
      <point x="123" y="466" type="line"/>
      <point x="208" y="396" type="line"/>
      <point x="267" y="514" type="line"/>
      <point x="284" y="396" type="line"/>
      <point x="398" y="464" type="line"/>
      <point x="316" y="539" type="line"/>
      <point x="438" y="549" type="line"/>
      <point x="412" y="654" type="line"/>
      <point x="307" y="586" type="line"/>
      <point x="361" y="698" type="line"/>
      <point x="241" y="698" type="line"/>
      <point x="254" y="586" type="line"/>
      <point x="169" y="653" type="line"/>
      <point x="111" y="550" type="line"/>
    </contour>
  </outline>
</glyph>
<glyph name="plus" format="1">
  <advance width="356"/>
  <unicode hex="002B"/>
  <outline>
    <contour>
      <point x="195" y="419" type="line"/>
      <point x="91" y="419" type="line"/>
      <point x="73" y="313" type="line"/>
      <point x="177" y="313" type="line"/>
      <point x="159" y="210" type="line"/>
      <point x="270" y="210" type="line"/>
      <point x="288" y="313" type="line"/>
      <point x="393" y="313" type="line"/>
      <point x="411" y="419" type="line"/>
      <point x="306" y="419" type="line"/>
      <point x="326" y="529" type="line"/>
      <point x="215" y="529" type="line"/>
    </contour>
  </outline>
</glyph>
<glyph name="comma" format="1">
  <advance width="154"/>
  <unicode hex="002C"/>
  <outline>
    <contour>
      <point x="33" y="-66" type="curve"/>
      <point x="54" y="-83" type="line"/>
      <point x="54" y="-83"/>
      <point x="128" y="-41"/>
      <point x="144" y="50" type="curve" smooth="yes"/>
      <point x="150" y="82"/>
      <point x="129" y="109"/>
      <point x="97" y="109" type="curve" smooth="yes"/>
      <point x="64" y="109"/>
      <point x="32" y="82"/>
      <point x="26" y="50" type="curve" smooth="yes"/>
      <point x="21" y="22"/>
      <point x="35" y="-1"/>
      <point x="61" y="-8" type="curve"/>
      <point x="54" y="-28"/>
      <point x="46" y="-48"/>
    </contour>
  </outline>
</glyph>
<glyph name="hyphen" format="1">
  <advance width="362"/>
  <unicode hex="002D"/>
  <outline>
    <contour>
      <point x="412" y="413" type="line"/>
      <point x="93" y="413" type="line"/>
      <point x="74" y="306" type="line"/>
      <point x="393" y="306" type="line"/>
    </contour>
  </outline>
</glyph>
<glyph name="period" format="1">
  <advance width="156"/>
  <unicode hex="002E"/>
  <outline>
    <contour>
      <point x="96" y="103" type="curve" smooth="yes"/>
      <point x="63" y="103"/>
      <point x="32" y="76"/>
      <point x="26" y="43" type="curve" smooth="yes"/>
      <point x="20" y="10"/>
      <point x="42" y="-17"/>
      <point x="75" y="-17" type="curve" smooth="yes"/>
      <point x="108" y="-17"/>
      <point x="140" y="10"/>
      <point x="146" y="43" type="curve" smooth="yes"/>
      <point x="152" y="76"/>
      <point x="129" y="103"/>
    </contour>
  </outline>
</glyph>
<glyph name="one" format="1">
  <advance width="248"/>
  <unicode hex="0031"/>
  <outline>
    <contour>
      <point x="110" y="627" type="curve"/>
      <point x="126" y="531" type="line"/>
      <point x="126" y="531"/>
      <point x="186" y="541"/>
      <point x="212" y="557" type="curve"/>
      <point x="113" y="0" type="line"/>
      <point x="224" y="0" type="line"/>
      <point x="347" y="698" type="line"/>
      <point x="237" y="698" type="line"/>
      <point x="188" y="643"/>
      <point x="110" y="627"/>
    </contour>
  </outline>
</glyph>
<glyph name="two" format="1">
  <advance width="405"/>
  <unicode hex="0032"/>
  <outline>
    <contour>
      <point x="133" y="588" type="curve"/>
      <point x="216" y="541" type="line"/>
      <point x="237" y="580"/>
      <point x="274" y="601"/>
      <point x="311" y="601" type="curve" smooth="yes"/>
      <point x="347" y="599"/>
      <point x="377" y="576"/>
      <point x="369" y="529" type="curve" smooth="yes"/>
      <point x="364" y="501"/>
      <point x="353" y="479"/>
      <point x="307" y="422" type="curve" smooth="yes"/>
      <point x="212" y="317"/>
      <point x="122" y="209"/>
      <point x="31" y="101" type="curve"/>
      <point x="14" y="0" type="line"/>
      <point x="387" y="0" type="line"/>
      <point x="404" y="100" type="line"/>
      <point x="158" y="100" type="line"/>
      <point x="271" y="235"/>
      <point x="330" y="304"/>
      <point x="386" y="372" type="curve" smooth="yes"/>
      <point x="433" y="428"/>
      <point x="467" y="476"/>
      <point x="478" y="538" type="curve" smooth="yes"/>
      <point x="498" y="650"/>
      <point x="421" y="708"/>
      <point x="331" y="708" type="curve" smooth="yes"/>
      <point x="251" y="708"/>
      <point x="174" y="662"/>
    </contour>
  </outline>
</glyph>
<glyph name="three" format="1">
  <advance width="416"/>
  <unicode hex="0033"/>
  <outline>
    <contour>
      <point x="302" y="411" type="curve"/>
      <point x="299" y="413" type="line"/>
      <point x="449" y="588" type="line"/>
      <point x="469" y="698" type="line"/>
      <point x="179" y="698" type="line"/>
      <point x="159" y="588" type="line"/>
      <point x="327" y="588" type="line"/>
      <point x="90" y="306" type="line"/>
      <point x="199" y="306" type="line" smooth="yes"/>
      <point x="241" y="306"/>
      <point x="273" y="297"/>
      <point x="294" y="284" type="curve" smooth="yes"/>
      <point x="322" y="266"/>
      <point x="333" y="239"/>
      <point x="326" y="201" type="curve" smooth="yes"/>
      <point x="320" y="170"/>
      <point x="307" y="144"/>
      <point x="284" y="124" type="curve" smooth="yes"/>
      <point x="263" y="106"/>
      <point x="235" y="95"/>
      <point x="202" y="95" type="curve" smooth="yes"/>
      <point x="158" y="95"/>
      <point x="120" y="122"/>
      <point x="108" y="161" type="curve"/>
      <point x="26" y="82" type="line"/>
      <point x="56" y="24"/>
      <point x="114" y="-12"/>
      <point x="185" y="-12" type="curve" smooth="yes"/>
      <point x="245" y="-12"/>
      <point x="298" y="9"/>
      <point x="346" y="50" type="curve" smooth="yes"/>
      <point x="397" y="91"/>
      <point x="427" y="142"/>
      <point x="437" y="201" type="curve" smooth="yes"/>
      <point x="447" y="256"/>
      <point x="437" y="302"/>
      <point x="409" y="341" type="curve" smooth="yes"/>
      <point x="381" y="378"/>
      <point x="346" y="403"/>
    </contour>
  </outline>
</glyph>
<glyph name="four" format="1">
  <advance width="507"/>
  <unicode hex="0034"/>
  <outline>
    <contour>
      <point x="479" y="306" type="line"/>
      <point x="529" y="306" type="line"/>
      <point x="567" y="413" type="line"/>
      <point x="498" y="413" type="line"/>
      <point x="549" y="698" type="line"/>
      <point x="439" y="698" type="line"/>
      <point x="388" y="413" type="line"/>
      <point x="252" y="413" type="line"/>
      <point x="430" y="698" type="line"/>
      <point x="318" y="698" type="line"/>
      <point x="55" y="306" type="line"/>
      <point x="369" y="306" type="line"/>
      <point x="316" y="0" type="line"/>
      <point x="426" y="0" type="line"/>
    </contour>
  </outline>
</glyph>
<glyph name="five" format="1">
  <advance width="411"/>
  <unicode hex="0035"/>
  <outline>
    <contour>
      <point x="230" y="413" type="curve"/>
      <point x="280" y="588" type="line"/>
      <point x="444" y="588" type="line"/>
      <point x="464" y="698" type="line"/>
      <point x="198" y="698" type="line"/>
      <point x="86" y="310" type="line"/>
      <point x="196" y="310" type="line"/>
      <point x="281" y="306"/>
      <point x="334" y="277"/>
      <point x="321" y="201" type="curve" smooth="yes"/>
      <point x="311" y="142"/>
      <point x="258" y="97"/>
      <point x="200" y="97" type="curve" smooth="yes"/>
      <point x="139" y="97"/>
      <point x="77" y="137"/>
      <point x="77" y="137" type="curve"/>
      <point x="20" y="42" type="line"/>
      <point x="20" y="42"/>
      <point x="95" y="-12"/>
      <point x="182" y="-12" type="curve" smooth="yes"/>
      <point x="323" y="-12"/>
      <point x="415" y="107"/>
      <point x="432" y="199" type="curve" smooth="yes"/>
      <point x="452" y="313"/>
      <point x="398" y="406"/>
      <point x="250" y="411" type="curve" smooth="yes"/>
      <point x="244" y="411"/>
      <point x="237" y="413"/>
    </contour>
  </outline>
</glyph>
<glyph name="six" format="1">
  <advance width="452"/>
  <unicode hex="0036"/>
  <outline>
    <contour>
      <point x="360" y="598" type="curve" smooth="yes"/>
      <point x="399" y="598" type="line"/>
      <point x="417" y="698" type="line"/>
      <point x="383" y="698" type="line" smooth="yes"/>
      <point x="293" y="698"/>
      <point x="219" y="664"/>
      <point x="175" y="615" type="curve" smooth="yes"/>
      <point x="130" y="564"/>
      <point x="106" y="513"/>
      <point x="97" y="460" type="curve" smooth="yes"/>
      <point x="51" y="204" type="line" smooth="yes"/>
      <point x="41" y="144"/>
      <point x="53" y="94"/>
      <point x="87" y="52" type="curve" smooth="yes"/>
      <point x="119" y="11"/>
      <point x="166" y="-10"/>
      <point x="226" y="-10" type="curve" smooth="yes"/>
      <point x="284" y="-10"/>
      <point x="338" y="11"/>
      <point x="387" y="52" type="curve" smooth="yes"/>
      <point x="435" y="94"/>
      <point x="465" y="144"/>
      <point x="475" y="204" type="curve" smooth="yes"/>
      <point x="486" y="262"/>
      <point x="474" y="312"/>
      <point x="440" y="353" type="curve" smooth="yes"/>
      <point x="406" y="394"/>
      <point x="358" y="413"/>
      <point x="300" y="413" type="curve" smooth="yes"/>
      <point x="234" y="413"/>
      <point x="191" y="384"/>
      <point x="191" y="384" type="curve"/>
      <point x="201" y="437" type="line" smooth="yes"/>
      <point x="210" y="488"/>
      <point x="230" y="530"/>
      <point x="260" y="558" type="curve" smooth="yes"/>
      <point x="286" y="584"/>
      <point x="321" y="598"/>
    </contour>
    <contour>
      <point x="281" y="305" type="curve" smooth="yes"/>
      <point x="338" y="305"/>
      <point x="376" y="258"/>
      <point x="366" y="202" type="curve" smooth="yes"/>
      <point x="356" y="145"/>
      <point x="302" y="98"/>
      <point x="245" y="98" type="curve" smooth="yes"/>
      <point x="189" y="98"/>
      <point x="149" y="145"/>
      <point x="159" y="202" type="curve" smooth="yes"/>
      <point x="169" y="258"/>
      <point x="225" y="305"/>
    </contour>
  </outline>
</glyph>
<glyph name="eight" format="1">
  <advance width="453"/>
  <unicode hex="0038"/>
  <outline>
    <contour>
      <point x="351" y="708" type="curve" smooth="yes"/>
      <point x="301" y="708"/>
      <point x="257" y="691"/>
      <point x="218" y="656" type="curve" smooth="yes"/>
      <point x="178" y="621"/>
      <point x="155" y="581"/>
      <point x="146" y="532" type="curve" smooth="yes"/>
      <point x="140" y="498"/>
      <point x="141" y="468"/>
      <point x="153" y="442" type="curve"/>
      <point x="162" y="421"/>
      <point x="176" y="404"/>
      <point x="195" y="389" type="curve"/>
      <point x="166" y="375"/>
      <point x="140" y="356"/>
      <point x="119" y="334" type="curve" smooth="yes"/>
      <point x="83" y="297"/>
      <point x="57" y="251"/>
      <point x="48" y="201" type="curve" smooth="yes"/>
      <point x="38" y="142"/>
      <point x="50" y="91"/>
      <point x="84" y="50" type="curve" smooth="yes"/>
      <point x="118" y="9"/>
      <point x="163" y="-12"/>
      <point x="223" y="-12" type="curve" smooth="yes"/>
      <point x="282" y="-12"/>
      <point x="335" y="9"/>
      <point x="383" y="50" type="curve" smooth="yes"/>
      <point x="433" y="91"/>
      <point x="464" y="142"/>
      <point x="474" y="201" type="curve" smooth="yes"/>
      <point x="484" y="258"/>
      <point x="470" y="311"/>
      <point x="437" y="350" type="curve"/>
      <point x="426" y="365"/>
      <point x="410" y="377"/>
      <point x="394" y="388" type="curve"/>
      <point x="420" y="403"/>
      <point x="440" y="421"/>
      <point x="457" y="442" type="curve" smooth="yes"/>
      <point x="477" y="468"/>
      <point x="490" y="498"/>
      <point x="496" y="532" type="curve" smooth="yes"/>
      <point x="505" y="581"/>
      <point x="494" y="621"/>
      <point x="466" y="656" type="curve" smooth="yes"/>
      <point x="438" y="691"/>
      <point x="399" y="708"/>
    </contour>
    <contour>
      <point x="308" y="466" type="curve" smooth="yes"/>
      <point x="288" y="466"/>
      <point x="270" y="476"/>
      <point x="262" y="490" type="curve" smooth="yes"/>
      <point x="253" y="502"/>
      <point x="250" y="517"/>
      <point x="252" y="533" type="curve" smooth="yes"/>
      <point x="259" y="571"/>
      <point x="294" y="599"/>
      <point x="331" y="599" type="curve" smooth="yes"/>
      <point x="368" y="599"/>
      <point x="393" y="571"/>
      <point x="386" y="533" type="curve" smooth="yes"/>
      <point x="384" y="517"/>
      <point x="373" y="501"/>
      <point x="361" y="490" type="curve" smooth="yes"/>
      <point x="346" y="476"/>
      <point x="327" y="466"/>
    </contour>
    <contour>
      <point x="242" y="96" type="curve" smooth="yes"/>
      <point x="183" y="96"/>
      <point x="146" y="143"/>
      <point x="156" y="201" type="curve" smooth="yes"/>
      <point x="161" y="228"/>
      <point x="176" y="253"/>
      <point x="195" y="272" type="curve" smooth="yes"/>
      <point x="218" y="293"/>
      <point x="249" y="306"/>
      <point x="279" y="306" type="curve" smooth="yes"/>
      <point x="305" y="306"/>
      <point x="326" y="297"/>
      <point x="342" y="282" type="curve" smooth="yes"/>
      <point x="362" y="263"/>
      <point x="371" y="234"/>
      <point x="365" y="201" type="curve" smooth="yes"/>
      <point x="355" y="143"/>
      <point x="300" y="96"/>
    </contour>
  </outline>
</glyph>
<glyph name="colon" format="1">
  <advance width="159"/>
  <unicode hex="003A"/>
  <outline>
    <contour>
      <point x="164" y="143" type="curve" smooth="yes"/>
      <point x="170" y="176"/>
      <point x="146" y="204"/>
      <point x="113" y="204" type="curve" smooth="yes"/>
      <point x="80" y="204"/>
      <point x="51" y="176"/>
      <point x="45" y="143" type="curve" smooth="yes"/>
      <point x="39" y="110"/>
      <point x="59" y="84"/>
      <point x="92" y="84" type="curve" smooth="yes"/>
      <point x="125" y="84"/>
      <point x="158" y="110"/>
    </contour>
    <contour>
      <point x="206" y="385" type="curve" smooth="yes"/>
      <point x="212" y="417"/>
      <point x="189" y="444"/>
      <point x="156" y="444" type="curve" smooth="yes"/>
      <point x="123" y="444"/>
      <point x="93" y="417"/>
      <point x="87" y="385" type="curve" smooth="yes"/>
      <point x="82" y="352"/>
      <point x="102" y="324"/>
      <point x="135" y="324" type="curve" smooth="yes"/>
      <point x="168" y="324"/>
      <point x="201" y="352"/>
    </contour>
  </outline>
</glyph>
<glyph name="semicolon" format="1">
  <advance width="158"/>
  <unicode hex="003B"/>
  <outline>
    <contour>
      <point x="49" y="28" type="curve"/>
      <point x="71" y="11" type="line"/>
      <point x="71" y="11"/>
      <point x="146" y="52"/>
      <point x="162" y="143" type="curve" smooth="yes"/>
      <point x="168" y="176"/>
      <point x="145" y="202"/>
      <point x="113" y="202" type="curve" smooth="yes"/>
      <point x="80" y="202"/>
      <point x="50" y="176"/>
      <point x="44" y="143" type="curve" smooth="yes"/>
      <point x="39" y="116"/>
      <point x="53" y="92"/>
      <point x="78" y="85" type="curve"/>
      <point x="72" y="66"/>
      <point x="62" y="45"/>
    </contour>
    <contour>
      <point x="206" y="385" type="curve" smooth="yes"/>
      <point x="212" y="417"/>
      <point x="189" y="444"/>
      <point x="156" y="444" type="curve" smooth="yes"/>
      <point x="123" y="444"/>
      <point x="93" y="417"/>
      <point x="87" y="385" type="curve" smooth="yes"/>
      <point x="82" y="352"/>
      <point x="102" y="324"/>
      <point x="135" y="324" type="curve" smooth="yes"/>
      <point x="168" y="324"/>
      <point x="201" y="352"/>
    </contour>
  </outline>
</glyph>
<glyph name="less" format="1">
  <advance width="388"/>
  <unicode hex="003C"/>
  <outline>
    <contour>
      <point x="392" y="146" type="line"/>
      <point x="221" y="358" type="line"/>
      <point x="469" y="565" type="line"/>
      <point x="408" y="636" type="line"/>
      <point x="81" y="358" type="line"/>
      <point x="310" y="80" type="line"/>
    </contour>
  </outline>
</glyph>
<glyph name="equal" format="1">
  <advance width="363"/>
  <unicode hex="003D"/>
  <outline>
    <contour>
      <point x="422" y="461" type="line"/>
      <point x="102" y="461" type="line"/>
      <point x="83" y="356" type="line"/>
      <point x="403" y="356" type="line"/>
    </contour>
    <contour>
      <point x="395" y="309" type="line"/>
      <point x="75" y="309" type="line"/>
      <point x="56" y="204" type="line"/>
      <point x="376" y="204" type="line"/>
    </contour>
  </outline>
</glyph>
<glyph name="greater" format="1">
  <advance width="388"/>
  <unicode hex="003E"/>
  <outline>
    <contour>
      <point x="45" y="146" type="line"/>
      <point x="105" y="80" type="line"/>
      <point x="433" y="358" type="line"/>
      <point x="203" y="636" type="line"/>
      <point x="117" y="565" type="line"/>
      <point x="292" y="358" type="line"/>
    </contour>
  </outline>
</glyph>
<glyph name="question" format="1">
  <advance width="404"/>
  <unicode hex="003F"/>
  <outline>
    <contour>
      <point x="109" y="531" type="curve"/>
      <point x="222" y="531" type="line"/>
      <point x="231" y="580"/>
      <point x="268" y="603"/>
      <point x="303" y="603" type="curve" smooth="yes"/>
      <point x="351" y="603"/>
      <point x="374" y="565"/>
      <point x="367" y="525" type="curve" smooth="yes"/>
      <point x="359" y="481"/>
      <point x="318" y="444"/>
      <point x="275" y="400" type="curve" smooth="yes"/>
      <point x="229" y="354"/>
      <point x="181" y="298"/>
      <point x="166" y="212" type="curve" smooth="yes"/>
      <point x="149" y="119" type="line"/>
      <point x="258" y="119" type="line"/>
      <point x="265" y="156"/>
      <point x="270" y="183"/>
      <point x="275" y="210" type="curve" smooth="yes"/>
      <point x="290" y="282"/>
      <point x="308" y="306"/>
      <point x="372" y="365" type="curve" smooth="yes"/>
      <point x="423" y="413"/>
      <point x="466" y="455"/>
      <point x="477" y="521" type="curve" smooth="yes"/>
      <point x="497" y="634"/>
      <point x="423" y="708"/>
      <point x="320" y="708" type="curve" smooth="yes"/>
      <point x="232" y="708"/>
      <point x="130" y="652"/>
    </contour>
    <contour>
      <point x="202" y="103" type="curve" smooth="yes"/>
      <point x="169" y="103"/>
      <point x="137" y="76"/>
      <point x="131" y="43" type="curve" smooth="yes"/>
      <point x="125" y="10"/>
      <point x="148" y="-17"/>
      <point x="181" y="-17" type="curve" smooth="yes"/>
      <point x="214" y="-17"/>
      <point x="244" y="10"/>
      <point x="250" y="43" type="curve" smooth="yes"/>
      <point x="256" y="76"/>
      <point x="235" y="103"/>
    </contour>
  </outline>
</glyph>
<glyph name="at" format="1">
  <advance width="792"/>
  <unicode hex="0040"/>
  <outline>
    <contour>
      <point x="847" y="415" type="curve"/>
      <point x="828" y="484" type="line"/>
      <point x="731" y="466"/>
      <point x="702" y="415"/>
      <point x="690" y="348" type="curve" smooth="yes"/>
      <point x="687" y="332"/>
      <point x="660" y="179"/>
      <point x="657" y="162" type="curve" smooth="yes"/>
      <point x="639" y="57"/>
      <point x="548" y="5"/>
      <point x="384" y="5" type="curve" smooth="yes"/>
      <point x="195" y="5"/>
      <point x="134" y="70"/>
      <point x="161" y="226" type="curve" smooth="yes"/>
      <point x="168" y="261"/>
      <point x="174" y="295"/>
      <point x="180" y="330" type="curve" smooth="yes"/>
      <point x="200" y="443"/>
      <point x="241" y="504"/>
      <point x="388" y="504" type="curve" smooth="yes"/>
      <point x="473" y="504"/>
      <point x="522" y="496"/>
      <point x="513" y="443" type="curve"/>
      <point x="513" y="443"/>
      <point x="412" y="443"/>
      <point x="402" y="443" type="curve" smooth="yes"/>
      <point x="324" y="443"/>
      <point x="258" y="400"/>
      <point x="235" y="285" type="curve"/>
      <point x="226" y="234" type="line" smooth="yes"/>
      <point x="209" y="141"/>
      <point x="233" y="61"/>
      <point x="356" y="61" type="curve" smooth="yes"/>
      <point x="435" y="61"/>
      <point x="556" y="70"/>
      <point x="556" y="70" type="curve"/>
      <point x="572" y="163"/>
      <point x="588" y="253"/>
      <point x="604" y="345" type="curve"/>
      <point x="635" y="345" type="line"/>
      <point x="680" y="443" type="line"/>
      <point x="619" y="443" type="line"/>
      <point x="642" y="576"/>
      <point x="543" y="604"/>
      <point x="402" y="604" type="curve" smooth="yes"/>
      <point x="226" y="604"/>
      <point x="111" y="522"/>
      <point x="75" y="323" type="curve" smooth="yes"/>
      <point x="68" y="280"/>
      <point x="60" y="234"/>
      <point x="51" y="184" type="curve" smooth="yes"/>
      <point x="18" y="-2"/>
      <point x="151" y="-94"/>
      <point x="363" y="-94" type="curve" smooth="yes"/>
      <point x="621" y="-94"/>
      <point x="736" y="38"/>
      <point x="761" y="178" type="curve" smooth="yes"/>
      <point x="789" y="335" type="line" smooth="yes"/>
      <point x="795" y="372"/>
      <point x="802" y="395"/>
    </contour>
    <contour>
      <point x="412" y="345" type="curve" smooth="yes"/>
      <point x="414" y="345"/>
      <point x="469" y="345"/>
      <point x="498" y="345" type="curve"/>
      <point x="465" y="156" type="line"/>
      <point x="437" y="153"/>
      <point x="414" y="153"/>
      <point x="391" y="153" type="curve" smooth="yes"/>
      <point x="345" y="153"/>
      <point x="324" y="167"/>
      <point x="336" y="233" type="curve" smooth="yes"/>
      <point x="344" y="282" type="line" smooth="yes"/>
      <point x="353" y="332"/>
      <point x="390" y="345"/>
    </contour>
  </outline>
</glyph>
<glyph name="A" format="1">
  <advance width="513"/>
  <unicode hex="0041"/>
  <outline>
    <contour>
      <point x="301" y="698" type="line"/>
      <point x="9" y="0" type="line"/>
      <point x="133" y="0" type="line"/>
      <point x="205" y="183" type="line"/>
      <point x="366" y="183" type="line"/>
      <point x="374" y="0" type="line"/>
      <point x="505" y="0" type="line"/>
      <point x="456" y="698" type="line"/>
    </contour>
    <contour>
      <point x="361" y="300" type="line"/>
      <point x="252" y="300" type="line"/>
      <point x="344" y="515" type="line"/>
    </contour>
  </outline>
</glyph>
<glyph name="B" format="1">
  <advance width="470"/>
  <unicode hex="0042"/>
  <outline>
    <contour>
      <point x="349" y="698" type="curve" smooth="yes"/>
      <point x="145" y="698" type="line"/>
      <point x="22" y="0" type="line"/>
      <point x="241" y="0" type="line" smooth="yes"/>
      <point x="317" y="0"/>
      <point x="373" y="25"/>
      <point x="413" y="61" type="curve" smooth="yes"/>
      <point x="458" y="100"/>
      <point x="482" y="154"/>
      <point x="491" y="205" type="curve" smooth="yes"/>
      <point x="507" y="296"/>
      <point x="473" y="354"/>
      <point x="419" y="381" type="curve"/>
      <point x="419" y="382" type="line" smooth="yes"/>
      <point x="419" y="383"/>
      <point x="419" y="383"/>
      <point x="420" y="384" type="curve"/>
      <point x="469" y="414"/>
      <point x="499" y="459"/>
      <point x="510" y="521" type="curve" smooth="yes"/>
      <point x="521" y="579"/>
      <point x="511" y="621"/>
      <point x="479" y="653" type="curve" smooth="yes"/>
      <point x="447" y="684"/>
      <point x="403" y="698"/>
    </contour>
    <contour>
      <point x="252" y="413" type="curve" smooth="yes"/>
      <point x="204" y="413" type="line"/>
      <point x="235" y="588" type="line"/>
      <point x="293" y="588" type="line" smooth="yes"/>
      <point x="361" y="588"/>
      <point x="391" y="568"/>
      <point x="380" y="505" type="curve" smooth="yes"/>
      <point x="374" y="476"/>
      <point x="366" y="455"/>
      <point x="350" y="441" type="curve" smooth="yes"/>
      <point x="329" y="421"/>
      <point x="296" y="413"/>
    </contour>
    <contour>
      <point x="229" y="101" type="curve" smooth="yes"/>
      <point x="149" y="101" type="line"/>
      <point x="186" y="307" type="line"/>
      <point x="256" y="307" type="line" smooth="yes"/>
      <point x="341" y="307"/>
      <point x="377" y="274"/>
      <point x="365" y="207" type="curve" smooth="yes"/>
      <point x="350" y="120"/>
      <point x="277" y="101"/>
    </contour>
  </outline>
</glyph>
<glyph name="C" format="1">
  <advance width="392"/>
  <unicode hex="0043"/>
  <outline>
    <contour>
      <point x="426" y="582" type="curve"/>
      <point x="473" y="675" type="line"/>
      <point x="430" y="698"/>
      <point x="383" y="710"/>
      <point x="335" y="710" type="curve" smooth="yes"/>
      <point x="286" y="710"/>
      <point x="236" y="697"/>
      <point x="196" y="664" type="curve" smooth="yes"/>
      <point x="154" y="632"/>
      <point x="120" y="581"/>
      <point x="106" y="503" type="curve" smooth="yes"/>
      <point x="50" y="183" type="line" smooth="yes"/>
      <point x="37" y="113"/>
      <point x="52" y="64"/>
      <point x="82" y="32" type="curve" smooth="yes"/>
      <point x="112" y="2"/>
      <point x="158" y="-12"/>
      <point x="212" y="-12" type="curve" smooth="yes"/>
      <point x="264" y="-11"/>
      <point x="321" y="1"/>
      <point x="382" y="23" type="curve"/>
      <point x="384" y="127" type="line"/>
      <point x="372" y="127"/>
      <point x="299" y="100"/>
      <point x="238" y="100" type="curve" smooth="yes"/>
      <point x="210" y="100"/>
      <point x="186" y="105"/>
      <point x="173" y="120" type="curve" smooth="yes"/>
      <point x="159" y="133"/>
      <point x="155" y="154"/>
      <point x="160" y="185" type="curve" smooth="yes"/>
      <point x="218" y="512" type="line" smooth="yes"/>
      <point x="223" y="542"/>
      <point x="234" y="563"/>
      <point x="254" y="577" type="curve" smooth="yes"/>
      <point x="273" y="592"/>
      <point x="300" y="599"/>
      <point x="335" y="599" type="curve" smooth="yes"/>
      <point x="365" y="599"/>
      <point x="401" y="592"/>
    </contour>
  </outline>
</glyph>
<glyph name="G" format="1">
  <advance width="446"/>
  <unicode hex="0047"/>
  <outline>
    <contour>
      <point x="422" y="576" type="curve"/>
      <point x="473" y="675" type="line"/>
      <point x="437" y="695"/>
      <point x="396" y="706"/>
      <point x="348" y="708" type="curve" smooth="yes"/>
      <point x="294" y="708"/>
      <point x="258" y="700"/>
      <point x="225" y="683" type="curve"/>
      <point x="161" y="648"/>
      <point x="121" y="587"/>
      <point x="106" y="502" type="curve" smooth="yes"/>
      <point x="51" y="189" type="line" smooth="yes"/>
      <point x="39" y="123"/>
      <point x="49" y="73"/>
      <point x="86" y="40" type="curve" smooth="yes"/>
      <point x="121" y="7"/>
      <point x="167" y="-10"/>
      <point x="227" y="-10" type="curve" smooth="yes"/>
      <point x="252" y="-10"/>
      <point x="283" y="-4"/>
      <point x="320" y="8" type="curve"/>
      <point x="324" y="0" type="line"/>
      <point x="429" y="0" type="line"/>
      <point x="481" y="300" type="line"/>
      <point x="279" y="300" type="line"/>
      <point x="296" y="195" type="line"/>
      <point x="353" y="195" type="line"/>
      <point x="351" y="186" type="line" smooth="yes"/>
      <point x="347" y="159"/>
      <point x="335" y="139"/>
      <point x="321" y="125" type="curve" smooth="yes"/>
      <point x="303" y="109"/>
      <point x="277" y="101"/>
      <point x="245" y="101" type="curve" smooth="yes"/>
      <point x="180" y="101"/>
      <point x="149" y="123"/>
      <point x="160" y="187" type="curve" smooth="yes"/>
      <point x="217" y="510" type="line" smooth="yes"/>
      <point x="224" y="549"/>
      <point x="241" y="571"/>
      <point x="267" y="583" type="curve" smooth="yes"/>
      <point x="286" y="591"/>
      <point x="308" y="594"/>
      <point x="334" y="594" type="curve" smooth="yes"/>
      <point x="362" y="594"/>
      <point x="392" y="587"/>
    </contour>
  </outline>
</glyph>
<glyph name="H" format="1">
  <advance width="475"/>
  <unicode hex="0048"/>
  <outline>
    <contour>
      <point x="255" y="698" type="line"/>
      <point x="145" y="698" type="line"/>
      <point x="22" y="0" type="line"/>
      <point x="132" y="0" type="line"/>
      <point x="186" y="308" type="line"/>
      <point x="397" y="308" type="line"/>
      <point x="343" y="0" type="line"/>
      <point x="452" y="0" type="line"/>
      <point x="575" y="698" type="line"/>
      <point x="466" y="698" type="line"/>
      <point x="415" y="413" type="line"/>
      <point x="204" y="413" type="line"/>
    </contour>
  </outline>
</glyph>
<glyph name="J" format="1">
  <advance width="245"/>
  <unicode hex="004A"/>
  <outline>
    <contour>
      <point x="248" y="139" type="curve" smooth="yes"/>
      <point x="347" y="698" type="line"/>
      <point x="179" y="698" type="line"/>
      <point x="160" y="593" type="line"/>
      <point x="221" y="591" type="line"/>
      <point x="144" y="156" type="line" smooth="yes"/>
      <point x="132" y="90"/>
      <point x="91" y="57"/>
      <point x="21" y="57" type="curve"/>
      <point x="40" y="-37" type="line"/>
      <point x="77" y="-36"/>
      <point x="126" y="-28"/>
      <point x="168" y="3" type="curve" smooth="yes"/>
      <point x="205" y="29"/>
      <point x="236" y="71"/>
    </contour>
  </outline>
</glyph>
<glyph name="K" format="1">
  <advance width="477"/>
  <unicode hex="004B"/>
  <outline>
    <contour>
      <point x="145" y="700" type="line"/>
      <point x="22" y="0" type="line"/>
      <point x="140" y="0" type="line"/>
      <point x="187" y="268" type="line"/>
      <point x="196" y="278" type="line"/>
      <point x="335" y="0" type="line"/>
      <point x="473" y="0" type="line"/>
      <point x="278" y="376" type="line"/>
      <point x="556" y="700" type="line"/>
      <point x="424" y="700" type="line"/>
      <point x="220" y="459" type="line"/>
      <point x="263" y="700" type="line"/>
    </contour>
  </outline>
</glyph>
<glyph name="L" format="1">
  <advance width="394"/>
  <unicode hex="004C"/>
  <outline>
    <contour>
      <point x="400" y="101" type="line"/>
      <point x="149" y="101" type="line"/>
      <point x="255" y="698" type="line"/>
      <point x="145" y="698" type="line"/>
      <point x="22" y="0" type="line"/>
      <point x="383" y="0" type="line"/>
    </contour>
  </outline>
</glyph>
<glyph name="P" format="1">
  <advance width="471"/>
  <unicode hex="0050"/>
  <outline>
    <contour>
      <point x="362" y="698" type="curve" smooth="yes"/>
      <point x="145" y="698" type="line"/>
      <point x="22" y="0" type="line"/>
      <point x="132" y="0" type="line"/>
      <point x="166" y="195" type="line"/>
      <point x="166" y="195"/>
      <point x="268" y="195"/>
      <point x="273" y="195" type="curve" smooth="yes"/>
      <point x="380" y="195"/>
      <point x="498" y="235"/>
      <point x="536" y="451" type="curve" smooth="yes"/>
      <point x="571" y="648"/>
      <point x="467" y="698"/>
    </contour>
    <contour>
      <point x="184" y="300" type="curve"/>
      <point x="235" y="588" type="line"/>
      <point x="301" y="588" type="line" smooth="yes"/>
      <point x="403" y="588"/>
      <point x="447" y="576"/>
      <point x="425" y="451" type="curve" smooth="yes"/>
      <point x="401" y="317"/>
      <point x="353" y="300"/>
      <point x="250" y="300" type="curve" smooth="yes"/>
      <point x="245" y="300"/>
      <point x="184" y="300"/>
    </contour>
  </outline>
</glyph>
<glyph name="Q" format="1">
  <advance width="457"/>
  <unicode hex="0051"/>
  <outline>
    <contour>
      <point x="107" y="506" type="curve" smooth="yes"/>
      <point x="50" y="185" type="line" smooth="yes"/>
      <point x="27" y="56"/>
      <point x="108" y="-11"/>
      <point x="227" y="-11" type="curve" smooth="yes"/>
      <point x="352" y="-11"/>
      <point x="449" y="63"/>
      <point x="470" y="185" type="curve" smooth="yes"/>
      <point x="527" y="505" type="line" smooth="yes"/>
      <point x="550" y="636"/>
      <point x="488" y="715"/>
      <point x="356" y="715" type="curve" smooth="yes"/>
      <point x="224" y="715"/>
      <point x="131" y="642"/>
    </contour>
    <contour>
      <point x="160" y="184" type="curve" smooth="yes"/>
      <point x="210" y="470" type="line" smooth="yes"/>
      <point x="226" y="557"/>
      <point x="263" y="598"/>
      <point x="333" y="598" type="curve" smooth="yes"/>
      <point x="410" y="598"/>
      <point x="425" y="554"/>
      <point x="410" y="469" type="curve" smooth="yes"/>
      <point x="360" y="186" type="line" smooth="yes"/>
      <point x="349" y="123"/>
      <point x="322" y="81"/>
      <point x="242" y="81" type="curve" smooth="yes"/>
      <point x="153" y="81"/>
      <point x="152" y="140"/>
    </contour>
    <contour>
      <point x="293" y="50" type="curve" smooth="yes"/>
      <point x="301" y="94"/>
      <point x="307" y="133"/>
      <point x="315" y="173" type="curve"/>
      <point x="202" y="173" type="line"/>
      <point x="191" y="123"/>
      <point x="185" y="77"/>
      <point x="177" y="31" type="curve" smooth="yes"/>
      <point x="163" y="-50"/>
      <point x="188" y="-117"/>
      <point x="351" y="-117" type="curve"/>
      <point x="382" y="-22" type="line"/>
      <point x="287" y="-22"/>
      <point x="285" y="5"/>
    </contour>
  </outline>
</glyph>
<glyph name="S" format="1">
  <advance width="512"/>
  <unicode hex="0053"/>
  <outline>
    <contour>
      <point x="501" y="574" type="curve"/>
      <point x="551" y="671" type="line"/>
      <point x="509" y="695"/>
      <point x="453" y="708"/>
      <point x="397" y="708" type="curve" smooth="yes"/>
      <point x="339" y="708"/>
      <point x="280" y="697"/>
      <point x="230" y="667" type="curve" smooth="yes"/>
      <point x="176" y="635"/>
      <point x="148" y="586"/>
      <point x="139" y="537" type="curve" smooth="yes"/>
      <point x="120" y="428"/>
      <point x="201" y="387"/>
      <point x="279" y="346" type="curve" smooth="yes"/>
      <point x="300" y="337"/>
      <point x="321" y="326"/>
      <point x="340" y="313" type="curve" smooth="yes"/>
      <point x="385" y="286"/>
      <point x="419" y="252"/>
      <point x="409" y="198" type="curve" smooth="yes"/>
      <point x="404" y="167"/>
      <point x="385" y="137"/>
      <point x="359" y="121" type="curve" smooth="yes"/>
      <point x="330" y="102"/>
      <point x="294" y="96"/>
      <point x="265" y="96" type="curve" smooth="yes"/>
      <point x="245" y="96"/>
      <point x="210" y="99"/>
      <point x="176" y="122" type="curve" smooth="yes"/>
      <point x="157" y="135"/>
      <point x="141" y="155"/>
      <point x="129" y="183" type="curve"/>
      <point x="34" y="127" type="line"/>
      <point x="56" y="81"/>
      <point x="75" y="55"/>
      <point x="105" y="31" type="curve" smooth="yes"/>
      <point x="145" y="-2"/>
      <point x="197" y="-12"/>
      <point x="243" y="-12" type="curve" smooth="yes"/>
      <point x="302" y="-12"/>
      <point x="364" y="-1"/>
      <point x="416" y="29" type="curve" smooth="yes"/>
      <point x="485" y="69"/>
      <point x="521" y="136"/>
      <point x="533" y="199" type="curve" smooth="yes"/>
      <point x="550" y="297"/>
      <point x="494" y="360"/>
      <point x="427" y="404" type="curve" smooth="yes"/>
      <point x="401" y="422"/>
      <point x="373" y="437"/>
      <point x="347" y="449" type="curve" smooth="yes"/>
      <point x="293" y="475"/>
      <point x="255" y="496"/>
      <point x="261" y="537" type="curve" smooth="yes"/>
      <point x="265" y="559"/>
      <point x="278" y="575"/>
      <point x="296" y="586" type="curve" smooth="yes"/>
      <point x="314" y="598"/>
      <point x="343" y="606"/>
      <point x="377" y="606" type="curve" smooth="yes"/>
      <point x="413" y="606"/>
      <point x="457" y="597"/>
    </contour>
  </outline>
</glyph>
<glyph name="V" format="1">
  <advance width="480"/>
  <unicode hex="0056"/>
  <outline>
    <contour>
      <point x="302" y="0" type="line"/>
      <point x="600" y="698" type="line"/>
      <point x="473" y="698" type="line"/>
      <point x="276" y="216" type="line"/>
      <point x="246" y="698" type="line"/>
      <point x="122" y="698" type="line"/>
      <point x="174" y="0" type="line"/>
    </contour>
  </outline>
</glyph>
<glyph name="W" format="1">
  <advance width="705"/>
  <unicode hex="0057"/>
  <outline>
    <contour>
      <point x="251" y="252" type="line"/>
      <point x="247" y="698" type="line"/>
      <point x="126" y="698" type="line"/>
      <point x="137" y="0" type="line"/>
      <point x="265" y="0" type="line"/>
      <point x="414" y="353" type="line"/>
      <point x="441" y="0" type="line"/>
      <point x="565" y="0" type="line"/>
      <point x="823" y="698" type="line"/>
      <point x="696" y="698" type="line"/>
      <point x="542" y="252" type="line"/>
      <point x="515" y="698" type="line"/>
      <point x="436" y="698" type="line"/>
    </contour>
  </outline>
</glyph>
<glyph name="Z" format="1">
  <advance width="520"/>
  <unicode hex="005A"/>
  <outline>
    <contour>
      <point x="132" y="588" type="line"/>
      <point x="461" y="588" type="line"/>
      <point x="32" y="101" type="line"/>
      <point x="15" y="0" type="line"/>
      <point x="503" y="0" type="line"/>
      <point x="521" y="105" type="line"/>
      <point x="171" y="105" type="line"/>
      <point x="600" y="588" type="line"/>
      <point x="620" y="698" type="line"/>
      <point x="152" y="698" type="line"/>
    </contour>
  </outline>
</glyph>
<glyph name="bracketleft" format="1">
  <advance width="201"/>
  <unicode hex="005B"/>
  <outline>
    <contour>
      <point x="327" y="816" type="line"/>
      <point x="166" y="816" type="line"/>
      <point x="2" y="-114" type="line"/>
      <point x="163" y="-114" type="line"/>
      <point x="182" y="-9" type="line"/>
      <point x="133" y="1" type="line"/>
      <point x="256" y="701" type="line"/>
      <point x="309" y="711" type="line"/>
    </contour>
  </outline>
</glyph>
<glyph name="backslash" format="1">
  <advance width="472"/>
  <unicode hex="005C"/>
  <outline>
    <contour>
      <point x="277" y="816" type="line"/>
      <point x="157" y="816" type="line"/>
      <point x="320" y="-114" type="line"/>
      <point x="437" y="-114" type="line"/>
    </contour>
  </outline>
</glyph>
<glyph name="bracketright" format="1">
  <advance width="201"/>
  <unicode hex="005D"/>
  <outline>
    <contour>
      <point x="321" y="816" type="line"/>
      <point x="161" y="816" type="line"/>
      <point x="143" y="711" type="line"/>
      <point x="191" y="701" type="line"/>
      <point x="68" y="1" type="line"/>
      <point x="16" y="-9" type="line"/>
      <point x="-2" y="-114" type="line"/>
      <point x="157" y="-114" type="line"/>
    </contour>
  </outline>
</glyph>
<glyph name="b" format="1">
  <advance width="421"/>
  <unicode hex="0062"/>
  <outline>
    <contour>
      <point x="216" y="482" type="curve"/>
      <point x="255" y="698" type="line"/>
      <point x="145" y="698" type="line"/>
      <point x="22" y="0" type="line"/>
      <point x="80" y="-4"/>
      <point x="138" y="-11"/>
      <point x="196" y="-11" type="curve" smooth="yes"/>
      <point x="310" y="-11"/>
      <point x="404" y="25"/>
      <point x="433" y="155" type="curve" smooth="yes"/>
      <point x="433" y="156"/>
      <point x="469" y="359"/>
      <point x="469" y="359" type="curve"/>
      <point x="487" y="461"/>
      <point x="421" y="508"/>
      <point x="346" y="508" type="curve" smooth="yes"/>
      <point x="301" y="508"/>
      <point x="263" y="501"/>
    </contour>
    <contour>
      <point x="148" y="94" type="curve"/>
      <point x="148" y="94"/>
      <point x="197" y="370"/>
      <point x="197" y="370" type="curve"/>
      <point x="209" y="377"/>
      <point x="249" y="394"/>
      <point x="296" y="394" type="curve" smooth="yes"/>
      <point x="326" y="394"/>
      <point x="363" y="382"/>
      <point x="356" y="345" type="curve" smooth="yes"/>
      <point x="353" y="324"/>
      <point x="330" y="193"/>
      <point x="326" y="174" type="curve" smooth="yes"/>
      <point x="317" y="123"/>
      <point x="299" y="91"/>
      <point x="207" y="91" type="curve" smooth="yes"/>
      <point x="191" y="91"/>
      <point x="148" y="94"/>
    </contour>
  </outline>
</glyph>
<glyph name="c" format="1">
  <advance width="349"/>
  <unicode hex="0063"/>
  <outline>
    <contour>
      <point x="377" y="392" type="curve"/>
      <point x="417" y="477" type="line"/>
      <point x="363" y="503"/>
      <point x="302" y="518"/>
      <point x="240" y="505" type="curve" smooth="yes"/>
      <point x="193" y="495"/>
      <point x="150" y="471"/>
      <point x="116" y="427" type="curve" smooth="yes"/>
      <point x="91" y="395"/>
      <point x="79" y="363"/>
      <point x="69" y="319" type="curve"/>
      <point x="43" y="173" type="line" smooth="yes"/>
      <point x="26" y="75"/>
      <point x="61" y="23"/>
      <point x="125" y="1" type="curve" smooth="yes"/>
      <point x="191" y="-20"/>
      <point x="266" y="-12"/>
      <point x="335" y="5" type="curve"/>
      <point x="331" y="94" type="line"/>
      <point x="331" y="94"/>
      <point x="283" y="84"/>
      <point x="240" y="84" type="curve" smooth="yes"/>
      <point x="178" y="84"/>
      <point x="141" y="113"/>
      <point x="152" y="174" type="curve" smooth="yes"/>
      <point x="180" y="331" type="line" smooth="yes"/>
      <point x="183" y="351"/>
      <point x="192" y="367"/>
      <point x="202" y="380" type="curve" smooth="yes"/>
      <point x="217" y="398"/>
      <point x="240" y="409"/>
      <point x="263" y="413" type="curve"/>
      <point x="304" y="420"/>
      <point x="344" y="408"/>
    </contour>
  </outline>
</glyph>
<glyph name="f" format="1">
  <advance width="241"/>
  <unicode hex="0066"/>
  <outline>
    <contour>
      <point x="318" y="606" type="curve"/>
      <point x="354" y="706" type="line"/>
      <point x="335" y="708"/>
      <point x="311" y="711"/>
      <point x="293" y="711" type="curve" smooth="yes"/>
      <point x="212" y="711"/>
      <point x="137" y="659"/>
      <point x="117" y="548" type="curve" smooth="yes"/>
      <point x="21" y="0" type="line"/>
      <point x="134" y="0" type="line"/>
      <point x="203" y="396" type="line"/>
      <point x="266" y="396" type="line"/>
      <point x="308" y="499" type="line"/>
      <point x="221" y="499" type="line"/>
      <point x="231" y="555"/>
      <point x="232" y="557"/>
      <point x="232" y="558" type="curve" smooth="yes"/>
      <point x="238" y="594"/>
      <point x="254" y="612"/>
      <point x="280" y="612" type="curve" smooth="yes"/>
      <point x="293" y="612"/>
      <point x="308" y="609"/>
    </contour>
  </outline>
</glyph>
<glyph name="g" format="1">
  <advance width="404"/>
  <unicode hex="0067"/>
  <outline>
    <contour>
      <point x="372" y="-64" type="curve" smooth="yes"/>
      <point x="471" y="499" type="line"/>
      <point x="361" y="499" type="line"/>
      <point x="358" y="477" type="line"/>
      <point x="330" y="498"/>
      <point x="298" y="509"/>
      <point x="261" y="509" type="curve" smooth="yes"/>
      <point x="158" y="509"/>
      <point x="92" y="446"/>
      <point x="74" y="345" type="curve" smooth="yes"/>
      <point x="45" y="176" type="line" smooth="yes"/>
      <point x="23" y="53"/>
      <point x="70" y="-12"/>
      <point x="181" y="-12" type="curve" smooth="yes"/>
      <point x="214" y="-12"/>
      <point x="250" y="-3"/>
      <point x="276" y="12" type="curve"/>
      <point x="264" y="-53" type="line" smooth="yes"/>
      <point x="255" y="-106"/>
      <point x="212" y="-124"/>
      <point x="179" y="-124" type="curve"/>
      <point x="190" y="-210" type="line"/>
      <point x="285" y="-210"/>
      <point x="354" y="-169"/>
    </contour>
    <contour>
      <point x="342" y="386" type="curve"/>
      <point x="298" y="139" type="line" smooth="yes"/>
      <point x="294" y="116"/>
      <point x="264" y="92"/>
      <point x="208" y="88" type="curve"/>
      <point x="161" y="88"/>
      <point x="145" y="120"/>
      <point x="152" y="159" type="curve" smooth="yes"/>
      <point x="183" y="337" type="line" smooth="yes"/>
      <point x="193" y="393"/>
      <point x="231" y="410"/>
      <point x="270" y="410" type="curve" smooth="yes"/>
      <point x="304" y="410"/>
      <point x="342" y="386"/>
    </contour>
  </outline>
</glyph>
<glyph name="h" format="1">
  <advance width="409"/>
  <unicode hex="0068"/>
  <outline>
    <contour>
      <point x="214" y="476" type="curve"/>
      <point x="254" y="698" type="line"/>
      <point x="145" y="698" type="line"/>
      <point x="22" y="0" type="line"/>
      <point x="131" y="0" type="line"/>
      <point x="199" y="386" type="line"/>
      <point x="233" y="402"/>
      <point x="260" y="409"/>
      <point x="283" y="409" type="curve" smooth="yes"/>
      <point x="325" y="409"/>
      <point x="350" y="381"/>
      <point x="343" y="343" type="curve" smooth="yes"/>
      <point x="283" y="0" type="line"/>
      <point x="392" y="0" type="line"/>
      <point x="452" y="345" type="line" smooth="yes"/>
      <point x="475" y="473"/>
      <point x="399" y="509"/>
      <point x="320" y="509" type="curve" smooth="yes"/>
      <point x="279" y="509"/>
      <point x="234" y="488"/>
    </contour>
  </outline>
</glyph>
<glyph name="i" format="1">
  <advance width="159"/>
  <unicode hex="0069"/>
  <outline>
    <contour>
      <point x="221" y="499" type="line"/>
      <point x="111" y="499" type="line"/>
      <point x="24" y="0" type="line"/>
      <point x="134" y="0" type="line"/>
    </contour>
    <contour>
      <point x="203" y="708" type="curve" smooth="yes"/>
      <point x="170" y="708"/>
      <point x="140" y="683"/>
      <point x="134" y="650" type="curve" smooth="yes"/>
      <point x="128" y="617"/>
      <point x="150" y="590"/>
      <point x="183" y="590" type="curve" smooth="yes"/>
      <point x="216" y="590"/>
      <point x="247" y="617"/>
      <point x="253" y="650" type="curve" smooth="yes"/>
      <point x="259" y="683"/>
      <point x="236" y="708"/>
    </contour>
  </outline>
</glyph>
<glyph name="j" format="1">
  <advance width="221"/>
  <unicode hex="006A"/>
  <outline>
    <contour>
      <point x="183" y="-61" type="curve" smooth="yes"/>
      <point x="281" y="499" type="line"/>
      <point x="98" y="499" type="line"/>
      <point x="83" y="410" type="line"/>
      <point x="154" y="400" type="line"/>
      <point x="75" y="-50" type="line" smooth="yes"/>
      <point x="70" y="-74"/>
      <point x="58" y="-91"/>
      <point x="45" y="-102" type="curve" smooth="yes"/>
      <point x="29" y="-116"/>
      <point x="13" y="-120"/>
      <point x="-10" y="-125" type="curve"/>
      <point x="4" y="-215" type="line"/>
      <point x="33" y="-215"/>
      <point x="82" y="-202"/>
      <point x="114" y="-177" type="curve" smooth="yes"/>
      <point x="148" y="-151"/>
      <point x="173" y="-116"/>
    </contour>
    <contour>
      <point x="314" y="649" type="curve" smooth="yes"/>
      <point x="320" y="682"/>
      <point x="297" y="708"/>
      <point x="264" y="708" type="curve" smooth="yes"/>
      <point x="231" y="708"/>
      <point x="200" y="682"/>
      <point x="194" y="649" type="curve" smooth="yes"/>
      <point x="188" y="617"/>
      <point x="211" y="590"/>
      <point x="244" y="590" type="curve" smooth="yes"/>
      <point x="277" y="590"/>
      <point x="308" y="617"/>
    </contour>
  </outline>
</glyph>
<glyph name="m" format="1">
  <advance width="681"/>
  <unicode hex="006D"/>
  <outline>
    <contour>
      <point x="613" y="341" type="curve" smooth="yes"/>
      <point x="553" y="0" type="line"/>
      <point x="663" y="0" type="line"/>
      <point x="723" y="344" type="line" smooth="yes"/>
      <point x="746" y="472"/>
      <point x="663" y="507"/>
      <point x="584" y="507" type="curve" smooth="yes"/>
      <point x="550" y="507"/>
      <point x="486" y="488"/>
      <point x="438" y="459" type="curve"/>
      <point x="411" y="495"/>
      <point x="365" y="507"/>
      <point x="318" y="507" type="curve" smooth="yes"/>
      <point x="277" y="507"/>
      <point x="231" y="486"/>
      <point x="213" y="475" type="curve"/>
      <point x="217" y="499" type="line"/>
      <point x="107" y="499" type="line"/>
      <point x="20" y="0" type="line"/>
      <point x="130" y="0" type="line"/>
      <point x="197" y="384" type="line"/>
      <point x="231" y="400"/>
      <point x="258" y="408"/>
      <point x="281" y="408" type="curve" smooth="yes"/>
      <point x="323" y="408"/>
      <point x="353" y="380"/>
      <point x="346" y="341" type="curve" smooth="yes"/>
      <point x="286" y="0" type="line"/>
      <point x="396" y="0" type="line"/>
      <point x="456" y="344" type="line" smooth="yes"/>
      <point x="459" y="359"/>
      <point x="460" y="372"/>
      <point x="460" y="384" type="curve"/>
      <point x="494" y="400"/>
      <point x="528" y="408"/>
      <point x="546" y="408" type="curve" smooth="yes"/>
      <point x="588" y="408"/>
      <point x="620" y="381"/>
    </contour>
  </outline>
</glyph>
<glyph name="n" format="1">
  <advance width="407"/>
  <unicode hex="006E"/>
  <outline>
    <contour>
      <point x="340" y="342" type="curve" smooth="yes"/>
      <point x="279" y="-1" type="line"/>
      <point x="388" y="-1" type="line"/>
      <point x="449" y="345" type="line" smooth="yes"/>
      <point x="472" y="473"/>
      <point x="397" y="508"/>
      <point x="318" y="508" type="curve" smooth="yes"/>
      <point x="277" y="508"/>
      <point x="231" y="487"/>
      <point x="212" y="476" type="curve"/>
      <point x="216" y="499" type="line"/>
      <point x="107" y="499" type="line"/>
      <point x="19" y="-1" type="line"/>
      <point x="128" y="-1" type="line"/>
      <point x="196" y="385" type="line"/>
      <point x="231" y="402"/>
      <point x="258" y="409"/>
      <point x="281" y="409" type="curve" smooth="yes"/>
      <point x="323" y="409"/>
      <point x="347" y="380"/>
    </contour>
  </outline>
</glyph>
<glyph name="o" format="1">
  <advance width="396"/>
  <unicode hex="006F"/>
  <outline>
    <contour>
      <point x="414" y="184" type="curve" smooth="yes"/>
      <point x="437" y="316" type="line" smooth="yes"/>
      <point x="459" y="437"/>
      <point x="405" y="510"/>
      <point x="289" y="510" type="curve" smooth="yes"/>
      <point x="168" y="510"/>
      <point x="91" y="443"/>
      <point x="68" y="316" type="curve" smooth="yes"/>
      <point x="45" y="184" type="line" smooth="yes"/>
      <point x="27" y="82"/>
      <point x="66" y="-10"/>
      <point x="198" y="-10" type="curve" smooth="yes"/>
      <point x="322" y="-10"/>
      <point x="394" y="71"/>
    </contour>
    <contour>
      <point x="325" y="322" type="curve" smooth="yes"/>
      <point x="300" y="176" type="line" smooth="yes"/>
      <point x="292" y="131"/>
      <point x="266" y="98"/>
      <point x="216" y="98" type="curve" smooth="yes"/>
      <point x="163" y="98"/>
      <point x="147" y="135"/>
      <point x="155" y="176" type="curve" smooth="yes"/>
      <point x="180" y="322" type="line" smooth="yes"/>
      <point x="189" y="373"/>
      <point x="221" y="400"/>
      <point x="269" y="400" type="curve" smooth="yes"/>
      <point x="316" y="400"/>
      <point x="334" y="370"/>
    </contour>
  </outline>
</glyph>
<glyph name="p" format="1">
  <advance width="405"/>
  <unicode hex="0070"/>
  <outline>
    <contour>
      <point x="420" y="176" type="curve" smooth="yes"/>
      <point x="449" y="345" type="line" smooth="yes"/>
      <point x="467" y="446"/>
      <point x="422" y="509"/>
      <point x="321" y="509" type="curve" smooth="yes"/>
      <point x="282" y="509"/>
      <point x="229" y="490"/>
      <point x="214" y="477" type="curve"/>
      <point x="217" y="499" type="line"/>
      <point x="107" y="499" type="line"/>
      <point x="-15" y="-199" type="line"/>
      <point x="92" y="-213" type="line"/>
      <point x="132" y="12" type="line"/>
      <point x="152" y="-3"/>
      <point x="184" y="-12"/>
      <point x="217" y="-12" type="curve" smooth="yes"/>
      <point x="328" y="-12"/>
      <point x="398" y="53"/>
    </contour>
    <contour>
      <point x="338" y="337" type="curve" smooth="yes"/>
      <point x="307" y="159" type="line" smooth="yes"/>
      <point x="299" y="116"/>
      <point x="271" y="88"/>
      <point x="230" y="88" type="curve" smooth="yes"/>
      <point x="197" y="88"/>
      <point x="148" y="103"/>
      <point x="154" y="139" type="curve" smooth="yes"/>
      <point x="198" y="386" type="line"/>
      <point x="198" y="386"/>
      <point x="244" y="410"/>
      <point x="278" y="410" type="curve" smooth="yes"/>
      <point x="316" y="410"/>
      <point x="348" y="393"/>
    </contour>
  </outline>
</glyph>
<glyph name="q" format="1">
  <advance width="404"/>
  <unicode hex="0071"/>
  <outline>
    <contour>
      <point x="276" y="13" type="curve"/>
      <point x="239" y="-198" type="line"/>
      <point x="346" y="-212" type="line"/>
      <point x="471" y="499" type="line"/>
      <point x="361" y="499" type="line"/>
      <point x="358" y="477" type="line"/>
      <point x="331" y="498"/>
      <point x="299" y="510"/>
      <point x="263" y="510" type="curve" smooth="yes"/>
      <point x="159" y="510"/>
      <point x="92" y="448"/>
      <point x="74" y="345" type="curve" smooth="yes"/>
      <point x="45" y="176" type="line" smooth="yes"/>
      <point x="23" y="54"/>
      <point x="71" y="-11"/>
      <point x="182" y="-11" type="curve" smooth="yes"/>
      <point x="214" y="-11"/>
      <point x="249" y="-2"/>
    </contour>
    <contour>
      <point x="342" y="387" type="curve"/>
      <point x="298" y="140" type="line" smooth="yes"/>
      <point x="294" y="117"/>
      <point x="264" y="92"/>
      <point x="208" y="89" type="curve"/>
      <point x="159" y="89"/>
      <point x="145" y="122"/>
      <point x="152" y="161" type="curve" smooth="yes"/>
      <point x="183" y="338" type="line" smooth="yes"/>
      <point x="193" y="394"/>
      <point x="233" y="411"/>
      <point x="269" y="411" type="curve" smooth="yes"/>
      <point x="304" y="411"/>
      <point x="342" y="387"/>
    </contour>
  </outline>
</glyph>
<glyph name="r" format="1">
  <advance width="335"/>
  <unicode hex="0072"/>
  <outline>
    <contour>
      <point x="384" y="409" type="curve"/>
      <point x="415" y="499" type="line"/>
      <point x="396" y="507"/>
      <point x="369" y="514"/>
      <point x="339" y="514" type="curve" smooth="yes"/>
      <point x="296" y="514"/>
      <point x="251" y="501"/>
      <point x="214" y="479" type="curve"/>
      <point x="217" y="499" type="line"/>
      <point x="107" y="499" type="line"/>
      <point x="20" y="0" type="line"/>
      <point x="130" y="0" type="line"/>
      <point x="198" y="388" type="line"/>
      <point x="243" y="407"/>
      <point x="288" y="416"/>
      <point x="333" y="416" type="curve" smooth="yes"/>
      <point x="369" y="416"/>
      <point x="384" y="409"/>
    </contour>
  </outline>
</glyph>
<glyph name="s" format="1">
  <advance width="394"/>
  <unicode hex="0073"/>
  <outline>
    <contour>
      <point x="365" y="385" type="curve"/>
      <point x="415" y="476" type="line"/>
      <point x="385" y="499"/>
      <point x="344" y="512"/>
      <point x="303" y="512" type="curve" smooth="yes"/>
      <point x="263" y="512"/>
      <point x="222" y="502"/>
      <point x="187" y="484" type="curve" smooth="yes"/>
      <point x="143" y="460"/>
      <point x="109" y="422"/>
      <point x="100" y="370" type="curve" smooth="yes"/>
      <point x="90" y="312"/>
      <point x="115" y="278"/>
      <point x="146" y="254" type="curve" smooth="yes"/>
      <point x="172" y="237"/>
      <point x="200" y="226"/>
      <point x="224" y="215" type="curve" smooth="yes"/>
      <point x="243" y="206"/>
      <point x="262" y="197"/>
      <point x="275" y="183" type="curve" smooth="yes"/>
      <point x="284" y="172"/>
      <point x="291" y="158"/>
      <point x="288" y="139" type="curve"/>
      <point x="284" y="124"/>
      <point x="274" y="111"/>
      <point x="260" y="102" type="curve" smooth="yes"/>
      <point x="247" y="94"/>
      <point x="227" y="88"/>
      <point x="206" y="88" type="curve" smooth="yes"/>
      <point x="183" y="88"/>
      <point x="162" y="94"/>
      <point x="146" y="102" type="curve" smooth="yes"/>
      <point x="124" y="113"/>
      <point x="108" y="128"/>
      <point x="99" y="137" type="curve"/>
      <point x="23" y="70" type="line"/>
      <point x="34" y="54"/>
      <point x="59" y="28"/>
      <point x="97" y="8" type="curve" smooth="yes"/>
      <point x="121" y="-6"/>
      <point x="155" y="-15"/>
      <point x="195" y="-15" type="curve" smooth="yes"/>
      <point x="241" y="-15"/>
      <point x="286" y="-2"/>
      <point x="322" y="21" type="curve" smooth="yes"/>
      <point x="364" y="50"/>
      <point x="397" y="91"/>
      <point x="406" y="145" type="curve" smooth="yes"/>
      <point x="415" y="197"/>
      <point x="397" y="237"/>
      <point x="370" y="263" type="curve" smooth="yes"/>
      <point x="349" y="285"/>
      <point x="320" y="299"/>
      <point x="296" y="309" type="curve" smooth="yes"/>
      <point x="278" y="316"/>
      <point x="261" y="323"/>
      <point x="247" y="331" type="curve" smooth="yes"/>
      <point x="226" y="342"/>
      <point x="210" y="355"/>
      <point x="213" y="370" type="curve" smooth="yes"/>
      <point x="214" y="378"/>
      <point x="220" y="389"/>
      <point x="238" y="398" type="curve"/>
      <point x="248" y="402"/>
      <point x="262" y="405"/>
      <point x="282" y="405" type="curve" smooth="yes"/>
      <point x="316" y="405"/>
      <point x="345" y="397"/>
    </contour>
  </outline>
</glyph>
<glyph name="t" format="1">
  <advance width="239"/>
  <unicode hex="0074"/>
  <outline>
    <contour>
      <point x="155" y="132" type="curve" smooth="yes"/>
      <point x="202" y="398" type="line"/>
      <point x="274" y="398" type="line"/>
      <point x="314" y="499" type="line"/>
      <point x="219" y="499" type="line"/>
      <point x="255" y="698" type="line"/>
      <point x="143" y="698" type="line"/>
      <point x="43" y="132" type="line" smooth="yes"/>
      <point x="26" y="37"/>
      <point x="69" y="-11"/>
      <point x="169" y="-13" type="curve"/>
      <point x="218" y="75" type="line"/>
      <point x="171" y="75"/>
      <point x="147" y="87"/>
    </contour>
  </outline>
</glyph>
<glyph name="v" format="1">
  <advance width="432"/>
  <unicode hex="0076"/>
  <outline>
    <contour>
      <point x="268" y="0" type="line"/>
      <point x="512" y="499" type="line"/>
      <point x="393" y="499" type="line"/>
      <point x="250" y="195" type="line"/>
      <point x="209" y="499" type="line"/>
      <point x="90" y="499" type="line"/>
      <point x="162" y="0" type="line"/>
    </contour>
  </outline>
</glyph>
<glyph name="w" format="1">
  <advance width="690"/>
  <unicode hex="0077"/>
  <outline>
    <contour>
      <point x="249" y="194" type="line"/>
      <point x="210" y="499" type="line"/>
      <point x="90" y="499" type="line"/>
      <point x="164" y="0" type="line"/>
      <point x="272" y="0" type="line"/>
      <point x="391" y="267" type="line"/>
      <point x="416" y="0" type="line"/>
      <point x="521" y="0" type="line"/>
      <point x="770" y="499" type="line"/>
      <point x="652" y="499" type="line"/>
      <point x="517" y="194" type="line"/>
      <point x="486" y="499" type="line"/>
      <point x="382" y="499" type="line"/>
    </contour>
  </outline>
</glyph>
<glyph name="x" format="1">
  <advance width="475"/>
  <unicode hex="0078"/>
  <outline>
    <contour>
      <point x="100" y="499" type="line"/>
      <point x="212" y="248" type="line"/>
      <point x="13" y="0" type="line"/>
      <point x="151" y="0" type="line"/>
      <point x="262" y="140" type="line"/>
      <point x="326" y="0" type="line"/>
      <point x="457" y="0" type="line"/>
      <point x="349" y="249" type="line"/>
      <point x="551" y="499" type="line"/>
      <point x="415" y="499" type="line"/>
      <point x="301" y="356" type="line"/>
      <point x="240" y="499" type="line"/>
    </contour>
  </outline>
</glyph>
<glyph name="z" format="1">
  <advance width="398"/>
  <unicode hex="007A"/>
  <outline>
    <contour>
      <point x="94" y="397" type="line"/>
      <point x="294" y="397" type="line"/>
      <point x="33" y="105" type="line"/>
      <point x="15" y="0" type="line"/>
      <point x="383" y="0" type="line"/>
      <point x="401" y="105" type="line"/>
      <point x="181" y="105" type="line"/>
      <point x="443" y="400" type="line"/>
      <point x="460" y="499" type="line"/>
      <point x="111" y="499" type="line"/>
    </contour>
  </outline>
</glyph>
<glyph name="braceleft" format="1">
  <advance width="272"/>
  <unicode hex="007B"/>
  <outline>
    <contour>
      <point x="297" y="516" type="curve" smooth="yes"/>
      <point x="317" y="629" type="line" smooth="yes"/>
      <point x="331" y="704"/>
      <point x="359" y="725"/>
      <point x="387" y="739" type="curve"/>
      <point x="351" y="821" type="line"/>
      <point x="346" y="820"/>
      <point x="237" y="790"/>
      <point x="208" y="629" type="curve" smooth="yes"/>
      <point x="188" y="516" type="line" smooth="yes"/>
      <point x="178" y="459"/>
      <point x="163" y="409"/>
      <point x="91" y="360" type="curve" smooth="yes"/>
      <point x="80" y="352" type="line"/>
      <point x="88" y="345" type="line"/>
      <point x="143" y="296"/>
      <point x="141" y="245"/>
      <point x="131" y="189" type="curve" smooth="yes"/>
      <point x="111" y="76" type="line" smooth="yes"/>
      <point x="83" y="-84"/>
      <point x="180" y="-116"/>
      <point x="186" y="-117" type="curve"/>
      <point x="251" y="-34" type="line"/>
      <point x="228" y="-20"/>
      <point x="207" y="1"/>
      <point x="220" y="76" type="curve" smooth="yes"/>
      <point x="240" y="189" type="line" smooth="yes"/>
      <point x="250" y="246"/>
      <point x="255" y="301"/>
      <point x="203" y="352" type="curve"/>
      <point x="273" y="404"/>
      <point x="287" y="459"/>
    </contour>
  </outline>
</glyph>
<glyph name="bar" format="1">
  <advance width="156"/>
  <unicode hex="007C"/>
  <outline>
    <contour>
      <point x="276" y="816" type="line"/>
      <point x="166" y="816" type="line"/>
      <point x="2" y="-114" type="line"/>
      <point x="112" y="-114" type="line"/>
    </contour>
  </outline>
</glyph>
<glyph name="braceright" format="1">
  <advance width="274"/>
  <unicode hex="007D"/>
  <outline>
    <contour>
      <point x="210" y="821" type="curve"/>
      <point x="145" y="739" type="line"/>
      <point x="168" y="725"/>
      <point x="190" y="704"/>
      <point x="176" y="629" type="curve" smooth="yes"/>
      <point x="156" y="516" type="line" smooth="yes"/>
      <point x="146" y="459"/>
      <point x="141" y="404"/>
      <point x="194" y="352" type="curve"/>
      <point x="123" y="301"/>
      <point x="109" y="246"/>
      <point x="99" y="189" type="curve" smooth="yes"/>
      <point x="79" y="76" type="line" smooth="yes"/>
      <point x="66" y="1"/>
      <point x="37" y="-20"/>
      <point x="9" y="-34" type="curve"/>
      <point x="45" y="-117" type="line"/>
      <point x="50" y="-116"/>
      <point x="161" y="-84"/>
      <point x="189" y="76" type="curve" smooth="yes"/>
      <point x="209" y="189" type="line" smooth="yes"/>
      <point x="219" y="245"/>
      <point x="234" y="296"/>
      <point x="305" y="345" type="curve"/>
      <point x="317" y="352" type="line"/>
      <point x="307" y="360" type="line"/>
      <point x="254" y="409"/>
      <point x="256" y="459"/>
      <point x="266" y="516" type="curve" smooth="yes"/>
      <point x="286" y="629" type="line" smooth="yes"/>
      <point x="315" y="790"/>
      <point x="214" y="820"/>
    </contour>
  </outline>
</glyph>
<glyph name="asciitilde" format="1">
  <advance width="353"/>
  <unicode hex="007E"/>
  <outline>
    <contour>
      <point x="386" y="299" type="curve"/>
      <point x="363" y="355" type="line"/>
      <point x="336" y="337"/>
      <point x="314" y="331"/>
      <point x="296" y="331" type="curve" smooth="yes"/>
      <point x="254" y="331"/>
      <point x="222" y="360"/>
      <point x="176" y="360" type="curve" smooth="yes"/>
      <point x="139" y="360"/>
      <point x="105" y="341"/>
      <point x="74" y="319" type="curve"/>
      <point x="97" y="263" type="line"/>
      <point x="124" y="279"/>
      <point x="147" y="286"/>
      <point x="167" y="286" type="curve" smooth="yes"/>
      <point x="208" y="285"/>
      <point x="239" y="257"/>
      <point x="282" y="256" type="curve" smooth="yes"/>
      <point x="322" y="256"/>
      <point x="356" y="276"/>
    </contour>
  </outline>
</glyph>
<glyph name="exclamdown" format="1">
  <advance width="157"/>
  <unicode hex="00A1"/>
  <outline>
    <contour>
      <point x="147" y="68" type="curve" smooth="yes"/>
      <point x="217" y="588" type="line"/>
      <point x="141" y="588" type="line"/>
      <point x="32" y="69" type="line"/>
      <point x="24" y="23"/>
      <point x="38" y="0"/>
      <point x="76" y="0" type="curve" smooth="yes"/>
      <point x="116" y="0"/>
      <point x="140" y="23"/>
    </contour>
    <contour>
      <point x="254" y="664" type="curve" smooth="yes"/>
      <point x="259" y="697"/>
      <point x="238" y="724"/>
      <point x="205" y="724" type="curve" smooth="yes"/>
      <point x="173" y="724"/>
      <point x="141" y="697"/>
      <point x="136" y="664" type="curve" smooth="yes"/>
      <point x="130" y="631"/>
      <point x="152" y="605"/>
      <point x="184" y="605" type="curve" smooth="yes"/>
      <point x="217" y="605"/>
      <point x="248" y="631"/>
    </contour>
  </outline>
</glyph>
<glyph name="cent" format="1">
  <advance width="359"/>
  <unicode hex="00A2"/>
  <outline>
    <contour>
      <point x="382" y="392" type="curve"/>
      <point x="423" y="477" type="line"/>
      <point x="368" y="503"/>
      <point x="308" y="518"/>
      <point x="246" y="505" type="curve" smooth="yes"/>
      <point x="199" y="495"/>
      <point x="156" y="471"/>
      <point x="122" y="427" type="curve" smooth="yes"/>
      <point x="97" y="395"/>
      <point x="85" y="363"/>
      <point x="75" y="319" type="curve"/>
      <point x="49" y="173" type="line" smooth="yes"/>
      <point x="32" y="75"/>
      <point x="67" y="23"/>
      <point x="131" y="1" type="curve" smooth="yes"/>
      <point x="197" y="-20"/>
      <point x="273" y="-12"/>
      <point x="341" y="5" type="curve"/>
      <point x="337" y="94" type="line"/>
      <point x="337" y="94"/>
      <point x="289" y="84"/>
      <point x="245" y="84" type="curve" smooth="yes"/>
      <point x="184" y="84"/>
      <point x="147" y="113"/>
      <point x="158" y="174" type="curve" smooth="yes"/>
      <point x="186" y="331" type="line" smooth="yes"/>
      <point x="189" y="351"/>
      <point x="197" y="367"/>
      <point x="208" y="380" type="curve" smooth="yes"/>
      <point x="223" y="398"/>
      <point x="246" y="409"/>
      <point x="269" y="413" type="curve"/>
      <point x="309" y="420"/>
      <point x="350" y="408"/>
    </contour>
    <contour>
      <point x="395" y="623" type="line"/>
      <point x="289" y="623" type="line"/>
      <point x="160" y="-113" type="line"/>
      <point x="266" y="-113" type="line"/>
    </contour>
  </outline>
</glyph>
<glyph name="sterling" format="1">
  <advance width="399"/>
  <unicode hex="00A3"/>
  <outline>
    <contour>
      <point x="136" y="100" type="curve"/>
      <point x="37" y="100" type="line"/>
      <point x="20" y="0" type="line"/>
      <point x="380" y="0" type="line"/>
      <point x="397" y="100" type="line"/>
      <point x="293" y="100" type="line"/>
      <point x="303" y="108"/>
      <point x="311" y="116"/>
      <point x="320" y="125" type="curve" smooth="yes"/>
      <point x="367" y="182"/>
      <point x="370" y="252"/>
      <point x="358" y="311" type="curve" smooth="yes"/>
      <point x="356" y="321"/>
      <point x="354" y="330"/>
      <point x="349" y="340" type="curve"/>
      <point x="439" y="340" type="line"/>
      <point x="458" y="443" type="line"/>
      <point x="304" y="443" type="line"/>
      <point x="296" y="454"/>
      <point x="288" y="465"/>
      <point x="283" y="476" type="curve"/>
      <point x="264" y="514"/>
      <point x="259" y="548"/>
      <point x="262" y="565" type="curve" smooth="yes"/>
      <point x="267" y="594"/>
      <point x="301" y="603"/>
      <point x="323" y="603" type="curve" smooth="yes"/>
      <point x="362" y="603"/>
      <point x="391" y="594"/>
      <point x="414" y="582" type="curve"/>
      <point x="464" y="672" type="line"/>
      <point x="435" y="695"/>
      <point x="381" y="708"/>
      <point x="346" y="708" type="curve" smooth="yes"/>
      <point x="255" y="708"/>
      <point x="166" y="661"/>
      <point x="145" y="569" type="curve"/>
      <point x="138" y="532"/>
      <point x="145" y="497"/>
      <point x="158" y="463" type="curve" smooth="yes"/>
      <point x="161" y="455"/>
      <point x="164" y="449"/>
      <point x="167" y="443" type="curve"/>
      <point x="98" y="443" type="line"/>
      <point x="79" y="340" type="line"/>
      <point x="215" y="340" type="line"/>
      <point x="217" y="333"/>
      <point x="221" y="328"/>
      <point x="223" y="323" type="curve"/>
      <point x="251" y="263"/>
      <point x="262" y="189"/>
      <point x="205" y="131" type="curve" smooth="yes"/>
      <point x="184" y="112"/>
      <point x="158" y="103"/>
    </contour>
  </outline>
</glyph>
<glyph name="currency" format="1">
  <advance width="469"/>
  <unicode hex="00A4"/>
  <outline>
    <contour>
      <point x="424" y="349" type="curve"/>
      <point x="526" y="435" type="line"/>
      <point x="473" y="498" type="line"/>
      <point x="372" y="411" type="line"/>
      <point x="354" y="422"/>
      <point x="333" y="428"/>
      <point x="309" y="428" type="curve" smooth="yes"/>
      <point x="285" y="428"/>
      <point x="262" y="422"/>
      <point x="240" y="411" type="curve"/>
      <point x="169" y="498" type="line"/>
      <point x="95" y="435" type="line"/>
      <point x="166" y="348" type="line"/>
      <point x="153" y="329"/>
      <point x="142" y="306"/>
      <point x="138" y="283" type="curve" smooth="yes"/>
      <point x="134" y="258"/>
      <point x="136" y="237"/>
      <point x="143" y="217" type="curve"/>
      <point x="42" y="131" type="line"/>
      <point x="93" y="68" type="line"/>
      <point x="195" y="154" type="line"/>
      <point x="213" y="144"/>
      <point x="234" y="137"/>
      <point x="258" y="137" type="curve" smooth="yes"/>
      <point x="281" y="137"/>
      <point x="305" y="143"/>
      <point x="325" y="153" type="curve"/>
      <point x="397" y="68" type="line"/>
      <point x="473" y="131" type="line"/>
      <point x="401" y="217" type="line"/>
      <point x="415" y="237"/>
      <point x="425" y="258"/>
      <point x="429" y="283" type="curve" smooth="yes"/>
      <point x="434" y="307"/>
      <point x="432" y="329"/>
    </contour>
    <contour>
      <point x="274" y="231" type="curve" smooth="yes"/>
      <point x="246" y="231"/>
      <point x="227" y="254"/>
      <point x="232" y="283" type="curve" smooth="yes"/>
      <point x="238" y="312"/>
      <point x="264" y="334"/>
      <point x="292" y="334" type="curve" smooth="yes"/>
      <point x="322" y="334"/>
      <point x="341" y="312"/>
      <point x="335" y="283" type="curve" smooth="yes"/>
      <point x="330" y="254"/>
      <point x="304" y="231"/>
    </contour>
  </outline>
</glyph>
<glyph name="yen" format="1">
  <advance width="504"/>
  <unicode hex="00A5"/>
  <outline>
    <contour>
      <point x="222" y="150" type="line"/>
      <point x="117" y="150" type="line"/>
      <point x="98" y="45" type="line"/>
      <point x="203" y="45" type="line"/>
      <point x="196" y="0" type="line"/>
      <point x="307" y="0" type="line"/>
      <point x="314" y="45" type="line"/>
      <point x="418" y="45" type="line"/>
      <point x="437" y="150" type="line"/>
      <point x="333" y="150" type="line"/>
      <point x="341" y="198" type="line"/>
      <point x="445" y="198" type="line"/>
      <point x="464" y="301" type="line"/>
      <point x="360" y="301" type="line"/>
      <point x="362" y="315" type="line"/>
      <point x="610" y="698" type="line"/>
      <point x="494" y="698" type="line"/>
      <point x="327" y="433" type="line"/>
      <point x="255" y="698" type="line"/>
      <point x="138" y="698" type="line"/>
      <point x="251" y="315" type="line"/>
      <point x="249" y="301" type="line"/>
      <point x="144" y="301" type="line"/>
      <point x="125" y="198" type="line"/>
      <point x="230" y="198" type="line"/>
    </contour>
  </outline>
</glyph>
<glyph name="copyright" format="1">
  <advance width="757"/>
  <unicode hex="00A9"/>
  <outline>
    <contour>
      <point x="769" y="185" type="curve" smooth="yes"/>
      <point x="794" y="326" type="line" smooth="yes"/>
      <point x="826" y="510"/>
      <point x="693" y="602"/>
      <point x="484" y="603" type="curve" smooth="yes"/>
      <point x="274" y="602"/>
      <point x="108" y="510"/>
      <point x="76" y="326" type="curve" smooth="yes"/>
      <point x="51" y="185" type="line" smooth="yes"/>
      <point x="19" y="0"/>
      <point x="151" y="-91"/>
      <point x="361" y="-94" type="curve" smooth="yes"/>
      <point x="570" y="-91"/>
      <point x="737" y="0"/>
    </contour>
    <contour>
      <point x="685" y="289" type="curve" smooth="yes"/>
      <point x="674" y="222" type="line" smooth="yes"/>
      <point x="642" y="44"/>
      <point x="562" y="9"/>
      <point x="379" y="7" type="curve" smooth="yes"/>
      <point x="196" y="9"/>
      <point x="128" y="44"/>
      <point x="160" y="222" type="curve" smooth="yes"/>
      <point x="171" y="289" type="line" smooth="yes"/>
      <point x="203" y="466"/>
      <point x="283" y="501"/>
      <point x="466" y="503" type="curve" smooth="yes"/>
      <point x="649" y="501"/>
      <point x="717" y="466"/>
    </contour>
    <contour>
      <point x="563" y="331" type="curve"/>
      <point x="607" y="421" type="line"/>
      <point x="570" y="441"/>
      <point x="523" y="454"/>
      <point x="474" y="455" type="curve" smooth="yes"/>
      <point x="424" y="455"/>
      <point x="372" y="442"/>
      <point x="330" y="410" type="curve" smooth="yes"/>
      <point x="287" y="378"/>
      <point x="254" y="327"/>
      <point x="240" y="249" type="curve" smooth="yes"/>
      <point x="228" y="180"/>
      <point x="242" y="132"/>
      <point x="273" y="100" type="curve" smooth="yes"/>
      <point x="303" y="70"/>
      <point x="348" y="56"/>
      <point x="403" y="56" type="curve" smooth="yes"/>
      <point x="455" y="56"/>
      <point x="514" y="69"/>
      <point x="574" y="91" type="curve"/>
      <point x="575" y="195" type="line"/>
      <point x="575" y="195"/>
      <point x="486" y="163"/>
      <point x="423" y="163" type="curve" smooth="yes"/>
      <point x="399" y="163"/>
      <point x="377" y="167"/>
      <point x="363" y="182" type="curve" smooth="yes"/>
      <point x="350" y="196"/>
      <point x="346" y="224"/>
      <point x="351" y="255" type="curve" smooth="yes"/>
      <point x="357" y="284"/>
      <point x="370" y="311"/>
      <point x="389" y="327" type="curve" smooth="yes"/>
      <point x="409" y="342"/>
      <point x="435" y="350"/>
      <point x="470" y="350" type="curve" smooth="yes"/>
      <point x="518" y="350"/>
      <point x="563" y="331"/>
    </contour>
  </outline>
</glyph>
<glyph name="ordfeminine" format="1">
  <advance width="291"/>
  <unicode hex="00AA"/>
  <outline>
    <contour>
      <point x="344" y="391" type="curve"/>
      <point x="344" y="389"/>
      <point x="373" y="554"/>
      <point x="373" y="554" type="curve"/>
      <point x="384" y="617"/>
      <point x="381" y="662"/>
      <point x="353" y="687" type="curve" smooth="yes"/>
      <point x="323" y="714"/>
      <point x="271" y="713"/>
      <point x="234" y="708" type="curve"/>
      <point x="214" y="647" type="line"/>
      <point x="231" y="649"/>
      <point x="245" y="650"/>
      <point x="256" y="650" type="curve" smooth="yes"/>
      <point x="302" y="650"/>
      <point x="299" y="634"/>
      <point x="295" y="609" type="curve"/>
      <point x="273" y="624"/>
      <point x="247" y="631"/>
      <point x="223" y="631" type="curve" smooth="yes"/>
      <point x="156" y="630"/>
      <point x="110" y="581"/>
      <point x="98" y="518" type="curve"/>
      <point x="78" y="406"/>
      <point x="133" y="378"/>
      <point x="221" y="378" type="curve" smooth="yes"/>
      <point x="255" y="378"/>
      <point x="299" y="384"/>
    </contour>
    <contour>
      <point x="281" y="533" type="curve"/>
      <point x="269" y="460" type="line"/>
      <point x="259" y="460"/>
      <point x="247" y="458"/>
      <point x="232" y="458" type="curve" smooth="yes"/>
      <point x="203" y="458"/>
      <point x="173" y="466"/>
      <point x="179" y="507" type="curve" smooth="yes"/>
      <point x="183" y="533"/>
      <point x="198" y="555"/>
      <point x="224" y="555" type="curve" smooth="yes"/>
      <point x="245" y="555"/>
      <point x="267" y="543"/>
    </contour>
  </outline>
</glyph>
<glyph name="registered" format="1">
  <advance width="757"/>
  <unicode hex="00AE"/>
  <outline>
    <contour>
      <point x="769" y="185" type="curve" smooth="yes"/>
      <point x="794" y="326" type="line" smooth="yes"/>
      <point x="826" y="510"/>
      <point x="693" y="602"/>
      <point x="483" y="603" type="curve" smooth="yes"/>
      <point x="273" y="602"/>
      <point x="108" y="510"/>
      <point x="76" y="326" type="curve" smooth="yes"/>
      <point x="51" y="185" type="line" smooth="yes"/>
      <point x="19" y="0"/>
      <point x="150" y="-91"/>
      <point x="360" y="-94" type="curve" smooth="yes"/>
      <point x="570" y="-91"/>
      <point x="737" y="0"/>
    </contour>
    <contour>
      <point x="685" y="288" type="curve" smooth="yes"/>
      <point x="674" y="222" type="line" smooth="yes"/>
      <point x="642" y="44"/>
      <point x="561" y="9"/>
      <point x="378" y="7" type="curve" smooth="yes"/>
      <point x="196" y="9"/>
      <point x="128" y="44"/>
      <point x="160" y="222" type="curve" smooth="yes"/>
      <point x="171" y="288" type="line" smooth="yes"/>
      <point x="203" y="466"/>
      <point x="283" y="501"/>
      <point x="465" y="503" type="curve" smooth="yes"/>
      <point x="648" y="501"/>
      <point x="717" y="466"/>
    </contour>
    <contour>
      <point x="296" y="443" type="line"/>
      <point x="228" y="61" type="line"/>
      <point x="338" y="61" type="line"/>
      <point x="350" y="128" type="line"/>
      <point x="424" y="128" type="line"/>
      <point x="443" y="61" type="line"/>
      <point x="569" y="61" type="line"/>
      <point x="532" y="150" type="line"/>
      <point x="571" y="173"/>
      <point x="595" y="216"/>
      <point x="606" y="283" type="curve" smooth="yes"/>
      <point x="627" y="397"/>
      <point x="597" y="443"/>
      <point x="492" y="443" type="curve" smooth="yes"/>
    </contour>
    <contour>
      <point x="447" y="233" type="curve" smooth="yes"/>
      <point x="369" y="233" type="line"/>
      <point x="386" y="333" type="line"/>
      <point x="463" y="333" type="line" smooth="yes"/>
      <point x="485" y="333"/>
      <point x="506" y="330"/>
      <point x="497" y="283" type="curve" smooth="yes"/>
      <point x="489" y="237"/>
      <point x="469" y="233"/>
    </contour>
  </outline>
</glyph>
<glyph name="degree" format="1">
  <advance width="326"/>
  <unicode hex="00B0"/>
  <outline>
    <contour>
      <point x="407" y="564" type="curve" smooth="yes"/>
      <point x="421" y="645"/>
      <point x="368" y="710"/>
      <point x="287" y="710" type="curve" smooth="yes"/>
      <point x="206" y="710"/>
      <point x="129" y="645"/>
      <point x="115" y="564" type="curve" smooth="yes"/>
      <point x="101" y="484"/>
      <point x="154" y="419"/>
      <point x="235" y="419" type="curve" smooth="yes"/>
      <point x="316" y="419"/>
      <point x="393" y="484"/>
    </contour>
    <contour>
      <point x="270" y="617" type="curve" smooth="yes"/>
      <point x="298" y="617"/>
      <point x="319" y="593"/>
      <point x="314" y="564" type="curve" smooth="yes"/>
      <point x="309" y="536"/>
      <point x="280" y="512"/>
      <point x="252" y="512" type="curve" smooth="yes"/>
      <point x="223" y="512"/>
      <point x="204" y="536"/>
      <point x="209" y="564" type="curve" smooth="yes"/>
      <point x="214" y="593"/>
      <point x="241" y="617"/>
    </contour>
  </outline>
</glyph>
<glyph name="plusminus" format="1">
  <advance width="360"/>
  <unicode hex="00B1"/>
  <outline>
    <contour>
      <point x="167" y="246" type="line"/>
      <point x="62" y="246" type="line"/>
      <point x="44" y="146" type="line"/>
      <point x="364" y="146" type="line"/>
      <point x="382" y="246" type="line"/>
      <point x="278" y="246" type="line"/>
      <point x="296" y="349" type="line"/>
      <point x="401" y="349" type="line"/>
      <point x="420" y="454" type="line"/>
      <point x="315" y="454" type="line"/>
      <point x="334" y="564" type="line"/>
      <point x="223" y="564" type="line"/>
      <point x="204" y="454" type="line"/>
      <point x="100" y="454" type="line"/>
      <point x="81" y="349" type="line"/>
      <point x="185" y="349" type="line"/>
    </contour>
  </outline>
</glyph>
<glyph name="mu" format="1">
  <advance width="424"/>
  <unicode hex="00B5"/>
  <outline>
    <contour>
      <point x="407" y="112" type="curve" smooth="yes"/>
      <point x="477" y="509" type="line"/>
      <point x="364" y="496" type="line"/>
      <point x="304" y="158" type="line" smooth="yes"/>
      <point x="298" y="121"/>
      <point x="276" y="92"/>
      <point x="233" y="92" type="curve" smooth="yes"/>
      <point x="213" y="92"/>
      <point x="148" y="110"/>
      <point x="152" y="132" type="curve" smooth="yes"/>
      <point x="216" y="499" type="line"/>
      <point x="107" y="499" type="line"/>
      <point x="-15" y="-201" type="line"/>
      <point x="91" y="-210" type="line"/>
      <point x="134" y="29" type="line"/>
      <point x="157" y="-3"/>
      <point x="186" y="-9"/>
      <point x="210" y="-9" type="curve" smooth="yes"/>
      <point x="229" y="-9"/>
      <point x="291" y="7"/>
      <point x="294" y="25" type="curve"/>
      <point x="294" y="25"/>
      <point x="304" y="5"/>
      <point x="315" y="-1" type="curve"/>
      <point x="415" y="25" type="line"/>
      <point x="415" y="25"/>
      <point x="396" y="48"/>
    </contour>
  </outline>
</glyph>
<glyph name="paragraph" format="1">
  <advance width="643"/>
  <unicode hex="00B6"/>
  <outline>
    <contour>
      <point x="375" y="195" type="line"/>
      <point x="341" y="1" type="line"/>
      <point x="451" y="1" type="line"/>
      <point x="555" y="594" type="line"/>
      <point x="614" y="592" type="line"/>
      <point x="510" y="1" type="line"/>
      <point x="620" y="1" type="line"/>
      <point x="743" y="700" type="line"/>
      <point x="357" y="700" type="line" smooth="yes"/>
      <point x="253" y="700"/>
      <point x="132" y="648"/>
      <point x="97" y="452" type="curve" smooth="yes"/>
      <point x="59" y="237"/>
      <point x="162" y="195"/>
      <point x="268" y="195" type="curve" smooth="yes"/>
    </contour>
    <contour>
      <point x="379" y="590" type="curve" smooth="yes"/>
      <point x="445" y="590" type="line"/>
      <point x="393" y="300" type="line"/>
      <point x="327" y="300" type="line" smooth="yes"/>
      <point x="225" y="300"/>
      <point x="184" y="318"/>
      <point x="207" y="452" type="curve" smooth="yes"/>
      <point x="229" y="577"/>
      <point x="278" y="590"/>
    </contour>
  </outline>
</glyph>
<glyph name="guillemotright" format="1">
  <advance width="516"/>
  <unicode hex="00BB"/>
  <outline>
    <contour>
      <point x="104" y="80" type="line"/>
      <point x="324" y="267" type="line"/>
      <point x="170" y="454" type="line"/>
      <point x="85" y="383" type="line"/>
      <point x="184" y="267" type="line"/>
      <point x="45" y="148" type="line"/>
    </contour>
    <contour>
      <point x="324" y="80" type="line"/>
      <point x="544" y="267" type="line"/>
      <point x="390" y="454" type="line"/>
      <point x="305" y="383" type="line"/>
      <point x="405" y="267" type="line"/>
      <point x="265" y="148" type="line"/>
    </contour>
  </outline>
</glyph>
<glyph name="questiondown" format="1">
  <advance width="405"/>
  <unicode hex="00BF"/>
  <outline>
    <contour>
      <point x="414" y="161" type="curve"/>
      <point x="303" y="161" type="line"/>
      <point x="293" y="116"/>
      <point x="258" y="89"/>
      <point x="216" y="89" type="curve"/>
      <point x="182" y="91"/>
      <point x="149" y="117"/>
      <point x="158" y="167" type="curve" smooth="yes"/>
      <point x="166" y="211"/>
      <point x="207" y="246"/>
      <point x="249" y="290" type="curve" smooth="yes"/>
      <point x="294" y="338"/>
      <point x="344" y="394"/>
      <point x="359" y="480" type="curve" smooth="yes"/>
      <point x="376" y="573" type="line"/>
      <point x="267" y="573" type="line"/>
      <point x="253" y="499"/>
      <point x="252" y="492"/>
      <point x="251" y="483" type="curve"/>
      <point x="235" y="411"/>
      <point x="216" y="386"/>
      <point x="153" y="328" type="curve" smooth="yes"/>
      <point x="102" y="279"/>
      <point x="59" y="237"/>
      <point x="47" y="170" type="curve" smooth="yes"/>
      <point x="27" y="55"/>
      <point x="108" y="-10"/>
      <point x="199" y="-15" type="curve"/>
      <point x="316" y="-15"/>
      <point x="395" y="58"/>
    </contour>
    <contour>
      <point x="344" y="708" type="curve" smooth="yes"/>
      <point x="311" y="708"/>
      <point x="281" y="682"/>
      <point x="275" y="649" type="curve" smooth="yes"/>
      <point x="269" y="616"/>
      <point x="290" y="588"/>
      <point x="323" y="588" type="curve" smooth="yes"/>
      <point x="356" y="588"/>
      <point x="387" y="616"/>
      <point x="393" y="649" type="curve" smooth="yes"/>
      <point x="399" y="682"/>
      <point x="377" y="708"/>
    </contour>
  </outline>
</glyph>
<glyph name="Agrave" format="1">
  <advance width="513"/>
  <unicode hex="00C0"/>
  <outline>
    <contour>
      <point x="301" y="698" type="line"/>
      <point x="9" y="0" type="line"/>
      <point x="133" y="0" type="line"/>
      <point x="205" y="183" type="line"/>
      <point x="366" y="183" type="line"/>
      <point x="374" y="0" type="line"/>
      <point x="505" y="0" type="line"/>
      <point x="456" y="698" type="line"/>
    </contour>
    <contour>
      <point x="361" y="300" type="line"/>
      <point x="252" y="300" type="line"/>
      <point x="344" y="515" type="line"/>
    </contour>
    <contour>
      <point x="318" y="817" type="curve" smooth="yes"/>
      <point x="362" y="741" type="line"/>
      <point x="407" y="741" type="line"/>
      <point x="397" y="858" type="line" smooth="yes"/>
      <point x="394" y="887"/>
      <point x="363" y="904"/>
      <point x="338" y="889" type="curve"/>
      <point x="307" y="875"/>
      <point x="304" y="837"/>
    </contour>
  </outline>
</glyph>
<glyph name="Aacute" format="1">
  <advance width="513"/>
  <unicode hex="00C1"/>
  <outline>
    <contour>
      <point x="301" y="698" type="line"/>
      <point x="9" y="0" type="line"/>
      <point x="133" y="0" type="line"/>
      <point x="205" y="183" type="line"/>
      <point x="366" y="183" type="line"/>
      <point x="374" y="0" type="line"/>
      <point x="505" y="0" type="line"/>
      <point x="456" y="698" type="line"/>
    </contour>
    <contour>
      <point x="361" y="300" type="line"/>
      <point x="252" y="300" type="line"/>
      <point x="344" y="515" type="line"/>
    </contour>
    <contour>
      <point x="407" y="850" type="curve" smooth="yes"/>
      <point x="361" y="743" type="line"/>
      <point x="402" y="743" type="line"/>
      <point x="469" y="813" type="line"/>
      <point x="489" y="833"/>
      <point x="496" y="866"/>
      <point x="474" y="879" type="curve"/>
      <point x="451" y="891"/>
      <point x="420" y="876"/>
    </contour>
  </outline>
</glyph>
<glyph name="Acircumflex" format="1">
  <advance width="513"/>
  <unicode hex="00C2"/>
  <outline>
    <contour>
      <point x="301" y="698" type="line"/>
      <point x="9" y="0" type="line"/>
      <point x="133" y="0" type="line"/>
      <point x="205" y="183" type="line"/>
      <point x="366" y="183" type="line"/>
      <point x="374" y="0" type="line"/>
      <point x="505" y="0" type="line"/>
      <point x="456" y="698" type="line"/>
    </contour>
    <contour>
      <point x="361" y="300" type="line"/>
      <point x="252" y="300" type="line"/>
      <point x="344" y="515" type="line"/>
    </contour>
    <contour>
      <point x="527" y="795" type="line"/>
      <point x="465" y="743" type="line"/>
      <point x="403" y="825" type="line"/>
      <point x="310" y="743" type="line"/>
      <point x="268" y="794" type="line"/>
      <point x="416" y="922" type="line"/>
    </contour>
  </outline>
</glyph>
<glyph name="Atilde" format="1">
  <advance width="513"/>
  <unicode hex="00C3"/>
  <outline>
    <contour>
      <point x="301" y="698" type="line"/>
      <point x="9" y="0" type="line"/>
      <point x="133" y="0" type="line"/>
      <point x="205" y="183" type="line"/>
      <point x="366" y="183" type="line"/>
      <point x="374" y="0" type="line"/>
      <point x="505" y="0" type="line"/>
      <point x="456" y="698" type="line"/>
    </contour>
    <contour>
      <point x="361" y="300" type="line"/>
      <point x="252" y="300" type="line"/>
      <point x="344" y="515" type="line"/>
    </contour>
    <contour>
      <point x="524" y="773" type="curve"/>
      <point x="508" y="833" type="line"/>
      <point x="490" y="821"/>
      <point x="473" y="814"/>
      <point x="455" y="814" type="curve" smooth="yes"/>
      <point x="419" y="814"/>
      <point x="390" y="833"/>
      <point x="356" y="833" type="curve"/>
      <point x="305" y="829"/>
      <point x="281" y="810"/>
      <point x="267" y="799" type="curve"/>
      <point x="284" y="740" type="line"/>
      <point x="294" y="747"/>
      <point x="308" y="758"/>
      <point x="334" y="760" type="curve"/>
      <point x="375" y="760"/>
      <point x="405" y="743"/>
      <point x="441" y="743" type="curve" smooth="yes"/>
      <point x="468" y="744"/>
      <point x="496" y="754"/>
    </contour>
  </outline>
</glyph>
<glyph name="Adieresis" format="1">
  <advance width="513"/>
  <unicode hex="00C4"/>
  <outline>
    <contour>
      <point x="301" y="698" type="line"/>
      <point x="9" y="0" type="line"/>
      <point x="133" y="0" type="line"/>
      <point x="205" y="183" type="line"/>
      <point x="366" y="183" type="line"/>
      <point x="374" y="0" type="line"/>
      <point x="505" y="0" type="line"/>
      <point x="456" y="698" type="line"/>
    </contour>
    <contour>
      <point x="361" y="300" type="line"/>
      <point x="252" y="300" type="line"/>
      <point x="344" y="515" type="line"/>
    </contour>
    <contour>
      <point x="486" y="861" type="curve" smooth="yes"/>
      <point x="453" y="861"/>
      <point x="424" y="835"/>
      <point x="418" y="802" type="curve" smooth="yes"/>
      <point x="412" y="769"/>
      <point x="432" y="741"/>
      <point x="465" y="741" type="curve" smooth="yes"/>
      <point x="499" y="741"/>
      <point x="531" y="769"/>
      <point x="537" y="802" type="curve" smooth="yes"/>
      <point x="543" y="835"/>
      <point x="520" y="861"/>
    </contour>
    <contour>
      <point x="379" y="802" type="curve" smooth="yes"/>
      <point x="385" y="835"/>
      <point x="362" y="861"/>
      <point x="329" y="861" type="curve" smooth="yes"/>
      <point x="296" y="861"/>
      <point x="265" y="835"/>
      <point x="259" y="802" type="curve" smooth="yes"/>
      <point x="253" y="769"/>
      <point x="275" y="741"/>
      <point x="308" y="741" type="curve" smooth="yes"/>
      <point x="341" y="741"/>
      <point x="373" y="769"/>
    </contour>
  </outline>
</glyph>
<glyph name="Aring" format="1">
  <advance width="513"/>
  <unicode hex="00C5"/>
  <outline>
    <contour>
      <point x="301" y="698" type="line"/>
      <point x="9" y="0" type="line"/>
      <point x="133" y="0" type="line"/>
      <point x="205" y="183" type="line"/>
      <point x="366" y="183" type="line"/>
      <point x="374" y="0" type="line"/>
      <point x="505" y="0" type="line"/>
      <point x="456" y="698" type="line"/>
    </contour>
    <contour>
      <point x="361" y="300" type="line"/>
      <point x="252" y="300" type="line"/>
      <point x="344" y="515" type="line"/>
    </contour>
    <contour>
      <point x="372" y="661" type="curve" smooth="yes"/>
      <point x="435" y="661"/>
      <point x="495" y="712"/>
      <point x="506" y="774" type="curve" smooth="yes"/>
      <point x="517" y="838"/>
      <point x="475" y="889"/>
      <point x="412" y="889" type="curve" smooth="yes"/>
      <point x="350" y="889"/>
      <point x="289" y="838"/>
      <point x="278" y="774" type="curve" smooth="yes"/>
      <point x="267" y="712"/>
      <point x="310" y="661"/>
    </contour>
    <contour>
      <point x="424" y="774" type="curve" smooth="yes"/>
      <point x="421" y="758"/>
      <point x="404" y="744"/>
      <point x="387" y="744" type="curve" smooth="yes"/>
      <point x="370" y="744"/>
      <point x="359" y="758"/>
      <point x="362" y="774" type="curve" smooth="yes"/>
      <point x="365" y="792"/>
      <point x="381" y="806"/>
      <point x="398" y="806" type="curve" smooth="yes"/>
      <point x="415" y="806"/>
      <point x="427" y="792"/>
    </contour>
  </outline>
</glyph>
<glyph name="AE" format="1">
  <advance width="723"/>
  <unicode hex="00C6"/>
  <outline>
    <contour>
      <point x="720" y="100" type="line"/>
      <point x="496" y="100" type="line"/>
      <point x="532" y="306" type="line"/>
      <point x="650" y="306" type="line"/>
      <point x="703" y="413" type="line"/>
      <point x="551" y="413" type="line"/>
      <point x="582" y="588" type="line"/>
      <point x="808" y="588" type="line"/>
      <point x="828" y="698" type="line"/>
      <point x="399" y="698" type="line"/>
      <point x="5" y="0" type="line"/>
      <point x="134" y="0" type="line"/>
      <point x="243" y="193" type="line"/>
      <point x="405" y="193" type="line"/>
      <point x="371" y="0" type="line"/>
      <point x="703" y="0" type="line"/>
    </contour>
    <contour>
      <point x="473" y="588" type="line"/>
      <point x="422" y="300" type="line"/>
      <point x="302" y="300" type="line"/>
      <point x="461" y="588" type="line"/>
    </contour>
  </outline>
</glyph>
<glyph name="Ccedilla" format="1">
  <advance width="392"/>
  <unicode hex="00C7"/>
  <outline>
    <contour>
      <point x="426" y="582" type="curve"/>
      <point x="473" y="675" type="line"/>
      <point x="430" y="698"/>
      <point x="383" y="710"/>
      <point x="335" y="710" type="curve" smooth="yes"/>
      <point x="286" y="710"/>
      <point x="236" y="697"/>
      <point x="196" y="664" type="curve" smooth="yes"/>
      <point x="154" y="632"/>
      <point x="120" y="581"/>
      <point x="106" y="503" type="curve" smooth="yes"/>
      <point x="50" y="183" type="line" smooth="yes"/>
      <point x="37" y="113"/>
      <point x="52" y="64"/>
      <point x="82" y="32" type="curve" smooth="yes"/>
      <point x="112" y="2"/>
      <point x="158" y="-12"/>
      <point x="212" y="-12" type="curve" smooth="yes"/>
      <point x="264" y="-11"/>
      <point x="321" y="1"/>
      <point x="382" y="23" type="curve"/>
      <point x="384" y="127" type="line"/>
      <point x="372" y="127"/>
      <point x="299" y="100"/>
      <point x="238" y="100" type="curve" smooth="yes"/>
      <point x="210" y="100"/>
      <point x="186" y="105"/>
      <point x="173" y="120" type="curve" smooth="yes"/>
      <point x="159" y="133"/>
      <point x="155" y="154"/>
      <point x="160" y="185" type="curve" smooth="yes"/>
      <point x="218" y="512" type="line" smooth="yes"/>
      <point x="223" y="542"/>
      <point x="234" y="563"/>
      <point x="254" y="577" type="curve" smooth="yes"/>
      <point x="273" y="592"/>
      <point x="300" y="599"/>
      <point x="335" y="599" type="curve" smooth="yes"/>
      <point x="365" y="599"/>
      <point x="401" y="592"/>
    </contour>
    <contour>
      <point x="238" y="-42" type="curve" smooth="yes"/>
      <point x="235" y="-42"/>
      <point x="230" y="-43"/>
      <point x="212" y="-44" type="curve"/>
      <point x="243" y="-2" type="line"/>
      <point x="177" y="-2" type="line"/>
      <point x="118" y="-77" type="line"/>
      <point x="129" y="-116" type="line"/>
      <point x="170" y="-113"/>
      <point x="200" y="-109"/>
      <point x="220" y="-109" type="curve" smooth="yes"/>
      <point x="245" y="-109"/>
      <point x="253" y="-122"/>
      <point x="250" y="-140" type="curve" smooth="yes"/>
      <point x="247" y="-157"/>
      <point x="233" y="-171"/>
      <point x="204" y="-171" type="curve" smooth="yes"/>
      <point x="162" y="-171"/>
      <point x="107" y="-161"/>
      <point x="106" y="-160" type="curve"/>
      <point x="96" y="-189"/>
      <point x="94" y="-198"/>
      <point x="83" y="-226" type="curve"/>
      <point x="84" y="-226"/>
      <point x="135" y="-237"/>
      <point x="182" y="-237" type="curve" smooth="yes"/>
      <point x="265" y="-237"/>
      <point x="307" y="-195"/>
      <point x="318" y="-135" type="curve" smooth="yes"/>
      <point x="326" y="-88"/>
      <point x="300" y="-42"/>
    </contour>
  </outline>
</glyph>
<glyph name="Egrave" format="1">
  <advance width="374"/>
  <unicode hex="00C8"/>
  <outline>
    <contour>
      <point x="371" y="100" type="line"/>
      <point x="149" y="100" type="line"/>
      <point x="186" y="308" type="line"/>
      <point x="292" y="308" type="line"/>
      <point x="341" y="413" type="line"/>
      <point x="204" y="413" type="line"/>
      <point x="235" y="588" type="line"/>
      <point x="459" y="588" type="line"/>
      <point x="479" y="698" type="line"/>
      <point x="145" y="698" type="line"/>
      <point x="22" y="0" type="line"/>
      <point x="354" y="0" type="line"/>
    </contour>
    <contour>
      <point x="257" y="820" type="curve"/>
      <point x="303" y="744" type="line"/>
      <point x="348" y="744" type="line"/>
      <point x="337" y="860" type="line" smooth="yes"/>
      <point x="334" y="888"/>
      <point x="305" y="905"/>
      <point x="278" y="891" type="curve" smooth="yes"/>
      <point x="246" y="876"/>
      <point x="243" y="839"/>
    </contour>
  </outline>
</glyph>
<glyph name="Eacute" format="1">
  <advance width="374"/>
  <unicode hex="00C9"/>
  <outline>
    <contour>
      <point x="371" y="100" type="line"/>
      <point x="149" y="100" type="line"/>
      <point x="186" y="308" type="line"/>
      <point x="292" y="308" type="line"/>
      <point x="341" y="413" type="line"/>
      <point x="204" y="413" type="line"/>
      <point x="235" y="588" type="line"/>
      <point x="459" y="588" type="line"/>
      <point x="479" y="698" type="line"/>
      <point x="145" y="698" type="line"/>
      <point x="22" y="0" type="line"/>
      <point x="354" y="0" type="line"/>
    </contour>
    <contour>
      <point x="346" y="853" type="curve"/>
      <point x="299" y="744" type="line"/>
      <point x="340" y="744" type="line"/>
      <point x="407" y="815" type="line" smooth="yes"/>
      <point x="430" y="839"/>
      <point x="431" y="865"/>
      <point x="412" y="881" type="curve"/>
      <point x="386" y="889"/>
      <point x="362" y="881"/>
    </contour>
  </outline>
</glyph>
<glyph name="Ecircumflex" format="1">
  <advance width="374"/>
  <unicode hex="00CA"/>
  <outline>
    <contour>
      <point x="371" y="100" type="line"/>
      <point x="149" y="100" type="line"/>
      <point x="186" y="308" type="line"/>
      <point x="292" y="308" type="line"/>
      <point x="341" y="413" type="line"/>
      <point x="204" y="413" type="line"/>
      <point x="235" y="588" type="line"/>
      <point x="459" y="588" type="line"/>
      <point x="479" y="698" type="line"/>
      <point x="145" y="698" type="line"/>
      <point x="22" y="0" type="line"/>
      <point x="354" y="0" type="line"/>
    </contour>
    <contour>
      <point x="336" y="827" type="line"/>
      <point x="397" y="745" type="line"/>
      <point x="459" y="798" type="line"/>
      <point x="353" y="923" type="line"/>
      <point x="199" y="795" type="line"/>
      <point x="242" y="744" type="line"/>
    </contour>
  </outline>
</glyph>
<glyph name="Edieresis" format="1">
  <advance width="374"/>
  <unicode hex="00CB"/>
  <outline>
    <contour>
      <point x="371" y="100" type="line"/>
      <point x="149" y="100" type="line"/>
      <point x="186" y="308" type="line"/>
      <point x="292" y="308" type="line"/>
      <point x="341" y="413" type="line"/>
      <point x="204" y="413" type="line"/>
      <point x="235" y="588" type="line"/>
      <point x="459" y="588" type="line"/>
      <point x="479" y="698" type="line"/>
      <point x="145" y="698" type="line"/>
      <point x="22" y="0" type="line"/>
      <point x="354" y="0" type="line"/>
    </contour>
    <contour>
      <point x="469" y="803" type="curve" smooth="yes"/>
      <point x="475" y="836"/>
      <point x="452" y="862"/>
      <point x="419" y="862" type="curve" smooth="yes"/>
      <point x="386" y="862"/>
      <point x="356" y="836"/>
      <point x="350" y="803" type="curve" smooth="yes"/>
      <point x="344" y="770"/>
      <point x="366" y="744"/>
      <point x="399" y="744" type="curve" smooth="yes"/>
      <point x="432" y="744"/>
      <point x="463" y="770"/>
    </contour>
    <contour>
      <point x="311" y="803" type="curve" smooth="yes"/>
      <point x="317" y="836"/>
      <point x="294" y="862"/>
      <point x="261" y="862" type="curve" smooth="yes"/>
      <point x="228" y="862"/>
      <point x="198" y="836"/>
      <point x="192" y="803" type="curve" smooth="yes"/>
      <point x="186" y="770"/>
      <point x="208" y="744"/>
      <point x="241" y="744" type="curve" smooth="yes"/>
      <point x="274" y="744"/>
      <point x="305" y="770"/>
    </contour>
  </outline>
</glyph>
<glyph name="Igrave" format="1">
  <advance width="222"/>
  <unicode hex="00CC"/>
  <outline>
    <contour>
      <point x="67" y="0" type="line"/>
      <point x="177" y="0" type="line"/>
      <point x="300" y="698" type="line"/>
      <point x="128" y="698" type="line"/>
      <point x="109" y="593" type="line"/>
      <point x="171" y="591" type="line"/>
    </contour>
    <contour>
      <point x="276" y="858" type="curve" smooth="yes"/>
      <point x="225" y="741" type="line"/>
      <point x="269" y="741" type="line"/>
      <point x="342" y="817" type="line" smooth="yes"/>
      <point x="363" y="839"/>
      <point x="371" y="873"/>
      <point x="346" y="889" type="curve"/>
      <point x="321" y="901"/>
      <point x="289" y="886"/>
    </contour>
  </outline>
</glyph>
<glyph name="Iacute" format="1">
  <advance width="222"/>
  <unicode hex="00CD"/>
  <outline>
    <contour>
      <point x="68" y="0" type="line"/>
      <point x="178" y="0" type="line"/>
      <point x="301" y="698" type="line"/>
      <point x="128" y="698" type="line"/>
      <point x="109" y="593" type="line"/>
      <point x="172" y="591" type="line"/>
    </contour>
    <contour>
      <point x="276" y="858" type="curve"/>
      <point x="226" y="741" type="line"/>
      <point x="270" y="741" type="line"/>
      <point x="343" y="817" type="line" smooth="yes"/>
      <point x="364" y="839"/>
      <point x="371" y="875"/>
      <point x="347" y="889" type="curve"/>
      <point x="321" y="901"/>
      <point x="290" y="886"/>
    </contour>
  </outline>
</glyph>
<glyph name="Icircumflex" format="1">
  <advance width="252"/>
  <unicode hex="00CE"/>
  <outline>
    <contour>
      <point x="75" y="0" type="line"/>
      <point x="185" y="0" type="line"/>
      <point x="308" y="698" type="line"/>
      <point x="135" y="698" type="line"/>
      <point x="116" y="593" type="line"/>
      <point x="179" y="591" type="line"/>
    </contour>
    <contour>
      <point x="277" y="822" type="line"/>
      <point x="338" y="740" type="line"/>
      <point x="400" y="793" type="line"/>
      <point x="295" y="919" type="line"/>
      <point x="140" y="791" type="line"/>
      <point x="183" y="740" type="line"/>
    </contour>
  </outline>
</glyph>
<glyph name="Idieresis" format="1">
  <advance width="262"/>
  <unicode hex="00CF"/>
  <outline>
    <contour>
      <point x="98" y="0" type="line"/>
      <point x="208" y="0" type="line"/>
      <point x="331" y="698" type="line"/>
      <point x="158" y="698" type="line"/>
      <point x="139" y="593" type="line"/>
      <point x="202" y="591" type="line"/>
    </contour>
    <contour>
      <point x="356" y="861" type="curve" smooth="yes"/>
      <point x="323" y="861"/>
      <point x="291" y="835"/>
      <point x="285" y="802" type="curve" smooth="yes"/>
      <point x="279" y="769"/>
      <point x="302" y="741"/>
      <point x="335" y="741" type="curve" smooth="yes"/>
      <point x="368" y="741"/>
      <point x="398" y="769"/>
      <point x="404" y="802" type="curve" smooth="yes"/>
      <point x="410" y="835"/>
      <point x="389" y="861"/>
    </contour>
    <contour>
      <point x="196" y="861" type="curve" smooth="yes"/>
      <point x="163" y="861"/>
      <point x="134" y="835"/>
      <point x="128" y="802" type="curve" smooth="yes"/>
      <point x="122" y="769"/>
      <point x="142" y="741"/>
      <point x="175" y="741" type="curve" smooth="yes"/>
      <point x="208" y="741"/>
      <point x="241" y="769"/>
      <point x="247" y="802" type="curve" smooth="yes"/>
      <point x="253" y="835"/>
      <point x="229" y="861"/>
    </contour>
  </outline>
</glyph>
<glyph name="Eth" format="1">
  <advance width="459"/>
  <unicode hex="00D0"/>
  <outline>
    <contour>
      <point x="332" y="700" type="curve" smooth="yes"/>
      <point x="145" y="700" type="line"/>
      <point x="22" y="0" type="line"/>
      <point x="229" y="0" type="line" smooth="yes"/>
      <point x="370" y="0"/>
      <point x="454" y="74"/>
      <point x="477" y="206" type="curve" smooth="yes"/>
      <point x="524" y="473" type="line" smooth="yes"/>
      <point x="548" y="609"/>
      <point x="483" y="700"/>
    </contour>
    <contour>
      <point x="230" y="101" type="curve" smooth="yes"/>
      <point x="149" y="101" type="line"/>
      <point x="186" y="310" type="line"/>
      <point x="287" y="310" type="line"/>
      <point x="333" y="413" type="line"/>
      <point x="204" y="413" type="line"/>
      <point x="235" y="588" type="line"/>
      <point x="322" y="588" type="line" smooth="yes"/>
      <point x="398" y="588"/>
      <point x="428" y="555"/>
      <point x="416" y="483" type="curve" smooth="yes"/>
      <point x="365" y="196" type="line" smooth="yes"/>
      <point x="358" y="156"/>
      <point x="343" y="101"/>
    </contour>
  </outline>
</glyph>
<glyph name="Ntilde" format="1">
  <advance width="536"/>
  <unicode hex="00D1"/>
  <outline>
    <contour>
      <point x="443" y="230" type="line"/>
      <point x="255" y="698" type="line"/>
      <point x="145" y="698" type="line"/>
      <point x="22" y="0" type="line"/>
      <point x="132" y="0" type="line"/>
      <point x="215" y="472" type="line"/>
      <point x="403" y="0" type="line"/>
      <point x="514" y="0" type="line"/>
      <point x="637" y="698" type="line"/>
      <point x="526" y="698" type="line"/>
    </contour>
    <contour>
      <point x="536" y="781" type="curve"/>
      <point x="521" y="840" type="line"/>
      <point x="506" y="829"/>
      <point x="487" y="823"/>
      <point x="471" y="822" type="curve"/>
      <point x="434" y="822"/>
      <point x="406" y="840"/>
      <point x="374" y="840" type="curve" smooth="yes"/>
      <point x="336" y="840"/>
      <point x="307" y="827"/>
      <point x="279" y="806" type="curve"/>
      <point x="297" y="749" type="line"/>
      <point x="307" y="755"/>
      <point x="321" y="766"/>
      <point x="346" y="768" type="curve"/>
      <point x="383" y="768"/>
      <point x="411" y="751"/>
      <point x="445" y="751" type="curve" smooth="yes"/>
      <point x="481" y="751"/>
      <point x="511" y="763"/>
    </contour>
  </outline>
</glyph>
<glyph name="Ograve" format="1">
  <advance width="457"/>
  <unicode hex="00D2"/>
  <outline>
    <contour>
      <point x="107" y="506" type="curve" smooth="yes"/>
      <point x="50" y="185" type="line" smooth="yes"/>
      <point x="27" y="56"/>
      <point x="108" y="-11"/>
      <point x="227" y="-11" type="curve" smooth="yes"/>
      <point x="352" y="-11"/>
      <point x="449" y="63"/>
      <point x="470" y="185" type="curve" smooth="yes"/>
      <point x="527" y="505" type="line" smooth="yes"/>
      <point x="550" y="636"/>
      <point x="488" y="715"/>
      <point x="356" y="715" type="curve" smooth="yes"/>
      <point x="224" y="715"/>
      <point x="131" y="642"/>
    </contour>
    <contour>
      <point x="163" y="204" type="curve" smooth="yes"/>
      <point x="210" y="470" type="line" smooth="yes"/>
      <point x="226" y="557"/>
      <point x="263" y="598"/>
      <point x="333" y="598" type="curve" smooth="yes"/>
      <point x="410" y="598"/>
      <point x="425" y="554"/>
      <point x="410" y="469" type="curve" smooth="yes"/>
      <point x="364" y="206" type="line" smooth="yes"/>
      <point x="353" y="143"/>
      <point x="308" y="101"/>
      <point x="245" y="101" type="curve" smooth="yes"/>
      <point x="178" y="101"/>
      <point x="152" y="140"/>
    </contour>
    <contour>
      <point x="300" y="828" type="curve" smooth="yes"/>
      <point x="347" y="752" type="line"/>
      <point x="390" y="752" type="line"/>
      <point x="381" y="869" type="line"/>
      <point x="375" y="897"/>
      <point x="349" y="913"/>
      <point x="320" y="900" type="curve"/>
      <point x="288" y="883"/>
      <point x="288" y="848"/>
    </contour>
  </outline>
</glyph>
<glyph name="Otilde" format="1">
  <advance width="457"/>
  <unicode hex="00D5"/>
  <outline>
    <contour>
      <point x="107" y="506" type="curve" smooth="yes"/>
      <point x="50" y="185" type="line" smooth="yes"/>
      <point x="27" y="56"/>
      <point x="108" y="-11"/>
      <point x="227" y="-11" type="curve" smooth="yes"/>
      <point x="352" y="-11"/>
      <point x="449" y="63"/>
      <point x="470" y="185" type="curve" smooth="yes"/>
      <point x="527" y="505" type="line" smooth="yes"/>
      <point x="550" y="636"/>
      <point x="488" y="715"/>
      <point x="356" y="715" type="curve" smooth="yes"/>
      <point x="224" y="715"/>
      <point x="131" y="642"/>
    </contour>
    <contour>
      <point x="163" y="204" type="curve" smooth="yes"/>
      <point x="210" y="470" type="line" smooth="yes"/>
      <point x="226" y="557"/>
      <point x="263" y="598"/>
      <point x="333" y="598" type="curve" smooth="yes"/>
      <point x="410" y="598"/>
      <point x="425" y="554"/>
      <point x="410" y="469" type="curve" smooth="yes"/>
      <point x="364" y="206" type="line" smooth="yes"/>
      <point x="353" y="143"/>
      <point x="308" y="101"/>
      <point x="245" y="101" type="curve" smooth="yes"/>
      <point x="178" y="101"/>
      <point x="152" y="140"/>
    </contour>
    <contour>
      <point x="495" y="773" type="curve"/>
      <point x="479" y="833" type="line"/>
      <point x="464" y="822"/>
      <point x="445" y="815"/>
      <point x="430" y="814" type="curve"/>
      <point x="393" y="814"/>
      <point x="365" y="833"/>
      <point x="332" y="833" type="curve" smooth="yes"/>
      <point x="294" y="833"/>
      <point x="266" y="818"/>
      <point x="237" y="799" type="curve"/>
      <point x="255" y="740" type="line"/>
      <point x="265" y="747"/>
      <point x="279" y="758"/>
      <point x="306" y="760" type="curve"/>
      <point x="342" y="760"/>
      <point x="371" y="741"/>
      <point x="406" y="741" type="curve" smooth="yes"/>
      <point x="439" y="741"/>
      <point x="471" y="756"/>
    </contour>
  </outline>
</glyph>
<glyph name="Odieresis" format="1">
  <advance width="457"/>
  <unicode hex="00D6"/>
  <outline>
    <contour>
      <point x="107" y="506" type="curve" smooth="yes"/>
      <point x="50" y="185" type="line" smooth="yes"/>
      <point x="27" y="56"/>
      <point x="108" y="-11"/>
      <point x="227" y="-11" type="curve" smooth="yes"/>
      <point x="352" y="-11"/>
      <point x="449" y="63"/>
      <point x="470" y="185" type="curve" smooth="yes"/>
      <point x="527" y="505" type="line" smooth="yes"/>
      <point x="550" y="636"/>
      <point x="488" y="715"/>
      <point x="356" y="715" type="curve" smooth="yes"/>
      <point x="224" y="715"/>
      <point x="131" y="642"/>
    </contour>
    <contour>
      <point x="163" y="204" type="curve" smooth="yes"/>
      <point x="210" y="470" type="line" smooth="yes"/>
      <point x="226" y="557"/>
      <point x="263" y="598"/>
      <point x="333" y="598" type="curve" smooth="yes"/>
      <point x="410" y="598"/>
      <point x="425" y="554"/>
      <point x="410" y="469" type="curve" smooth="yes"/>
      <point x="364" y="206" type="line" smooth="yes"/>
      <point x="353" y="143"/>
      <point x="308" y="101"/>
      <point x="245" y="101" type="curve" smooth="yes"/>
      <point x="178" y="101"/>
      <point x="152" y="140"/>
    </contour>
    <contour>
      <point x="303" y="871" type="curve" smooth="yes"/>
      <point x="270" y="871"/>
      <point x="237" y="844"/>
      <point x="232" y="811" type="curve" smooth="yes"/>
      <point x="226" y="778"/>
      <point x="249" y="751"/>
      <point x="282" y="751" type="curve" smooth="yes"/>
      <point x="315" y="751"/>
      <point x="346" y="778"/>
      <point x="352" y="811" type="curve" smooth="yes"/>
      <point x="357" y="844"/>
      <point x="336" y="871"/>
    </contour>
    <contour>
      <point x="460" y="871" type="curve" smooth="yes"/>
      <point x="427" y="871"/>
      <point x="396" y="844"/>
      <point x="391" y="811" type="curve" smooth="yes"/>
      <point x="385" y="778"/>
      <point x="406" y="751"/>
      <point x="439" y="751" type="curve" smooth="yes"/>
      <point x="472" y="751"/>
      <point x="504" y="778"/>
      <point x="510" y="811" type="curve" smooth="yes"/>
      <point x="515" y="844"/>
      <point x="493" y="871"/>
    </contour>
  </outline>
</glyph>
<glyph name="multiply" format="1">
  <advance width="352"/>
  <unicode hex="00D7"/>
  <outline>
    <contour>
      <point x="96" y="447" type="line"/>
      <point x="174" y="332" type="line"/>
      <point x="59" y="218" type="line"/>
      <point x="116" y="156" type="line"/>
      <point x="220" y="260" type="line"/>
      <point x="289" y="157" type="line"/>
      <point x="370" y="218" type="line"/>
      <point x="293" y="332" type="line"/>
      <point x="412" y="450" type="line"/>
      <point x="350" y="508" type="line"/>
      <point x="246" y="404" type="line"/>
      <point x="178" y="507" type="line"/>
    </contour>
  </outline>
</glyph>
<glyph name="Oslash" format="1">
  <advance width="471"/>
  <unicode hex="00D8"/>
  <outline>
    <contour>
      <point x="110" y="506" type="curve" smooth="yes"/>
      <point x="53" y="185" type="line" smooth="yes"/>
      <point x="30" y="56"/>
      <point x="111" y="-11"/>
      <point x="230" y="-11" type="curve" smooth="yes"/>
      <point x="354" y="-11"/>
      <point x="452" y="63"/>
      <point x="473" y="185" type="curve" smooth="yes"/>
      <point x="530" y="505" type="line" smooth="yes"/>
      <point x="553" y="636"/>
      <point x="491" y="715"/>
      <point x="359" y="715" type="curve" smooth="yes"/>
      <point x="227" y="715"/>
      <point x="134" y="642"/>
    </contour>
    <contour>
      <point x="166" y="204" type="curve" smooth="yes"/>
      <point x="213" y="470" type="line" smooth="yes"/>
      <point x="229" y="557"/>
      <point x="266" y="598"/>
      <point x="336" y="598" type="curve" smooth="yes"/>
      <point x="413" y="598"/>
      <point x="428" y="554"/>
      <point x="413" y="469" type="curve" smooth="yes"/>
      <point x="367" y="206" type="line" smooth="yes"/>
      <point x="356" y="143"/>
      <point x="311" y="101"/>
      <point x="248" y="101" type="curve" smooth="yes"/>
      <point x="180" y="101"/>
      <point x="155" y="140"/>
    </contour>
    <contour>
      <point x="603" y="816" type="line"/>
      <point x="483" y="816" type="line"/>
      <point x="-4" y="-114" type="line"/>
      <point x="112" y="-114" type="line"/>
    </contour>
  </outline>
</glyph>
<glyph name="Uacute" format="1">
  <advance width="459"/>
  <unicode hex="00DA"/>
  <outline>
    <contour>
      <point x="471" y="185" type="curve" smooth="yes"/>
      <point x="562" y="698" type="line"/>
      <point x="452" y="698" type="line"/>
      <point x="365" y="206" type="line" smooth="yes"/>
      <point x="359" y="172"/>
      <point x="343" y="144"/>
      <point x="321" y="127" type="curve" smooth="yes"/>
      <point x="301" y="110"/>
      <point x="275" y="101"/>
      <point x="246" y="101" type="curve" smooth="yes"/>
      <point x="216" y="101"/>
      <point x="195" y="108"/>
      <point x="182" y="122" type="curve" smooth="yes"/>
      <point x="164" y="140"/>
      <point x="158" y="168"/>
      <point x="164" y="204" type="curve" smooth="yes"/>
      <point x="252" y="698" type="line"/>
      <point x="142" y="698" type="line"/>
      <point x="51" y="185" type="line" smooth="yes"/>
      <point x="39" y="118"/>
      <point x="52" y="68"/>
      <point x="87" y="36" type="curve" smooth="yes"/>
      <point x="123" y="5"/>
      <point x="171" y="-11"/>
      <point x="228" y="-11" type="curve" smooth="yes"/>
      <point x="285" y="-11"/>
      <point x="337" y="5"/>
      <point x="383" y="36" type="curve" smooth="yes"/>
      <point x="429" y="68"/>
      <point x="459" y="118"/>
    </contour>
    <contour>
      <point x="384" y="860" type="curve" smooth="yes"/>
      <point x="335" y="744" type="line"/>
      <point x="379" y="744" type="line"/>
      <point x="450" y="820" type="line"/>
      <point x="472" y="840"/>
      <point x="478" y="877"/>
      <point x="456" y="891" type="curve" smooth="yes"/>
      <point x="431" y="905"/>
      <point x="396" y="886"/>
    </contour>
  </outline>
</glyph>
<glyph name="Yacute" format="1">
  <advance width="479"/>
  <unicode hex="00DD"/>
  <outline>
    <contour>
      <point x="485" y="156" type="curve" smooth="yes"/>
      <point x="581" y="698" type="line"/>
      <point x="471" y="698" type="line"/>
      <point x="419" y="405" type="line" smooth="yes"/>
      <point x="414" y="375"/>
      <point x="396" y="346"/>
      <point x="372" y="328" type="curve" smooth="yes"/>
      <point x="350" y="310"/>
      <point x="323" y="300"/>
      <point x="296" y="300" type="curve" smooth="yes"/>
      <point x="259" y="300"/>
      <point x="231" y="309"/>
      <point x="215" y="327" type="curve" smooth="yes"/>
      <point x="196" y="348"/>
      <point x="191" y="380"/>
      <point x="198" y="422" type="curve" smooth="yes"/>
      <point x="247" y="698" type="line"/>
      <point x="137" y="698" type="line"/>
      <point x="86" y="413" type="line" smooth="yes"/>
      <point x="74" y="345"/>
      <point x="86" y="293"/>
      <point x="121" y="254" type="curve" smooth="yes"/>
      <point x="160" y="210"/>
      <point x="212" y="198"/>
      <point x="271" y="198" type="curve" smooth="yes"/>
      <point x="337" y="201"/>
      <point x="389" y="237"/>
      <point x="389" y="237" type="curve"/>
      <point x="376" y="164" type="line" smooth="yes"/>
      <point x="364" y="94"/>
      <point x="329" y="70"/>
      <point x="284" y="65" type="curve"/>
      <point x="304" y="-19" type="line"/>
      <point x="415" y="-8"/>
      <point x="466" y="51"/>
    </contour>
    <contour>
      <point x="390" y="859" type="curve"/>
      <point x="340" y="743" type="line"/>
      <point x="384" y="743" type="line"/>
      <point x="456" y="817" type="line" smooth="yes"/>
      <point x="478" y="839"/>
      <point x="484" y="873"/>
      <point x="461" y="889" type="curve" smooth="yes"/>
      <point x="438" y="904"/>
      <point x="403" y="884"/>
    </contour>
  </outline>
</glyph>
<glyph name="Thorn" format="1">
  <advance width="429"/>
  <unicode hex="00DE"/>
  <outline>
    <contour>
      <point x="466" y="290" type="curve" smooth="yes"/>
      <point x="491" y="435" type="line" smooth="yes"/>
      <point x="497" y="479"/>
      <point x="495" y="510"/>
      <point x="482" y="543" type="curve" smooth="yes"/>
      <point x="457" y="601"/>
      <point x="401" y="626"/>
      <point x="340" y="626" type="curve" smooth="yes"/>
      <point x="307" y="626"/>
      <point x="273" y="619"/>
      <point x="239" y="608" type="curve"/>
      <point x="255" y="698" type="line"/>
      <point x="145" y="698" type="line"/>
      <point x="22" y="0" type="line"/>
      <point x="132" y="0" type="line"/>
      <point x="151" y="113" type="line"/>
      <point x="207" y="102"/>
      <point x="267" y="100"/>
      <point x="322" y="118" type="curve" smooth="yes"/>
      <point x="396" y="140"/>
      <point x="449" y="193"/>
    </contour>
    <contour>
      <point x="311" y="532" type="curve" smooth="yes"/>
      <point x="339" y="532"/>
      <point x="369" y="520"/>
      <point x="380" y="497" type="curve" smooth="yes"/>
      <point x="386" y="484"/>
      <point x="388" y="468"/>
      <point x="384" y="448" type="curve" smooth="yes"/>
      <point x="358" y="290" type="line" smooth="yes"/>
      <point x="350" y="249"/>
      <point x="332" y="220"/>
      <point x="290" y="208" type="curve" smooth="yes"/>
      <point x="253" y="196"/>
      <point x="203" y="197"/>
      <point x="168" y="206" type="curve"/>
      <point x="222" y="514" type="line"/>
      <point x="249" y="524"/>
      <point x="284" y="532"/>
    </contour>
  </outline>
</glyph>
<glyph name="germandbls" format="1">
  <advance width="480"/>
  <unicode hex="00DF"/>
  <outline>
    <contour>
      <point x="131" y="0" type="curve"/>
      <point x="220" y="505" type="line" smooth="yes"/>
      <point x="230" y="565"/>
      <point x="255" y="595"/>
      <point x="295" y="595" type="curve" smooth="yes"/>
      <point x="324" y="595"/>
      <point x="335" y="576"/>
      <point x="331" y="555" type="curve" smooth="yes"/>
      <point x="327" y="532"/>
      <point x="305" y="506"/>
      <point x="272" y="506" type="curve"/>
      <point x="252" y="482"/>
      <point x="243" y="460"/>
      <point x="239" y="439" type="curve" smooth="yes"/>
      <point x="225" y="358"/>
      <point x="304" y="298"/>
      <point x="348" y="243" type="curve" smooth="yes"/>
      <point x="374" y="209"/>
      <point x="383" y="178"/>
      <point x="378" y="152" type="curve" smooth="yes"/>
      <point x="372" y="116"/>
      <point x="339" y="94"/>
      <point x="307" y="94" type="curve" smooth="yes"/>
      <point x="281" y="94"/>
      <point x="251" y="107"/>
      <point x="224" y="137" type="curve"/>
      <point x="202" y="103"/>
      <point x="180" y="71"/>
      <point x="158" y="37" type="curve"/>
      <point x="190" y="7"/>
      <point x="236" y="-12"/>
      <point x="291" y="-12" type="curve" smooth="yes"/>
      <point x="388" y="-12"/>
      <point x="477" y="53"/>
      <point x="494" y="148" type="curve" smooth="yes"/>
      <point x="504" y="205"/>
      <point x="488" y="251"/>
      <point x="460" y="288" type="curve" smooth="yes"/>
      <point x="420" y="345"/>
      <point x="344" y="393"/>
      <point x="353" y="444" type="curve" smooth="yes"/>
      <point x="355" y="455"/>
      <point x="360" y="465"/>
      <point x="369" y="476" type="curve"/>
      <point x="370" y="476"/>
      <point x="389" y="476"/>
      <point x="389" y="476" type="curve"/>
      <point x="433" y="515"/>
      <point x="449" y="568"/>
      <point x="442" y="610" type="curve" smooth="yes"/>
      <point x="433" y="667"/>
      <point x="373" y="700"/>
      <point x="305" y="700" type="curve" smooth="yes"/>
      <point x="224" y="698"/>
      <point x="135" y="651"/>
      <point x="115" y="536" type="curve" smooth="yes"/>
      <point x="84" y="358"/>
      <point x="52" y="178"/>
      <point x="21" y="0" type="curve"/>
      <point x="57" y="0"/>
      <point x="95" y="0"/>
    </contour>
  </outline>
</glyph>
<glyph name="agrave" format="1">
  <advance width="414"/>
  <unicode hex="00E0"/>
  <outline>
    <contour>
      <point x="345" y="334" type="curve"/>
      <point x="322" y="378"/>
      <point x="264" y="400"/>
      <point x="217" y="400" type="curve" smooth="yes"/>
      <point x="144" y="400"/>
      <point x="74" y="354"/>
      <point x="56" y="252" type="curve"/>
      <point x="56" y="252"/>
      <point x="39" y="155"/>
      <point x="39" y="155" type="curve"/>
      <point x="22" y="28"/>
      <point x="103" y="-11"/>
      <point x="215" y="-11" type="curve" smooth="yes"/>
      <point x="282" y="-11"/>
      <point x="340" y="-8"/>
      <point x="397" y="0" type="curve"/>
      <point x="397" y="0"/>
      <point x="431" y="194"/>
      <point x="450" y="306" type="curve" smooth="yes"/>
      <point x="467" y="398"/>
      <point x="451" y="442"/>
      <point x="431" y="464" type="curve" smooth="yes"/>
      <point x="394" y="504"/>
      <point x="331" y="508"/>
      <point x="278" y="508" type="curve"/>
      <point x="256" y="433" type="line"/>
      <point x="298" y="433"/>
      <point x="325" y="422"/>
      <point x="340" y="406" type="curve" smooth="yes"/>
      <point x="351" y="395"/>
      <point x="353" y="377"/>
    </contour>
    <contour>
      <point x="331" y="252" type="curve"/>
      <point x="331" y="252"/>
      <point x="303" y="94"/>
      <point x="303" y="94" type="curve"/>
      <point x="303" y="94"/>
      <point x="258" y="90"/>
      <point x="242" y="90" type="curve" smooth="yes"/>
      <point x="151" y="90"/>
      <point x="144" y="123"/>
      <point x="153" y="173" type="curve" smooth="yes"/>
      <point x="156" y="190"/>
      <point x="161" y="218"/>
      <point x="164" y="238" type="curve" smooth="yes"/>
      <point x="171" y="275"/>
      <point x="197" y="287"/>
      <point x="228" y="287" type="curve" smooth="yes"/>
      <point x="276" y="287"/>
      <point x="320" y="260"/>
    </contour>
    <contour>
      <point x="239" y="626" type="curve"/>
      <point x="285" y="551" type="line"/>
      <point x="329" y="551" type="line"/>
      <point x="319" y="667" type="line"/>
      <point x="313" y="694"/>
      <point x="287" y="712"/>
      <point x="258" y="697" type="curve" smooth="yes"/>
      <point x="227" y="682"/>
      <point x="225" y="645"/>
    </contour>
  </outline>
</glyph>
<glyph name="atilde" format="1">
  <advance width="416"/>
  <unicode hex="00E3"/>
  <outline>
    <contour>
      <point x="346" y="334" type="curve"/>
      <point x="323" y="378"/>
      <point x="265" y="400"/>
      <point x="218" y="400" type="curve" smooth="yes"/>
      <point x="145" y="400"/>
      <point x="75" y="354"/>
      <point x="57" y="252" type="curve"/>
      <point x="57" y="252"/>
      <point x="40" y="155"/>
      <point x="40" y="155" type="curve"/>
      <point x="23" y="28"/>
      <point x="104" y="-11"/>
      <point x="216" y="-11" type="curve" smooth="yes"/>
      <point x="283" y="-11"/>
      <point x="341" y="-8"/>
      <point x="398" y="0" type="curve"/>
      <point x="398" y="0"/>
      <point x="432" y="194"/>
      <point x="451" y="306" type="curve" smooth="yes"/>
      <point x="468" y="398"/>
      <point x="452" y="442"/>
      <point x="432" y="464" type="curve" smooth="yes"/>
      <point x="395" y="504"/>
      <point x="332" y="508"/>
      <point x="279" y="508" type="curve"/>
      <point x="258" y="433" type="line"/>
      <point x="299" y="433"/>
      <point x="326" y="422"/>
      <point x="342" y="406" type="curve" smooth="yes"/>
      <point x="352" y="395"/>
      <point x="354" y="377"/>
    </contour>
    <contour>
      <point x="332" y="252" type="curve"/>
      <point x="332" y="252"/>
      <point x="304" y="94"/>
      <point x="304" y="94" type="curve"/>
      <point x="304" y="94"/>
      <point x="259" y="90"/>
      <point x="243" y="90" type="curve" smooth="yes"/>
      <point x="152" y="90"/>
      <point x="145" y="123"/>
      <point x="154" y="173" type="curve" smooth="yes"/>
      <point x="157" y="190"/>
      <point x="162" y="218"/>
      <point x="165" y="238" type="curve" smooth="yes"/>
      <point x="172" y="275"/>
      <point x="198" y="287"/>
      <point x="229" y="287" type="curve" smooth="yes"/>
      <point x="277" y="287"/>
      <point x="321" y="260"/>
    </contour>
    <contour>
      <point x="440" y="581" type="curve"/>
      <point x="424" y="641" type="line"/>
      <point x="409" y="630"/>
      <point x="389" y="623"/>
      <point x="373" y="621" type="curve"/>
      <point x="335" y="621"/>
      <point x="308" y="641"/>
      <point x="272" y="641" type="curve" smooth="yes"/>
      <point x="220" y="639"/>
      <point x="196" y="618"/>
      <point x="182" y="608" type="curve"/>
      <point x="199" y="549" type="line"/>
      <point x="208" y="555"/>
      <point x="223" y="566"/>
      <point x="250" y="568" type="curve" smooth="yes"/>
      <point x="287" y="568"/>
      <point x="316" y="551"/>
      <point x="350" y="551" type="curve" smooth="yes"/>
      <point x="384" y="551"/>
      <point x="414" y="564"/>
    </contour>
  </outline>
</glyph>
<glyph name="adieresis" format="1">
  <advance width="417"/>
  <unicode hex="00E4"/>
  <outline>
    <contour>
      <point x="346" y="334" type="curve"/>
      <point x="323" y="378"/>
      <point x="265" y="400"/>
      <point x="218" y="400" type="curve" smooth="yes"/>
      <point x="145" y="400"/>
      <point x="75" y="354"/>
      <point x="57" y="252" type="curve"/>
      <point x="57" y="252"/>
      <point x="40" y="155"/>
      <point x="40" y="155" type="curve"/>
      <point x="23" y="28"/>
      <point x="104" y="-11"/>
      <point x="216" y="-11" type="curve" smooth="yes"/>
      <point x="283" y="-11"/>
      <point x="341" y="-8"/>
      <point x="398" y="0" type="curve"/>
      <point x="398" y="0"/>
      <point x="432" y="194"/>
      <point x="451" y="306" type="curve" smooth="yes"/>
      <point x="468" y="398"/>
      <point x="452" y="442"/>
      <point x="432" y="464" type="curve" smooth="yes"/>
      <point x="395" y="504"/>
      <point x="332" y="508"/>
      <point x="279" y="508" type="curve"/>
      <point x="258" y="433" type="line"/>
      <point x="299" y="433"/>
      <point x="326" y="422"/>
      <point x="342" y="406" type="curve" smooth="yes"/>
      <point x="352" y="395"/>
      <point x="354" y="377"/>
    </contour>
    <contour>
      <point x="332" y="252" type="curve"/>
      <point x="332" y="252"/>
      <point x="304" y="94"/>
      <point x="304" y="94" type="curve"/>
      <point x="304" y="94"/>
      <point x="259" y="90"/>
      <point x="243" y="90" type="curve" smooth="yes"/>
      <point x="152" y="90"/>
      <point x="145" y="123"/>
      <point x="154" y="173" type="curve" smooth="yes"/>
      <point x="157" y="190"/>
      <point x="162" y="218"/>
      <point x="165" y="238" type="curve" smooth="yes"/>
      <point x="172" y="275"/>
      <point x="198" y="287"/>
      <point x="229" y="287" type="curve" smooth="yes"/>
      <point x="277" y="287"/>
      <point x="321" y="260"/>
    </contour>
    <contour>
      <point x="401" y="668" type="curve" smooth="yes"/>
      <point x="368" y="668"/>
      <point x="337" y="642"/>
      <point x="331" y="609" type="curve" smooth="yes"/>
      <point x="325" y="576"/>
      <point x="347" y="549"/>
      <point x="380" y="549" type="curve" smooth="yes"/>
      <point x="412" y="549"/>
      <point x="444" y="576"/>
      <point x="450" y="609" type="curve" smooth="yes"/>
      <point x="456" y="642"/>
      <point x="433" y="668"/>
    </contour>
    <contour>
      <point x="242" y="668" type="curve" smooth="yes"/>
      <point x="209" y="668"/>
      <point x="179" y="642"/>
      <point x="173" y="609" type="curve" smooth="yes"/>
      <point x="167" y="576"/>
      <point x="188" y="549"/>
      <point x="221" y="549" type="curve" smooth="yes"/>
      <point x="254" y="549"/>
      <point x="286" y="576"/>
      <point x="292" y="609" type="curve" smooth="yes"/>
      <point x="298" y="642"/>
      <point x="275" y="668"/>
    </contour>
  </outline>
</glyph>
<glyph name="ae" format="1">
  <advance width="664"/>
  <unicode hex="00E6"/>
  <outline>
    <contour>
      <point x="428" y="150" type="curve" smooth="yes"/>
      <point x="432" y="174" type="line"/>
      <point x="682" y="187" type="line"/>
      <point x="710" y="343" type="line" smooth="yes"/>
      <point x="729" y="450"/>
      <point x="661" y="510"/>
      <point x="563" y="510" type="curve" smooth="yes"/>
      <point x="514" y="510"/>
      <point x="469" y="497"/>
      <point x="426" y="469" type="curve"/>
      <point x="388" y="504"/>
      <point x="329" y="508"/>
      <point x="278" y="508" type="curve"/>
      <point x="271" y="483"/>
      <point x="264" y="459"/>
      <point x="256" y="433" type="curve"/>
      <point x="332" y="431"/>
      <point x="358" y="408"/>
      <point x="345" y="334" type="curve"/>
      <point x="322" y="378"/>
      <point x="264" y="400"/>
      <point x="217" y="400" type="curve" smooth="yes"/>
      <point x="144" y="400"/>
      <point x="74" y="354"/>
      <point x="56" y="252" type="curve" smooth="yes"/>
      <point x="39" y="155" type="line" smooth="yes"/>
      <point x="22" y="28"/>
      <point x="103" y="-11"/>
      <point x="216" y="-11" type="curve" smooth="yes"/>
      <point x="277" y="-11"/>
      <point x="331" y="-9"/>
      <point x="384" y="-2" type="curve"/>
      <point x="387" y="13" type="line"/>
      <point x="400" y="0"/>
      <point x="434" y="-12"/>
      <point x="468" y="-12" type="curve" smooth="yes"/>
      <point x="528" y="-12"/>
      <point x="580" y="7"/>
      <point x="631" y="36" type="curve"/>
      <point x="608" y="131" type="line"/>
      <point x="561" y="109"/>
      <point x="510" y="91"/>
      <point x="475" y="91" type="curve" smooth="yes"/>
      <point x="436" y="91"/>
      <point x="422" y="117"/>
    </contour>
    <contour>
      <point x="331" y="252" type="curve"/>
      <point x="303" y="94" type="line"/>
      <point x="303" y="94"/>
      <point x="258" y="90"/>
      <point x="242" y="90" type="curve" smooth="yes"/>
      <point x="151" y="90"/>
      <point x="144" y="123"/>
      <point x="153" y="173" type="curve" smooth="yes"/>
      <point x="164" y="238" type="line" smooth="yes"/>
      <point x="171" y="275"/>
      <point x="197" y="287"/>
      <point x="228" y="287" type="curve" smooth="yes"/>
      <point x="276" y="287"/>
      <point x="320" y="260"/>
    </contour>
    <contour>
      <point x="596" y="323" type="curve" smooth="yes"/>
      <point x="590" y="284" type="line"/>
      <point x="450" y="275" type="line"/>
      <point x="459" y="326" type="line" smooth="yes"/>
      <point x="469" y="380"/>
      <point x="495" y="403"/>
      <point x="544" y="405" type="curve" smooth="yes"/>
      <point x="599" y="405"/>
      <point x="604" y="367"/>
    </contour>
  </outline>
</glyph>
<glyph name="ccedilla" format="1">
  <advance width="350"/>
  <unicode hex="00E7"/>
  <outline>
    <contour>
      <point x="377" y="392" type="curve"/>
      <point x="417" y="477" type="line"/>
      <point x="363" y="503"/>
      <point x="302" y="518"/>
      <point x="241" y="505" type="curve" smooth="yes"/>
      <point x="194" y="495"/>
      <point x="150" y="471"/>
      <point x="117" y="427" type="curve" smooth="yes"/>
      <point x="91" y="395"/>
      <point x="79" y="363"/>
      <point x="69" y="319" type="curve"/>
      <point x="43" y="173" type="line" smooth="yes"/>
      <point x="26" y="75"/>
      <point x="61" y="23"/>
      <point x="125" y="1" type="curve" smooth="yes"/>
      <point x="192" y="-20"/>
      <point x="268" y="-12"/>
      <point x="335" y="5" type="curve"/>
      <point x="332" y="94" type="line"/>
      <point x="332" y="94"/>
      <point x="283" y="84"/>
      <point x="240" y="84" type="curve" smooth="yes"/>
      <point x="179" y="84"/>
      <point x="141" y="113"/>
      <point x="152" y="174" type="curve" smooth="yes"/>
      <point x="180" y="331" type="line" smooth="yes"/>
      <point x="183" y="351"/>
      <point x="192" y="367"/>
      <point x="202" y="380" type="curve" smooth="yes"/>
      <point x="217" y="398"/>
      <point x="240" y="409"/>
      <point x="263" y="413" type="curve"/>
      <point x="304" y="420"/>
      <point x="345" y="408"/>
    </contour>
    <contour>
      <point x="227" y="-37" type="curve" smooth="yes"/>
      <point x="224" y="-37"/>
      <point x="221" y="-37"/>
      <point x="202" y="-39" type="curve"/>
      <point x="234" y="4" type="line"/>
      <point x="167" y="4" type="line"/>
      <point x="109" y="-72" type="line"/>
      <point x="120" y="-110" type="line"/>
      <point x="161" y="-107"/>
      <point x="190" y="-103"/>
      <point x="211" y="-103" type="curve" smooth="yes"/>
      <point x="235" y="-103"/>
      <point x="243" y="-116"/>
      <point x="240" y="-134" type="curve" smooth="yes"/>
      <point x="237" y="-151"/>
      <point x="224" y="-164"/>
      <point x="197" y="-164" type="curve" smooth="yes"/>
      <point x="154" y="-164"/>
      <point x="99" y="-155"/>
      <point x="99" y="-155" type="curve"/>
      <point x="87" y="-184"/>
      <point x="83" y="-193"/>
      <point x="73" y="-220" type="curve"/>
      <point x="77" y="-220"/>
      <point x="125" y="-231"/>
      <point x="174" y="-231" type="curve" smooth="yes"/>
      <point x="255" y="-231"/>
      <point x="298" y="-189"/>
      <point x="309" y="-129" type="curve" smooth="yes"/>
      <point x="317" y="-83"/>
      <point x="289" y="-37"/>
    </contour>
  </outline>
</glyph>
<glyph name="egrave" format="1">
  <advance width="389"/>
  <unicode hex="00E8"/>
  <outline>
    <contour>
      <point x="153" y="148" type="curve" smooth="yes"/>
      <point x="157" y="173" type="line"/>
      <point x="407" y="186" type="line"/>
      <point x="435" y="342" type="line" smooth="yes"/>
      <point x="445" y="402"/>
      <point x="432" y="449"/>
      <point x="399" y="477" type="curve" smooth="yes"/>
      <point x="372" y="498"/>
      <point x="335" y="509"/>
      <point x="288" y="509" type="curve" smooth="yes"/>
      <point x="237" y="509"/>
      <point x="193" y="496"/>
      <point x="158" y="472" type="curve" smooth="yes"/>
      <point x="114" y="442"/>
      <point x="85" y="397"/>
      <point x="74" y="339" type="curve" smooth="yes"/>
      <point x="38" y="134" type="line" smooth="yes"/>
      <point x="29" y="80"/>
      <point x="42" y="43"/>
      <point x="69" y="20" type="curve" smooth="yes"/>
      <point x="95" y="-3"/>
      <point x="133" y="-13"/>
      <point x="177" y="-13" type="curve" smooth="yes"/>
      <point x="237" y="-13"/>
      <point x="304" y="5"/>
      <point x="357" y="35" type="curve"/>
      <point x="332" y="130" type="line"/>
      <point x="286" y="108"/>
      <point x="234" y="90"/>
      <point x="198" y="90" type="curve" smooth="yes"/>
      <point x="180" y="90"/>
      <point x="166" y="95"/>
      <point x="158" y="106" type="curve"/>
      <point x="152" y="116"/>
      <point x="149" y="129"/>
    </contour>
    <contour>
      <point x="319" y="312" type="curve" smooth="yes"/>
      <point x="317" y="305"/>
      <point x="314" y="289"/>
      <point x="313" y="283" type="curve"/>
      <point x="175" y="274" type="line"/>
      <point x="177" y="284"/>
      <point x="180" y="304"/>
      <point x="182" y="313" type="curve" smooth="yes"/>
      <point x="187" y="345"/>
      <point x="192" y="367"/>
      <point x="212" y="385" type="curve"/>
      <point x="225" y="395"/>
      <point x="245" y="403"/>
      <point x="269" y="404" type="curve" smooth="yes"/>
      <point x="290" y="404"/>
      <point x="303" y="397"/>
      <point x="311" y="388" type="curve" smooth="yes"/>
      <point x="328" y="371"/>
      <point x="325" y="348"/>
    </contour>
    <contour>
      <point x="222" y="624" type="curve"/>
      <point x="268" y="549" type="line"/>
      <point x="312" y="549" type="line"/>
      <point x="303" y="664" type="line"/>
      <point x="297" y="692"/>
      <point x="270" y="710"/>
      <point x="242" y="695" type="curve" smooth="yes"/>
      <point x="209" y="680"/>
      <point x="209" y="642"/>
    </contour>
  </outline>
</glyph>
<glyph name="eacute" format="1">
  <advance width="389"/>
  <unicode hex="00E9"/>
  <outline>
    <contour>
      <point x="151" y="148" type="curve" smooth="yes"/>
      <point x="155" y="173" type="line"/>
      <point x="406" y="186" type="line"/>
      <point x="434" y="342" type="line" smooth="yes"/>
      <point x="444" y="402"/>
      <point x="431" y="449"/>
      <point x="397" y="477" type="curve" smooth="yes"/>
      <point x="371" y="498"/>
      <point x="334" y="509"/>
      <point x="287" y="509" type="curve" smooth="yes"/>
      <point x="236" y="509"/>
      <point x="192" y="496"/>
      <point x="157" y="472" type="curve" smooth="yes"/>
      <point x="113" y="442"/>
      <point x="84" y="397"/>
      <point x="73" y="339" type="curve" smooth="yes"/>
      <point x="37" y="134" type="line" smooth="yes"/>
      <point x="28" y="80"/>
      <point x="41" y="43"/>
      <point x="68" y="20" type="curve" smooth="yes"/>
      <point x="94" y="-3"/>
      <point x="132" y="-13"/>
      <point x="176" y="-13" type="curve" smooth="yes"/>
      <point x="236" y="-13"/>
      <point x="302" y="5"/>
      <point x="356" y="35" type="curve"/>
      <point x="331" y="130" type="line"/>
      <point x="285" y="108"/>
      <point x="233" y="90"/>
      <point x="197" y="90" type="curve" smooth="yes"/>
      <point x="179" y="90"/>
      <point x="164" y="95"/>
      <point x="157" y="106" type="curve"/>
      <point x="151" y="116"/>
      <point x="147" y="129"/>
    </contour>
    <contour>
      <point x="318" y="312" type="curve" smooth="yes"/>
      <point x="316" y="305"/>
      <point x="313" y="289"/>
      <point x="312" y="283" type="curve"/>
      <point x="173" y="274" type="line"/>
      <point x="175" y="284"/>
      <point x="178" y="304"/>
      <point x="180" y="313" type="curve" smooth="yes"/>
      <point x="185" y="345"/>
      <point x="191" y="367"/>
      <point x="211" y="385" type="curve"/>
      <point x="224" y="395"/>
      <point x="244" y="403"/>
      <point x="268" y="404" type="curve" smooth="yes"/>
      <point x="289" y="404"/>
      <point x="302" y="397"/>
      <point x="310" y="388" type="curve" smooth="yes"/>
      <point x="327" y="371"/>
      <point x="324" y="348"/>
    </contour>
    <contour>
      <point x="314" y="664" type="curve" smooth="yes"/>
      <point x="263" y="549" type="line"/>
      <point x="307" y="549" type="line"/>
      <point x="381" y="624" type="line" smooth="yes"/>
      <point x="401" y="646"/>
      <point x="408" y="681"/>
      <point x="384" y="695" type="curve" smooth="yes"/>
      <point x="362" y="710"/>
      <point x="326" y="691"/>
    </contour>
  </outline>
</glyph>
<glyph name="edieresis" format="1">
  <advance width="392"/>
  <unicode hex="00EB"/>
  <outline>
    <contour>
      <point x="153" y="148" type="curve" smooth="yes"/>
      <point x="157" y="173" type="line"/>
      <point x="407" y="186" type="line"/>
      <point x="435" y="342" type="line" smooth="yes"/>
      <point x="445" y="402"/>
      <point x="432" y="449"/>
      <point x="399" y="477" type="curve" smooth="yes"/>
      <point x="372" y="498"/>
      <point x="335" y="509"/>
      <point x="288" y="509" type="curve" smooth="yes"/>
      <point x="237" y="509"/>
      <point x="193" y="496"/>
      <point x="158" y="472" type="curve" smooth="yes"/>
      <point x="114" y="442"/>
      <point x="85" y="397"/>
      <point x="74" y="339" type="curve" smooth="yes"/>
      <point x="38" y="134" type="line" smooth="yes"/>
      <point x="29" y="80"/>
      <point x="42" y="43"/>
      <point x="68" y="20" type="curve" smooth="yes"/>
      <point x="95" y="-3"/>
      <point x="133" y="-13"/>
      <point x="177" y="-13" type="curve" smooth="yes"/>
      <point x="237" y="-13"/>
      <point x="304" y="5"/>
      <point x="356" y="35" type="curve"/>
      <point x="332" y="130" type="line"/>
      <point x="286" y="108"/>
      <point x="234" y="90"/>
      <point x="198" y="90" type="curve" smooth="yes"/>
      <point x="179" y="90"/>
      <point x="167" y="95"/>
      <point x="159" y="106" type="curve"/>
      <point x="151" y="116"/>
      <point x="149" y="129"/>
    </contour>
    <contour>
      <point x="319" y="312" type="curve" smooth="yes"/>
      <point x="317" y="305"/>
      <point x="314" y="289"/>
      <point x="313" y="283" type="curve"/>
      <point x="175" y="274" type="line"/>
      <point x="177" y="284"/>
      <point x="180" y="304"/>
      <point x="182" y="313" type="curve" smooth="yes"/>
      <point x="187" y="345"/>
      <point x="192" y="367"/>
      <point x="212" y="385" type="curve"/>
      <point x="225" y="395"/>
      <point x="245" y="403"/>
      <point x="269" y="404" type="curve" smooth="yes"/>
      <point x="290" y="404"/>
      <point x="303" y="397"/>
      <point x="311" y="388" type="curve" smooth="yes"/>
      <point x="327" y="371"/>
      <point x="325" y="348"/>
    </contour>
    <contour>
      <point x="391" y="668" type="curve" smooth="yes"/>
      <point x="358" y="668"/>
      <point x="329" y="642"/>
      <point x="323" y="609" type="curve" smooth="yes"/>
      <point x="317" y="576"/>
      <point x="337" y="549"/>
      <point x="370" y="549" type="curve" smooth="yes"/>
      <point x="403" y="549"/>
      <point x="435" y="576"/>
      <point x="441" y="609" type="curve" smooth="yes"/>
      <point x="447" y="642"/>
      <point x="424" y="668"/>
    </contour>
    <contour>
      <point x="234" y="668" type="curve" smooth="yes"/>
      <point x="201" y="668"/>
      <point x="169" y="642"/>
      <point x="163" y="609" type="curve" smooth="yes"/>
      <point x="157" y="576"/>
      <point x="180" y="549"/>
      <point x="213" y="549" type="curve" smooth="yes"/>
      <point x="246" y="549"/>
      <point x="277" y="576"/>
      <point x="283" y="609" type="curve" smooth="yes"/>
      <point x="289" y="642"/>
      <point x="267" y="668"/>
    </contour>
  </outline>
</glyph>
<glyph name="igrave" format="1">
  <advance width="183"/>
  <unicode hex="00EC"/>
  <outline>
    <contour>
      <point x="250" y="499" type="line"/>
      <point x="140" y="499" type="line"/>
      <point x="53" y="0" type="line"/>
      <point x="163" y="0" type="line"/>
    </contour>
    <contour>
      <point x="135" y="620" type="curve" smooth="yes"/>
      <point x="181" y="544" type="line"/>
      <point x="225" y="544" type="line"/>
      <point x="215" y="661" type="line"/>
      <point x="211" y="689"/>
      <point x="182" y="705"/>
      <point x="155" y="691" type="curve"/>
      <point x="123" y="675"/>
      <point x="123" y="640"/>
    </contour>
  </outline>
</glyph>
<glyph name="iacute" format="1">
  <advance width="179"/>
  <unicode hex="00ED"/>
  <outline>
    <contour>
      <point x="217" y="499" type="line"/>
      <point x="107" y="499" type="line"/>
      <point x="20" y="0" type="line"/>
      <point x="130" y="0" type="line"/>
    </contour>
    <contour>
      <point x="195" y="661" type="curve" smooth="yes"/>
      <point x="145" y="544" type="line"/>
      <point x="189" y="544" type="line"/>
      <point x="261" y="620" type="line" smooth="yes"/>
      <point x="283" y="642"/>
      <point x="289" y="676"/>
      <point x="265" y="691" type="curve"/>
      <point x="243" y="706"/>
      <point x="206" y="686"/>
    </contour>
  </outline>
</glyph>
<glyph name="idieresis" format="1">
  <advance width="284"/>
  <unicode hex="00EF"/>
  <outline>
    <contour>
      <point x="283" y="499" type="line"/>
      <point x="173" y="499" type="line"/>
      <point x="86" y="0" type="line"/>
      <point x="196" y="0" type="line"/>
    </contour>
    <contour>
      <point x="385" y="604" type="curve" smooth="yes"/>
      <point x="391" y="636"/>
      <point x="368" y="663"/>
      <point x="335" y="663" type="curve" smooth="yes"/>
      <point x="302" y="663"/>
      <point x="273" y="636"/>
      <point x="267" y="604" type="curve" smooth="yes"/>
      <point x="261" y="571"/>
      <point x="281" y="543"/>
      <point x="314" y="543" type="curve" smooth="yes"/>
      <point x="347" y="543"/>
      <point x="379" y="571"/>
    </contour>
    <contour>
      <point x="227" y="604" type="curve" smooth="yes"/>
      <point x="233" y="636"/>
      <point x="211" y="663"/>
      <point x="178" y="663" type="curve" smooth="yes"/>
      <point x="145" y="663"/>
      <point x="113" y="636"/>
      <point x="107" y="604" type="curve" smooth="yes"/>
      <point x="101" y="571"/>
      <point x="124" y="543"/>
      <point x="157" y="543" type="curve" smooth="yes"/>
      <point x="190" y="543"/>
      <point x="221" y="571"/>
    </contour>
  </outline>
</glyph>
<glyph name="eth" format="1">
  <advance width="450"/>
  <unicode hex="00F0"/>
  <outline>
    <contour>
      <point x="345" y="708" type="curve" smooth="yes"/>
      <point x="286" y="708"/>
      <point x="233" y="687"/>
      <point x="184" y="647" type="curve" smooth="yes"/>
      <point x="136" y="606"/>
      <point x="106" y="554"/>
      <point x="96" y="496" type="curve" smooth="yes"/>
      <point x="86" y="437"/>
      <point x="98" y="387"/>
      <point x="130" y="345" type="curve" smooth="yes"/>
      <point x="164" y="305"/>
      <point x="213" y="286"/>
      <point x="271" y="286" type="curve" smooth="yes"/>
      <point x="338" y="286"/>
      <point x="378" y="315"/>
      <point x="378" y="315" type="curve"/>
      <point x="369" y="262" type="line" smooth="yes"/>
      <point x="360" y="211"/>
      <point x="340" y="169"/>
      <point x="311" y="140" type="curve"/>
      <point x="285" y="116"/>
      <point x="251" y="100"/>
      <point x="210" y="100" type="curve" smooth="yes"/>
      <point x="171" y="100" type="line"/>
      <point x="153" y="-1" type="line"/>
      <point x="188" y="-1" type="line" smooth="yes"/>
      <point x="277" y="-1"/>
      <point x="351" y="34"/>
      <point x="396" y="82" type="curve" smooth="yes"/>
      <point x="441" y="134"/>
      <point x="464" y="185"/>
      <point x="473" y="238" type="curve" smooth="yes"/>
      <point x="519" y="496" type="line" smooth="yes"/>
      <point x="529" y="554"/>
      <point x="517" y="606"/>
      <point x="485" y="647" type="curve" smooth="yes"/>
      <point x="451" y="687"/>
      <point x="403" y="708"/>
    </contour>
    <contour>
      <point x="326" y="599" type="curve" smooth="yes"/>
      <point x="383" y="599"/>
      <point x="420" y="554"/>
      <point x="410" y="497" type="curve" smooth="yes"/>
      <point x="400" y="440"/>
      <point x="347" y="394"/>
      <point x="290" y="394" type="curve" smooth="yes"/>
      <point x="233" y="394"/>
      <point x="194" y="440"/>
      <point x="204" y="497" type="curve" smooth="yes"/>
      <point x="214" y="554"/>
      <point x="269" y="599"/>
    </contour>
  </outline>
</glyph>
<glyph name="ntilde" format="1">
  <advance width="408"/>
  <unicode hex="00F1"/>
  <outline>
    <contour>
      <point x="340" y="343" type="curve" smooth="yes"/>
      <point x="280" y="0" type="line"/>
      <point x="389" y="0" type="line"/>
      <point x="449" y="345" type="line" smooth="yes"/>
      <point x="472" y="473"/>
      <point x="396" y="509"/>
      <point x="317" y="509" type="curve" smooth="yes"/>
      <point x="276" y="509"/>
      <point x="232" y="488"/>
      <point x="212" y="476" type="curve"/>
      <point x="216" y="499" type="line"/>
      <point x="107" y="499" type="line"/>
      <point x="20" y="0" type="line"/>
      <point x="129" y="0" type="line"/>
      <point x="197" y="386" type="line"/>
      <point x="233" y="403"/>
      <point x="262" y="410"/>
      <point x="285" y="410" type="curve"/>
      <point x="327" y="408"/>
      <point x="347" y="380"/>
    </contour>
    <contour>
      <point x="437" y="579" type="curve"/>
      <point x="421" y="639" type="line"/>
      <point x="406" y="628"/>
      <point x="387" y="620"/>
      <point x="372" y="620" type="curve" smooth="yes"/>
      <point x="335" y="620"/>
      <point x="307" y="639"/>
      <point x="274" y="639" type="curve" smooth="yes"/>
      <point x="236" y="639"/>
      <point x="208" y="625"/>
      <point x="179" y="605" type="curve"/>
      <point x="197" y="547" type="line"/>
      <point x="207" y="553"/>
      <point x="222" y="565"/>
      <point x="246" y="565" type="curve" smooth="yes"/>
      <point x="284" y="565"/>
      <point x="313" y="549"/>
      <point x="348" y="549" type="curve" smooth="yes"/>
      <point x="381" y="549"/>
      <point x="412" y="562"/>
    </contour>
  </outline>
</glyph>
<glyph name="ograve" format="1">
  <advance width="397"/>
  <unicode hex="00F2"/>
  <outline>
    <contour>
      <point x="415" y="184" type="curve" smooth="yes"/>
      <point x="438" y="316" type="line" smooth="yes"/>
      <point x="460" y="437"/>
      <point x="406" y="510"/>
      <point x="290" y="510" type="curve" smooth="yes"/>
      <point x="169" y="510"/>
      <point x="91" y="443"/>
      <point x="68" y="316" type="curve" smooth="yes"/>
      <point x="45" y="184" type="line" smooth="yes"/>
      <point x="27" y="82"/>
      <point x="67" y="-10"/>
      <point x="199" y="-10" type="curve" smooth="yes"/>
      <point x="324" y="-10"/>
      <point x="395" y="71"/>
    </contour>
    <contour>
      <point x="328" y="322" type="curve" smooth="yes"/>
      <point x="303" y="176" type="line" smooth="yes"/>
      <point x="295" y="131"/>
      <point x="267" y="98"/>
      <point x="217" y="98" type="curve" smooth="yes"/>
      <point x="164" y="98"/>
      <point x="148" y="135"/>
      <point x="156" y="176" type="curve" smooth="yes"/>
      <point x="181" y="322" type="line" smooth="yes"/>
      <point x="190" y="373"/>
      <point x="222" y="400"/>
      <point x="270" y="400" type="curve" smooth="yes"/>
      <point x="318" y="400"/>
      <point x="337" y="370"/>
    </contour>
    <contour>
      <point x="231" y="624" type="curve"/>
      <point x="276" y="549" type="line"/>
      <point x="320" y="549" type="line"/>
      <point x="311" y="664" type="line" smooth="yes"/>
      <point x="307" y="693"/>
      <point x="277" y="708"/>
      <point x="251" y="695" type="curve" smooth="yes"/>
      <point x="218" y="680"/>
      <point x="218" y="642"/>
    </contour>
  </outline>
</glyph>
<glyph name="oacute" format="1">
  <advance width="398"/>
  <unicode hex="00F3"/>
  <outline>
    <contour>
      <point x="415" y="184" type="curve" smooth="yes"/>
      <point x="438" y="316" type="line" smooth="yes"/>
      <point x="460" y="437"/>
      <point x="406" y="510"/>
      <point x="290" y="510" type="curve" smooth="yes"/>
      <point x="169" y="510"/>
      <point x="91" y="443"/>
      <point x="68" y="316" type="curve" smooth="yes"/>
      <point x="45" y="184" type="line" smooth="yes"/>
      <point x="27" y="82"/>
      <point x="67" y="-10"/>
      <point x="199" y="-10" type="curve" smooth="yes"/>
      <point x="324" y="-10"/>
      <point x="395" y="71"/>
    </contour>
    <contour>
      <point x="328" y="322" type="curve" smooth="yes"/>
      <point x="303" y="176" type="line" smooth="yes"/>
      <point x="295" y="131"/>
      <point x="267" y="98"/>
      <point x="217" y="98" type="curve" smooth="yes"/>
      <point x="164" y="98"/>
      <point x="148" y="135"/>
      <point x="156" y="176" type="curve" smooth="yes"/>
      <point x="181" y="322" type="line" smooth="yes"/>
      <point x="190" y="373"/>
      <point x="222" y="400"/>
      <point x="270" y="400" type="curve" smooth="yes"/>
      <point x="318" y="400"/>
      <point x="337" y="370"/>
    </contour>
    <contour>
      <point x="317" y="664" type="curve" smooth="yes"/>
      <point x="266" y="549" type="line"/>
      <point x="311" y="549" type="line"/>
      <point x="383" y="624" type="line"/>
      <point x="406" y="646"/>
      <point x="412" y="680"/>
      <point x="388" y="695" type="curve" smooth="yes"/>
      <point x="365" y="710"/>
      <point x="329" y="691"/>
    </contour>
  </outline>
</glyph>
<glyph name="ocircumflex" format="1">
  <advance width="399"/>
  <unicode hex="00F4"/>
  <outline>
    <contour>
      <point x="416" y="184" type="curve" smooth="yes"/>
      <point x="439" y="316" type="line" smooth="yes"/>
      <point x="461" y="437"/>
      <point x="407" y="510"/>
      <point x="291" y="510" type="curve" smooth="yes"/>
      <point x="170" y="510"/>
      <point x="92" y="443"/>
      <point x="69" y="316" type="curve" smooth="yes"/>
      <point x="46" y="184" type="line" smooth="yes"/>
      <point x="28" y="82"/>
      <point x="68" y="-10"/>
      <point x="200" y="-10" type="curve" smooth="yes"/>
      <point x="325" y="-10"/>
      <point x="396" y="71"/>
    </contour>
    <contour>
      <point x="329" y="322" type="curve" smooth="yes"/>
      <point x="304" y="176" type="line" smooth="yes"/>
      <point x="296" y="131"/>
      <point x="268" y="98"/>
      <point x="218" y="98" type="curve" smooth="yes"/>
      <point x="165" y="98"/>
      <point x="150" y="135"/>
      <point x="158" y="176" type="curve" smooth="yes"/>
      <point x="183" y="322" type="line" smooth="yes"/>
      <point x="192" y="373"/>
      <point x="223" y="400"/>
      <point x="271" y="400" type="curve" smooth="yes"/>
      <point x="319" y="400"/>
      <point x="338" y="370"/>
    </contour>
    <contour>
      <point x="311" y="626" type="line"/>
      <point x="371" y="544" type="line"/>
      <point x="434" y="597" type="line"/>
      <point x="328" y="723" type="line"/>
      <point x="174" y="596" type="line"/>
      <point x="216" y="543" type="line"/>
    </contour>
  </outline>
</glyph>
<glyph name="otilde" format="1">
  <advance width="399"/>
  <unicode hex="00F5"/>
  <outline>
    <contour>
      <point x="416" y="184" type="curve" smooth="yes"/>
      <point x="439" y="316" type="line" smooth="yes"/>
      <point x="461" y="437"/>
      <point x="407" y="510"/>
      <point x="291" y="510" type="curve" smooth="yes"/>
      <point x="170" y="510"/>
      <point x="92" y="443"/>
      <point x="69" y="316" type="curve" smooth="yes"/>
      <point x="46" y="184" type="line" smooth="yes"/>
      <point x="28" y="82"/>
      <point x="68" y="-10"/>
      <point x="200" y="-10" type="curve" smooth="yes"/>
      <point x="325" y="-10"/>
      <point x="396" y="71"/>
    </contour>
    <contour>
      <point x="329" y="322" type="curve" smooth="yes"/>
      <point x="304" y="176" type="line" smooth="yes"/>
      <point x="296" y="131"/>
      <point x="268" y="98"/>
      <point x="218" y="98" type="curve" smooth="yes"/>
      <point x="165" y="98"/>
      <point x="150" y="135"/>
      <point x="158" y="176" type="curve" smooth="yes"/>
      <point x="183" y="322" type="line" smooth="yes"/>
      <point x="192" y="373"/>
      <point x="223" y="400"/>
      <point x="271" y="400" type="curve" smooth="yes"/>
      <point x="319" y="400"/>
      <point x="338" y="370"/>
    </contour>
    <contour>
      <point x="432" y="579" type="curve"/>
      <point x="417" y="639" type="line"/>
      <point x="401" y="628"/>
      <point x="382" y="620"/>
      <point x="367" y="620" type="curve" smooth="yes"/>
      <point x="328" y="620"/>
      <point x="299" y="640"/>
      <point x="265" y="640" type="curve"/>
      <point x="213" y="637"/>
      <point x="189" y="616"/>
      <point x="174" y="606" type="curve"/>
      <point x="193" y="547" type="line"/>
      <point x="203" y="554"/>
      <point x="217" y="565"/>
      <point x="241" y="565" type="curve" smooth="yes"/>
      <point x="279" y="565"/>
      <point x="308" y="549"/>
      <point x="342" y="549" type="curve" smooth="yes"/>
      <point x="376" y="549"/>
      <point x="407" y="563"/>
    </contour>
  </outline>
</glyph>
<glyph name="odieresis" format="1">
  <advance width="399"/>
  <unicode hex="00F6"/>
  <outline>
    <contour>
      <point x="416" y="184" type="curve" smooth="yes"/>
      <point x="439" y="316" type="line" smooth="yes"/>
      <point x="461" y="437"/>
      <point x="407" y="510"/>
      <point x="291" y="510" type="curve" smooth="yes"/>
      <point x="170" y="510"/>
      <point x="92" y="443"/>
      <point x="69" y="316" type="curve" smooth="yes"/>
      <point x="46" y="184" type="line" smooth="yes"/>
      <point x="28" y="82"/>
      <point x="68" y="-10"/>
      <point x="200" y="-10" type="curve" smooth="yes"/>
      <point x="325" y="-10"/>
      <point x="396" y="71"/>
    </contour>
    <contour>
      <point x="329" y="322" type="curve" smooth="yes"/>
      <point x="304" y="176" type="line" smooth="yes"/>
      <point x="296" y="131"/>
      <point x="268" y="98"/>
      <point x="218" y="98" type="curve" smooth="yes"/>
      <point x="165" y="98"/>
      <point x="150" y="135"/>
      <point x="158" y="176" type="curve" smooth="yes"/>
      <point x="183" y="322" type="line" smooth="yes"/>
      <point x="192" y="373"/>
      <point x="223" y="400"/>
      <point x="271" y="400" type="curve" smooth="yes"/>
      <point x="319" y="400"/>
      <point x="338" y="370"/>
    </contour>
    <contour>
      <point x="441" y="607" type="curve" smooth="yes"/>
      <point x="446" y="640"/>
      <point x="424" y="667"/>
      <point x="391" y="667" type="curve" smooth="yes"/>
      <point x="358" y="667"/>
      <point x="327" y="640"/>
      <point x="322" y="607" type="curve" smooth="yes"/>
      <point x="316" y="574"/>
      <point x="337" y="547"/>
      <point x="370" y="547" type="curve" smooth="yes"/>
      <point x="403" y="547"/>
      <point x="435" y="574"/>
    </contour>
    <contour>
      <point x="282" y="607" type="curve" smooth="yes"/>
      <point x="287" y="640"/>
      <point x="267" y="667"/>
      <point x="234" y="667" type="curve" smooth="yes"/>
      <point x="201" y="667"/>
      <point x="168" y="640"/>
      <point x="163" y="607" type="curve" smooth="yes"/>
      <point x="157" y="574"/>
      <point x="180" y="547"/>
      <point x="213" y="547" type="curve" smooth="yes"/>
      <point x="246" y="547"/>
      <point x="276" y="574"/>
    </contour>
  </outline>
</glyph>
<glyph name="divide" format="1">
  <advance width="356"/>
  <unicode hex="00F7"/>
  <outline>
    <contour>
      <point x="413" y="426" type="line"/>
      <point x="93" y="426" type="line"/>
      <point x="77" y="340" type="line"/>
      <point x="397" y="340" type="line"/>
    </contour>
    <contour>
      <point x="279" y="571" type="curve" smooth="yes"/>
      <point x="246" y="571"/>
      <point x="214" y="543"/>
      <point x="209" y="512" type="curve" smooth="yes"/>
      <point x="203" y="479"/>
      <point x="225" y="452"/>
      <point x="258" y="452" type="curve" smooth="yes"/>
      <point x="290" y="452"/>
      <point x="323" y="479"/>
      <point x="329" y="512" type="curve" smooth="yes"/>
      <point x="334" y="543"/>
      <point x="311" y="571"/>
    </contour>
    <contour>
      <point x="234" y="313" type="curve" smooth="yes"/>
      <point x="201" y="313"/>
      <point x="169" y="288"/>
      <point x="163" y="255" type="curve" smooth="yes"/>
      <point x="158" y="222"/>
      <point x="180" y="195"/>
      <point x="213" y="195" type="curve" smooth="yes"/>
      <point x="245" y="195"/>
      <point x="278" y="222"/>
      <point x="283" y="255" type="curve" smooth="yes"/>
      <point x="289" y="288"/>
      <point x="266" y="313"/>
    </contour>
  </outline>
</glyph>
<glyph name="oslash" format="1">
  <advance width="417"/>
  <unicode hex="00F8"/>
  <outline>
    <contour>
      <point x="416" y="184" type="curve" smooth="yes"/>
      <point x="439" y="316" type="line" smooth="yes"/>
      <point x="449" y="371"/>
      <point x="444" y="417"/>
      <point x="423" y="450" type="curve"/>
      <point x="507" y="586" type="line"/>
      <point x="399" y="586" type="line"/>
      <point x="349" y="504" type="line"/>
      <point x="331" y="509"/>
      <point x="312" y="510"/>
      <point x="291" y="510" type="curve" smooth="yes"/>
      <point x="170" y="510"/>
      <point x="92" y="443"/>
      <point x="69" y="316" type="curve" smooth="yes"/>
      <point x="46" y="184" type="line" smooth="yes"/>
      <point x="37" y="131"/>
      <point x="44" y="80"/>
      <point x="71" y="44" type="curve"/>
      <point x="3" y="-67" type="line"/>
      <point x="108" y="-67" type="line"/>
      <point x="146" y="-4" type="line"/>
      <point x="162" y="-8"/>
      <point x="181" y="-10"/>
      <point x="200" y="-10" type="curve" smooth="yes"/>
      <point x="325" y="-10"/>
      <point x="396" y="71"/>
    </contour>
    <contour>
      <point x="164" y="215" type="curve" smooth="yes"/>
      <point x="183" y="322" type="line" smooth="yes"/>
      <point x="192" y="373"/>
      <point x="223" y="400"/>
      <point x="271" y="400" type="curve" smooth="yes"/>
      <point x="277" y="400"/>
      <point x="281" y="400"/>
      <point x="287" y="400" type="curve"/>
      <point x="160" y="190" type="line"/>
      <point x="161" y="198"/>
      <point x="163" y="206"/>
    </contour>
    <contour>
      <point x="318" y="260" type="curve" smooth="yes"/>
      <point x="304" y="176" type="line" smooth="yes"/>
      <point x="296" y="131"/>
      <point x="268" y="98"/>
      <point x="218" y="98" type="curve" smooth="yes"/>
      <point x="215" y="98"/>
      <point x="212" y="98"/>
      <point x="210" y="98" type="curve"/>
      <point x="322" y="283" type="line"/>
      <point x="321" y="276"/>
      <point x="320" y="268"/>
    </contour>
  </outline>
</glyph>
<glyph name="ugrave" format="1">
  <advance width="404"/>
  <unicode hex="00F9"/>
  <outline>
    <contour>
      <point x="279" y="26" type="curve"/>
      <point x="275" y="0" type="line"/>
      <point x="385" y="0" type="line"/>
      <point x="473" y="501" type="line"/>
      <point x="363" y="501" type="line"/>
      <point x="305" y="175" type="line" smooth="yes"/>
      <point x="297" y="129"/>
      <point x="256" y="94"/>
      <point x="211" y="94" type="curve" smooth="yes"/>
      <point x="171" y="94"/>
      <point x="148" y="124"/>
      <point x="155" y="159" type="curve" smooth="yes"/>
      <point x="215" y="501" type="line"/>
      <point x="104" y="501" type="line"/>
      <point x="43" y="157" type="line" smooth="yes"/>
      <point x="21" y="29"/>
      <point x="96" y="-7"/>
      <point x="175" y="-7" type="curve" smooth="yes"/>
      <point x="216" y="-7"/>
      <point x="265" y="12"/>
    </contour>
    <contour>
      <point x="231" y="620" type="curve"/>
      <point x="275" y="543" type="line"/>
      <point x="319" y="543" type="line"/>
      <point x="311" y="660" type="line"/>
      <point x="304" y="686"/>
      <point x="279" y="706"/>
      <point x="250" y="691" type="curve" smooth="yes"/>
      <point x="219" y="675"/>
      <point x="217" y="639"/>
    </contour>
  </outline>
</glyph>
<glyph name="udieresis" format="1">
  <advance width="406"/>
  <unicode hex="00FC"/>
  <outline>
    <contour>
      <point x="280" y="26" type="curve"/>
      <point x="276" y="0" type="line"/>
      <point x="386" y="0" type="line"/>
      <point x="474" y="501" type="line"/>
      <point x="364" y="501" type="line"/>
      <point x="306" y="175" type="line" smooth="yes"/>
      <point x="298" y="129"/>
      <point x="257" y="94"/>
      <point x="212" y="94" type="curve" smooth="yes"/>
      <point x="172" y="94"/>
      <point x="149" y="124"/>
      <point x="156" y="159" type="curve" smooth="yes"/>
      <point x="216" y="501" type="line"/>
      <point x="106" y="501" type="line"/>
      <point x="45" y="157" type="line" smooth="yes"/>
      <point x="23" y="29"/>
      <point x="97" y="-7"/>
      <point x="176" y="-7" type="curve" smooth="yes"/>
      <point x="217" y="-7"/>
      <point x="266" y="12"/>
    </contour>
    <contour>
      <point x="398" y="663" type="curve" smooth="yes"/>
      <point x="365" y="663"/>
      <point x="334" y="636"/>
      <point x="328" y="603" type="curve" smooth="yes"/>
      <point x="322" y="570"/>
      <point x="344" y="543"/>
      <point x="377" y="543" type="curve" smooth="yes"/>
      <point x="410" y="543"/>
      <point x="442" y="570"/>
      <point x="448" y="603" type="curve" smooth="yes"/>
      <point x="454" y="636"/>
      <point x="431" y="663"/>
    </contour>
    <contour>
      <point x="239" y="663" type="curve" smooth="yes"/>
      <point x="206" y="663"/>
      <point x="176" y="636"/>
      <point x="170" y="603" type="curve" smooth="yes"/>
      <point x="164" y="570"/>
      <point x="185" y="543"/>
      <point x="218" y="543" type="curve" smooth="yes"/>
      <point x="251" y="543"/>
      <point x="284" y="570"/>
      <point x="290" y="603" type="curve" smooth="yes"/>
      <point x="296" y="636"/>
      <point x="272" y="663"/>
    </contour>
  </outline>
</glyph>
<glyph name="thorn" format="1">
  <advance width="413"/>
  <unicode hex="00FE"/>
  <outline>
    <contour>
      <point x="218" y="491" type="curve"/>
      <point x="255" y="700" type="line"/>
      <point x="145" y="700" type="line"/>
      <point x="22" y="0" type="line"/>
      <point x="132" y="0" type="line"/>
      <point x="156" y="139" type="line"/>
      <point x="173" y="124"/>
      <point x="202" y="116"/>
      <point x="235" y="116" type="curve" smooth="yes"/>
      <point x="346" y="116"/>
      <point x="433" y="190"/>
      <point x="455" y="315" type="curve" smooth="yes"/>
      <point x="475" y="430"/>
      <point x="423" y="508"/>
      <point x="299" y="508" type="curve" smooth="yes"/>
      <point x="273" y="508"/>
      <point x="243" y="502"/>
    </contour>
    <contour>
      <point x="286" y="404" type="curve" smooth="yes"/>
      <point x="338" y="404"/>
      <point x="354" y="360"/>
      <point x="346" y="316" type="curve" smooth="yes"/>
      <point x="334" y="248"/>
      <point x="292" y="220"/>
      <point x="253" y="220" type="curve" smooth="yes"/>
      <point x="207" y="220"/>
      <point x="174" y="249"/>
      <point x="187" y="318" type="curve" smooth="yes"/>
      <point x="196" y="369"/>
      <point x="244" y="404"/>
    </contour>
  </outline>
</glyph>
<glyph name="ydieresis" format="1">
  <advance width="446"/>
  <unicode hex="00FF"/>
  <outline>
    <contour>
      <point x="509" y="433" type="curve"/>
      <point x="488" y="510" type="line"/>
      <point x="398" y="510"/>
      <point x="354" y="448"/>
      <point x="345" y="392" type="curve" smooth="yes"/>
      <point x="307" y="176" type="line" smooth="yes"/>
      <point x="298" y="129"/>
      <point x="253" y="94"/>
      <point x="210" y="94" type="curve" smooth="yes"/>
      <point x="167" y="95"/>
      <point x="148" y="124"/>
      <point x="155" y="161" type="curve" smooth="yes"/>
      <point x="215" y="501" type="line"/>
      <point x="104" y="501" type="line"/>
      <point x="43" y="158" type="line" smooth="yes"/>
      <point x="21" y="30"/>
      <point x="96" y="-6"/>
      <point x="175" y="-6" type="curve" smooth="yes"/>
      <point x="216" y="-6"/>
      <point x="266" y="13"/>
      <point x="280" y="28" type="curve"/>
      <point x="267" y="-48" type="line" smooth="yes"/>
      <point x="263" y="-72"/>
      <point x="253" y="-89"/>
      <point x="238" y="-101" type="curve" smooth="yes"/>
      <point x="221" y="-114"/>
      <point x="201" y="-124"/>
      <point x="184" y="-124" type="curve"/>
      <point x="197" y="-213" type="line"/>
      <point x="230" y="-213"/>
      <point x="275" y="-199"/>
      <point x="307" y="-179" type="curve" smooth="yes"/>
      <point x="343" y="-157"/>
      <point x="365" y="-116"/>
      <point x="375" y="-59" type="curve" smooth="yes"/>
      <point x="449" y="362" type="line" smooth="yes"/>
      <point x="455" y="395"/>
      <point x="469" y="425"/>
    </contour>
    <contour>
      <point x="410" y="663" type="curve" smooth="yes"/>
      <point x="377" y="663"/>
      <point x="345" y="636"/>
      <point x="339" y="603" type="curve" smooth="yes"/>
      <point x="333" y="570"/>
      <point x="356" y="543"/>
      <point x="389" y="543" type="curve" smooth="yes"/>
      <point x="422" y="543"/>
      <point x="453" y="570"/>
      <point x="459" y="603" type="curve" smooth="yes"/>
      <point x="465" y="636"/>
      <point x="443" y="663"/>
    </contour>
    <contour>
      <point x="251" y="663" type="curve" smooth="yes"/>
      <point x="218" y="663"/>
      <point x="188" y="636"/>
      <point x="182" y="603" type="curve" smooth="yes"/>
      <point x="176" y="570"/>
      <point x="197" y="543"/>
      <point x="230" y="543" type="curve" smooth="yes"/>
      <point x="263" y="543"/>
      <point x="295" y="570"/>
      <point x="301" y="603" type="curve" smooth="yes"/>
      <point x="307" y="636"/>
      <point x="284" y="663"/>
    </contour>
  </outline>
</glyph>
<glyph name="amacron" format="1">
  <advance width="416"/>
  <unicode hex="0101"/>
  <outline>
    <contour>
      <point x="346" y="334" type="curve"/>
      <point x="323" y="378"/>
      <point x="265" y="400"/>
      <point x="218" y="400" type="curve" smooth="yes"/>
      <point x="145" y="400"/>
      <point x="75" y="354"/>
      <point x="57" y="252" type="curve"/>
      <point x="57" y="252"/>
      <point x="40" y="155"/>
      <point x="40" y="155" type="curve"/>
      <point x="23" y="28"/>
      <point x="104" y="-11"/>
      <point x="216" y="-11" type="curve" smooth="yes"/>
      <point x="283" y="-11"/>
      <point x="341" y="-8"/>
      <point x="398" y="0" type="curve"/>
      <point x="398" y="0"/>
      <point x="432" y="194"/>
      <point x="451" y="306" type="curve" smooth="yes"/>
      <point x="468" y="398"/>
      <point x="452" y="442"/>
      <point x="432" y="464" type="curve" smooth="yes"/>
      <point x="395" y="504"/>
      <point x="332" y="508"/>
      <point x="279" y="508" type="curve"/>
      <point x="258" y="433" type="line"/>
      <point x="299" y="433"/>
      <point x="326" y="422"/>
      <point x="342" y="406" type="curve" smooth="yes"/>
      <point x="352" y="395"/>
      <point x="354" y="377"/>
    </contour>
    <contour>
      <point x="332" y="252" type="curve"/>
      <point x="332" y="252"/>
      <point x="304" y="94"/>
      <point x="304" y="94" type="curve"/>
      <point x="304" y="94"/>
      <point x="259" y="90"/>
      <point x="243" y="90" type="curve" smooth="yes"/>
      <point x="152" y="90"/>
      <point x="145" y="123"/>
      <point x="154" y="173" type="curve" smooth="yes"/>
      <point x="157" y="190"/>
      <point x="162" y="218"/>
      <point x="165" y="238" type="curve" smooth="yes"/>
      <point x="172" y="275"/>
      <point x="198" y="287"/>
      <point x="229" y="287" type="curve" smooth="yes"/>
      <point x="277" y="287"/>
      <point x="321" y="260"/>
    </contour>
    <contour>
      <point x="429" y="642" type="line"/>
      <point x="209" y="642" type="line"/>
      <point x="193" y="551" type="line"/>
      <point x="413" y="551" type="line"/>
    </contour>
  </outline>
</glyph>
<glyph name="Abreve" format="1">
  <advance width="513"/>
  <unicode hex="0102"/>
  <outline>
    <contour>
      <point x="301" y="698" type="line"/>
      <point x="9" y="0" type="line"/>
      <point x="133" y="0" type="line"/>
      <point x="205" y="183" type="line"/>
      <point x="366" y="183" type="line"/>
      <point x="374" y="0" type="line"/>
      <point x="505" y="0" type="line"/>
      <point x="456" y="698" type="line"/>
    </contour>
    <contour>
      <point x="361" y="300" type="line"/>
      <point x="252" y="300" type="line"/>
      <point x="344" y="515" type="line"/>
    </contour>
    <contour>
      <point x="370" y="856" type="curve" smooth="yes"/>
      <point x="371" y="861" type="line"/>
      <point x="291" y="861" type="line"/>
      <point x="290" y="856" type="line" smooth="yes"/>
      <point x="279" y="793"/>
      <point x="321" y="741"/>
      <point x="383" y="741" type="curve" smooth="yes"/>
      <point x="446" y="741"/>
      <point x="506" y="793"/>
      <point x="517" y="856" type="curve" smooth="yes"/>
      <point x="518" y="861" type="line"/>
      <point x="438" y="861" type="line"/>
      <point x="437" y="856" type="line" smooth="yes"/>
      <point x="434" y="837"/>
      <point x="416" y="822"/>
      <point x="398" y="822" type="curve" smooth="yes"/>
      <point x="379" y="822"/>
      <point x="367" y="837"/>
    </contour>
  </outline>
</glyph>
<glyph name="Aogonek" format="1">
  <advance width="550"/>
  <unicode hex="0104"/>
  <outline>
    <contour>
      <point x="301" y="698" type="line"/>
      <point x="9" y="0" type="line"/>
      <point x="133" y="0" type="line"/>
      <point x="205" y="183" type="line"/>
      <point x="365" y="183" type="line"/>
      <point x="374" y="0" type="line"/>
      <point x="505" y="0" type="line"/>
      <point x="456" y="698" type="line"/>
    </contour>
    <contour>
      <point x="361" y="300" type="line"/>
      <point x="252" y="300" type="line"/>
      <point x="344" y="515" type="line"/>
    </contour>
    <contour>
      <point x="392" y="-127" type="curve"/>
      <point x="495" y="-2" type="line"/>
      <point x="497" y="11" type="line"/>
      <point x="407" y="2" type="line"/>
      <point x="406" y="-2" type="line"/>
      <point x="335" y="-91" type="line" smooth="yes"/>
      <point x="267" y="-183"/>
      <point x="330" y="-253"/>
      <point x="422" y="-229" type="curve" smooth="yes"/>
      <point x="444" y="-223"/>
      <point x="530" y="-195"/>
      <point x="531" y="-194" type="curve"/>
      <point x="520" y="-123" type="line"/>
      <point x="520" y="-123"/>
      <point x="439" y="-149"/>
      <point x="411" y="-158" type="curve" smooth="yes"/>
      <point x="383" y="-168"/>
      <point x="378" y="-147"/>
    </contour>
  </outline>
</glyph>
<glyph name="aogonek" format="1">
  <advance width="452"/>
  <unicode hex="0105"/>
  <outline>
    <contour>
      <point x="345" y="334" type="curve"/>
      <point x="322" y="378"/>
      <point x="264" y="400"/>
      <point x="217" y="400" type="curve" smooth="yes"/>
      <point x="144" y="400"/>
      <point x="74" y="354"/>
      <point x="56" y="252" type="curve"/>
      <point x="56" y="252"/>
      <point x="39" y="155"/>
      <point x="39" y="155" type="curve"/>
      <point x="22" y="28"/>
      <point x="103" y="-11"/>
      <point x="216" y="-11" type="curve" smooth="yes"/>
      <point x="283" y="-11"/>
      <point x="340" y="-8"/>
      <point x="397" y="0" type="curve"/>
      <point x="397" y="0"/>
      <point x="431" y="194"/>
      <point x="450" y="306" type="curve" smooth="yes"/>
      <point x="467" y="398"/>
      <point x="451" y="442"/>
      <point x="432" y="464" type="curve" smooth="yes"/>
      <point x="395" y="504"/>
      <point x="331" y="508"/>
      <point x="278" y="508" type="curve"/>
      <point x="256" y="433" type="line"/>
      <point x="298" y="433"/>
      <point x="326" y="422"/>
      <point x="340" y="406" type="curve" smooth="yes"/>
      <point x="351" y="395"/>
      <point x="353" y="377"/>
    </contour>
    <contour>
      <point x="331" y="252" type="curve"/>
      <point x="331" y="252"/>
      <point x="303" y="94"/>
      <point x="303" y="94" type="curve"/>
      <point x="303" y="94"/>
      <point x="258" y="90"/>
      <point x="242" y="90" type="curve" smooth="yes"/>
      <point x="151" y="90"/>
      <point x="144" y="123"/>
      <point x="153" y="173" type="curve" smooth="yes"/>
      <point x="156" y="190"/>
      <point x="161" y="218"/>
      <point x="164" y="238" type="curve" smooth="yes"/>
      <point x="171" y="275"/>
      <point x="197" y="287"/>
      <point x="228" y="287" type="curve" smooth="yes"/>
      <point x="276" y="287"/>
      <point x="320" y="260"/>
    </contour>
    <contour>
      <point x="316" y="-238" type="curve" smooth="yes"/>
      <point x="339" y="-232"/>
      <point x="425" y="-204"/>
      <point x="426" y="-204" type="curve"/>
      <point x="414" y="-132" type="line"/>
      <point x="414" y="-132"/>
      <point x="335" y="-158"/>
      <point x="304" y="-168" type="curve"/>
      <point x="278" y="-178"/>
      <point x="271" y="-156"/>
      <point x="285" y="-138" type="curve" smooth="yes"/>
      <point x="390" y="-11" type="line"/>
      <point x="390" y="-7"/>
      <point x="391" y="-2"/>
      <point x="392" y="2" type="curve"/>
      <point x="376" y="1"/>
      <point x="300" y="-7"/>
      <point x="299" y="-7" type="curve"/>
      <point x="299" y="-11" type="line"/>
      <point x="299" y="-11"/>
      <point x="269" y="-50"/>
      <point x="230" y="-101" type="curve" smooth="yes"/>
      <point x="164" y="-189"/>
      <point x="218" y="-265"/>
    </contour>
  </outline>
</glyph>
<glyph name="Ccircumflex" format="1">
  <advance width="392"/>
  <unicode hex="0108"/>
  <outline>
    <contour>
      <point x="426" y="582" type="curve"/>
      <point x="473" y="675" type="line"/>
      <point x="437" y="696"/>
      <point x="390" y="710"/>
      <point x="340" y="710" type="curve" smooth="yes"/>
      <point x="288" y="710"/>
      <point x="236" y="697"/>
      <point x="196" y="664" type="curve" smooth="yes"/>
      <point x="154" y="632"/>
      <point x="120" y="581"/>
      <point x="106" y="503" type="curve" smooth="yes"/>
      <point x="50" y="183" type="line" smooth="yes"/>
      <point x="37" y="113"/>
      <point x="52" y="64"/>
      <point x="82" y="32" type="curve" smooth="yes"/>
      <point x="112" y="2"/>
      <point x="158" y="-12"/>
      <point x="212" y="-12" type="curve" smooth="yes"/>
      <point x="264" y="-11"/>
      <point x="321" y="1"/>
      <point x="382" y="23" type="curve"/>
      <point x="384" y="127" type="line"/>
      <point x="372" y="127"/>
      <point x="299" y="100"/>
      <point x="238" y="100" type="curve" smooth="yes"/>
      <point x="210" y="100"/>
      <point x="186" y="105"/>
      <point x="173" y="120" type="curve" smooth="yes"/>
      <point x="159" y="133"/>
      <point x="155" y="154"/>
      <point x="160" y="185" type="curve" smooth="yes"/>
      <point x="218" y="512" type="line" smooth="yes"/>
      <point x="223" y="542"/>
      <point x="234" y="563"/>
      <point x="254" y="577" type="curve" smooth="yes"/>
      <point x="273" y="592"/>
      <point x="300" y="599"/>
      <point x="335" y="599" type="curve" smooth="yes"/>
      <point x="365" y="599"/>
      <point x="401" y="592"/>
    </contour>
    <contour>
      <point x="345" y="825" type="line"/>
      <point x="406" y="743" type="line"/>
      <point x="469" y="795" type="line"/>
      <point x="362" y="922" type="line"/>
      <point x="208" y="794" type="line"/>
      <point x="252" y="743" type="line"/>
    </contour>
  </outline>
</glyph>
